<?xml version="1.0" encoding="UTF-8" standalone="no"?>
<!-- Created with Inkscape (http://www.inkscape.org/) -->

<svg
   version="1.1"
   id="svg9"
   width="409.60001"
   height="230.39999"
   viewBox="0 0 409.60001 230.39999"
   sodipodi:docname="BSlogo.svg"
   inkscape:version="1.1.1 (3bf5ae0d25, 2021-09-20)"
   xmlns:inkscape="http://www.inkscape.org/namespaces/inkscape"
   xmlns:sodipodi="http://sodipodi.sourceforge.net/DTD/sodipodi-0.dtd"
   xmlns="http://www.w3.org/2000/svg"
   xmlns:svg="http://www.w3.org/2000/svg">
  <defs
     id="defs13" />
  <sodipodi:namedview
     id="namedview11"
     pagecolor="#ffffff"
     bordercolor="#666666"
     borderopacity="1.0"
     inkscape:pageshadow="2"
     inkscape:pageopacity="0.0"
     inkscape:pagecheckerboard="0"
     showgrid="false"
     inkscape:zoom="1.4990234"
     inkscape:cx="253.16482"
     inkscape:cy="109.07101"
     inkscape:window-width="1366"
     inkscape:window-height="705"
     inkscape:window-x="-8"
     inkscape:window-y="-8"
     inkscape:window-maximized="1"
     inkscape:current-layer="g15" />
  <g
     inkscape:groupmode="layer"
     inkscape:label="Image"
     id="g15">
    <g
       id="g1015"
       transform="translate(7.6479568,-15.526223)">
      <path
         style="fill:#fdfdfd;stroke-width:0.32"
         d="m 316.00415,192.49753 -1.10277,-1.2 1.2,1.10277 c 1.11693,1.02644 1.34713,1.29723 1.10277,1.29723 -0.0535,0 -0.59347,-0.54 -1.2,-1.2 z m -168.78278,-11.28 c 0.31856,-0.352 0.6512,-0.64 0.7392,-0.64 0.088,0 -0.10064,0.288 -0.4192,0.64 -0.31855,0.352 -0.65119,0.64 -0.73919,0.64 -0.088,0 0.10064,-0.288 0.41919,-0.64 z m 196.96001,-49.72082 c 0,-0.0665 0.252,-0.31845 0.56,-0.56 0.50755,-0.39804 0.51884,-0.38672 0.12083,0.12082 -0.41805,0.53304 -0.68083,0.70255 -0.68083,0.43918 z"
         id="path1085" />
      <path
         style="fill:#eeeeee;stroke-width:0.32"
         d="m 88.761371,166.59893 c 0.230998,-0.0924 0.507001,-0.0811 0.613334,0.0252 0.106333,0.10633 -0.08267,0.18197 -0.42,0.16807 -0.372784,-0.0154 -0.448608,-0.0912 -0.193334,-0.19333 z"
         id="path1083" />
      <path
         style="fill:#ededed;stroke-width:0.32"
         d="m 301.61506,177.45753 -3.03368,-3.12 3.12,3.03368 c 2.89782,2.81765 3.26556,3.20632 3.03368,3.20632 -0.0475,0 -1.45148,-1.404 -3.12,-3.12 z m -221.45791,-22.72 -0.77578,-0.88 0.88,0.77578 c 0.822493,0.72508 1.026749,0.98422 0.77578,0.98422 -0.05732,0 -0.453319,-0.396 -0.88,-0.88 z"
         id="path1081" />
      <path
         style="fill:#ececec;stroke-width:0.32"
         d="m 237.43097,78.097533 -0.6096,-0.72 0.72,0.609597 c 0.67663,0.57287 0.86568,0.830403 0.6096,0.830403 -0.0607,0 -0.38472,-0.324 -0.72,-0.72 z"
         id="path1079" />
      <path
         style="fill:#ebebeb;stroke-width:0.32"
         d="m 238.54056,79.217533 c -0.39804,-0.507539 -0.38672,-0.518857 0.12081,-0.120819 0.53304,0.418038 0.70256,0.680819 0.43919,0.680819 -0.0665,0 -0.31845,-0.252 -0.56,-0.56 z"
         id="path1077" />
      <path
         style="fill:#eaeaea;stroke-width:0.32"
         d="m 332.45498,188.73753 c 0,-1.584 0.0531,-2.27235 0.12022,-1.52966 0.0671,0.74269 0.0679,2.03869 0.003,2.88 -0.0661,0.84131 -0.12106,0.23366 -0.12202,-1.35034 z m -82.91291,-49.28 c 0.004,-0.704 0.0691,-0.95432 0.14563,-0.55627 0.0765,0.39805 0.0736,0.97405 -0.006,1.28 -0.0801,0.30595 -0.14272,-0.0197 -0.13916,-0.72373 z"
         id="path1075" />
      <path
         style="fill:#e6e6e6;stroke-width:0.32"
         d="m 245.86511,141.95121 c 0.39805,-0.0765 0.97405,-0.0736 1.28,0.006 0.30594,0.0801 -0.0197,0.14272 -0.72374,0.13917 -0.704,-0.004 -0.95432,-0.0691 -0.55626,-0.14563 z M 351.30138,56.828334 c 0.484,-0.07332 1.276,-0.07332 1.76,0 0.484,0.07332 0.088,0.133309 -0.88,0.133309 -0.968,0 -1.364,-0.05999 -0.88,-0.133309 z m -4.62,-1.589395 c 0.231,-0.09244 0.507,-0.08107 0.61334,0.02525 0.10634,0.106333 -0.0827,0.181965 -0.42,0.16807 -0.3728,-0.01536 -0.44861,-0.09118 -0.19334,-0.193331 z"
         id="path1073" />
      <path
         style="fill:#dfdfdf;stroke-width:0.32"
         d="m 280.26207,101.37753 c 0.004,-0.704 0.0691,-0.95432 0.14563,-0.55627 0.0765,0.39805 0.0736,0.97405 -0.006,1.28 -0.0801,0.30595 -0.14272,-0.0197 -0.13916,-0.72373 z m 1.88357,-22.986662 c -0.26461,-0.318839 -0.24756,-0.426669 0.0675,-0.426669 0.23187,0 0.42159,0.192 0.42159,0.426669 0,0.234665 -0.0304,0.426665 -0.0675,0.426665 -0.0371,0 -0.22683,-0.192 -0.42158,-0.426665 z m 82.90998,-2.773335 c 0,-0.616 0.0659,-0.868 0.14633,-0.56 0.0805,0.308 0.0805,0.812 0,1.12 -0.0805,0.308 -0.14633,0.056 -0.14633,-0.56 z m -84.50372,-2.24 c 0,-0.44 0.0726,-0.62 0.1614,-0.4 0.0888,0.22 0.0888,0.58 0,0.8 -0.0888,0.22 -0.1614,0.04 -0.1614,-0.4 z m 36.77474,-3.066665 c 0.0154,-0.372784 0.0912,-0.448608 0.19333,-0.193334 0.0924,0.230998 0.0811,0.506998 -0.0253,0.613334 -0.10633,0.106333 -0.18196,-0.08267 -0.16807,-0.42 z"
         id="path1071" />
      <path
         style="fill:#dddddd;stroke-width:0.32"
         d="m 139.62137,172.0456 c 0.22,-0.0888 0.58,-0.0888 0.8,0 0.22,0.0888 0.04,0.1614 -0.4,0.1614 -0.44,0 -0.62,-0.0726 -0.4,-0.1614 z m 24.64,-2.2539 c 0.396,-0.0763 1.044,-0.0763 1.44,0 0.396,0.0763 0.072,0.13867 -0.72,0.13867 -0.792,0 -1.116,-0.0624 -0.72,-0.13867 z m -5.12,-1.28 c 0.396,-0.0763 1.044,-0.0763 1.44,0 0.396,0.0763 0.072,0.13867 -0.72,0.13867 -0.792,0 -1.116,-0.0624 -0.72,-0.13867 z M 361.37424,61.62658 c 0.56807,-0.07069 1.57607,-0.07185 2.24,-0.0026 0.66394,0.06927 0.19914,0.127111 -1.03286,0.128532 -1.232,0.0013 -1.7752,-0.05526 -1.20714,-0.125949 z m -39.02442,-3.523766 c 0.75268,-0.0676 1.90468,-0.06665 2.56,0.0022 0.65536,0.06876 0.0396,0.124067 -1.36844,0.122906 -1.408,-0.0013 -1.9442,-0.05742 -1.19156,-0.125021 z m 23.6753,-0.311603 c 0.39805,-0.07654 0.97405,-0.07363 1.28,0.0065 0.30592,0.08009 -0.0198,0.14272 -0.72374,0.139168 -0.704,-0.0036 -0.95434,-0.06909 -0.55626,-0.145626 z"
         id="path1069" />
      <path
         style="fill:#d0d7d8;stroke-width:0.32"
         d="m 317.69562,150.81753 c 0,-0.616 0.0658,-0.868 0.14634,-0.56 0.0805,0.308 0.0805,0.812 0,1.12 -0.0805,0.308 -0.14634,0.056 -0.14634,-0.56 z"
         id="path1067" />
      <path
         style="fill:#d4d4d4;stroke-width:0.32"
         d="m 141.22137,172.0456 c 0.22,-0.0888 0.58,-0.0888 0.8,0 0.22,0.0888 0.04,0.1614 -0.4,0.1614 -0.44,0 -0.62,-0.0726 -0.4,-0.1614 z M 104.7451,158.27121 c 0.39805,-0.0765 0.97405,-0.0736 1.28,0.006 0.30595,0.0801 -0.0197,0.14272 -0.72373,0.13917 -0.704,-0.004 -0.95432,-0.0691 -0.55627,-0.14563 z"
         id="path1065" />
      <path
         style="fill:#cecece;stroke-width:0.32"
         d="m 115.79726,172.57753 c 0,-0.968 0.06,-1.364 0.13331,-0.88 0.0733,0.484 0.0733,1.276 0,1.76 -0.0733,0.484 -0.13331,0.088 -0.13331,-0.88 z"
         id="path1063" />
      <path
         style="fill:#cacaca;stroke-width:0.32"
         d="m 31.307459,172.67577 c 0.31135,-0.0811 0.74335,-0.0758 0.96,0.0119 0.216649,0.0877 -0.03809,0.15404 -0.56609,0.14752 -0.528,-0.007 -0.705259,-0.0782 -0.39391,-0.15937 z m 111.213911,-0.63684 c 0.231,-0.0924 0.507,-0.0811 0.61334,0.0252 0.10633,0.10633 -0.0827,0.18197 -0.42,0.16807 -0.37279,-0.0154 -0.44861,-0.0912 -0.19334,-0.19333 z"
         id="path1061" />
      <path
         style="fill:#c0c0c0;stroke-width:0.32"
         d="m 29.061369,172.67694 c 0.308,-0.0805 0.812,-0.0805 1.12,0 0.308,0.0805 0.056,0.14635 -0.56,0.14635 -0.616,0 -0.868,-0.0659 -0.56,-0.14635 z M 176.58577,168.8279 c 0.48642,-0.0736 1.20642,-0.0716 1.6,0.004 0.39358,0.076 -0.004,0.13613 -0.8844,0.13373 -0.88,-0.003 -1.20202,-0.0645 -0.7156,-0.1381 z m 14.5556,-0.64468 c 0.748,-0.0674 1.972,-0.0674 2.72,0 0.748,0.0674 0.136,0.1225 -1.36,0.1225 -1.496,0 -2.108,-0.0551 -1.36,-0.1225 z M 329.86138,89.461056 c 1.012,-0.0635 2.668,-0.0635 3.68,0 1.012,0.0635 0.184,0.115462 -1.84,0.115462 -2.024,0 -2.852,-0.05196 -1.84,-0.115462 z m 6.08438,-30.393148 c 0.48643,-0.07356 1.20643,-0.07159 1.6,0.0044 0.3936,0.07596 -0.004,0.136135 -0.88438,0.133735 -0.88,-0.0026 -1.20202,-0.06455 -0.71562,-0.138103 z"
         id="path1059" />
      <path
         style="fill:#bababa;stroke-width:0.32"
         d="m 199.02108,91.137533 c 6.4e-4,-1.936 0.0534,-2.686743 0.11712,-1.668317 0.0637,1.018425 0.0631,2.602425 -0.001,3.52 -0.0644,0.917574 -0.11654,0.08432 -0.11581,-1.851683 z m 1.6,0 c 6.4e-4,-1.936 0.0534,-2.686743 0.11712,-1.668317 0.0637,1.018425 0.0631,2.602425 -0.001,3.52 -0.0644,0.917574 -0.11654,0.08432 -0.11581,-1.851683 z m 100.3603,-18.72 c 0,-0.352 0.144,-0.64 0.32,-0.64 0.176,0 0.32,0.288 0.32,0.64 0,0.352 -0.144,0.64 -0.32,0.64 -0.176,0 -0.32,-0.288 -0.32,-0.64 z"
         id="path1057" />
      <path
         style="fill:#acbec0;stroke-width:0.32"
         d="m 302.89506,176.17753 -3.03368,-3.12 3.12,3.03368 c 2.89782,2.81765 3.26556,3.20632 3.03368,3.20632 -0.0475,0 -1.45148,-1.404 -3.12,-3.12 z m -221.613821,-22.88 -0.939869,-1.04 1.04,0.93987 c 0.969428,0.87609 1.187088,1.14013 0.939869,1.14013 -0.05507,0 -0.523072,-0.468 -1.04,-1.04 z"
         id="path1055" />
      <path
         style="fill:#b5b5b5;stroke-width:0.32"
         d="m 29.387459,171.07577 c 0.31135,-0.0811 0.74335,-0.0758 0.96,0.0119 0.216651,0.0877 -0.03809,0.15404 -0.56609,0.14752 -0.528,-0.007 -0.705259,-0.0782 -0.39391,-0.15937 z M 176.58577,169.1479 c 0.48642,-0.0735 1.20642,-0.0716 1.6,0.004 0.39358,0.0759 -0.004,0.13613 -0.8844,0.13373 -0.88,-0.003 -1.20202,-0.0645 -0.7156,-0.1381 z m 14.56406,-0.64509 c 0.75265,-0.0676 1.90465,-0.0667 2.56,0.002 0.65535,0.0688 0.0395,0.12407 -1.36846,0.1229 -1.408,-0.001 -1.94419,-0.0574 -1.19154,-0.12502 z M 329.86138,90.101056 c 1.012,-0.0635 2.668,-0.0635 3.68,0 1.012,0.0635 0.184,0.115462 -1.84,0.115462 -2.024,0 -2.852,-0.05196 -1.84,-0.115462 z m 6.08438,-30.713148 c 0.48643,-0.07356 1.20643,-0.07159 1.6,0.0044 0.3936,0.07596 -0.004,0.136135 -0.88438,0.133735 -0.88,-0.0026 -1.20202,-0.06455 -0.71562,-0.138103 z"
         id="path1053" />
      <path
         style="fill:#b4b4b4;stroke-width:0.32"
         d="m 132.96415,177.45753 -1.10278,-1.2 1.2,1.10277 c 0.66,0.60653 1.2,1.14653 1.2,1.2 0,0.24436 -0.27079,0.0142 -1.29722,-1.10277 z m 0.96,-1.28 -1.10278,-1.2 1.2,1.10277 c 0.66,0.60653 1.2,1.14653 1.2,1.2 0,0.24436 -0.27079,0.0142 -1.29722,-1.10277 z"
         id="path1051" />
      <path
         style="fill:#b1b1b1;stroke-width:0.32"
         d="m 317.27716,164.01753 -0.77578,-0.88 0.88,0.77578 c 0.82249,0.72508 1.02675,0.98422 0.77578,0.98422 -0.0573,0 -0.45332,-0.396 -0.88,-0.88 z"
         id="path1049" />
      <path
         style="fill:#90a6c5;stroke-width:0.32"
         d="m 235.98055,79.217533 c -0.39803,-0.507539 -0.38672,-0.518857 0.12082,-0.120819 0.53304,0.418038 0.70256,0.680819 0.43919,0.680819 -0.0665,0 -0.31845,-0.252 -0.56001,-0.56 z"
         id="path1047" />
      <path
         style="fill:#a9a9a9;stroke-width:0.32"
         d="m 31.307459,171.07577 c 0.31135,-0.0811 0.74335,-0.0758 0.96,0.0119 0.216649,0.0877 -0.03809,0.15404 -0.56609,0.14752 -0.528,-0.007 -0.705259,-0.0782 -0.39391,-0.15937 z"
         id="path1045" />
      <path
         style="fill:#a4a4a4;stroke-width:0.32"
         d="m 114.19726,172.57753 c 0,-0.968 0.06,-1.364 0.13331,-0.88 0.0733,0.484 0.0733,1.276 0,1.76 -0.0733,0.484 -0.13331,0.088 -0.13331,-0.88 z"
         id="path1043" />
      <path
         style="fill:#9b9b9b;stroke-width:0.32"
         d="m 104.7451,158.59121 c 0.39805,-0.0765 0.97405,-0.0736 1.28,0.006 0.30595,0.0801 -0.0197,0.14272 -0.72373,0.13917 -0.704,-0.004 -0.95432,-0.0691 -0.55627,-0.14563 z"
         id="path1041" />
      <path
         style="fill:#888cba;stroke-width:0.32"
         d="m 141.24137,171.07893 c 0.231,-0.0924 0.507,-0.0811 0.61334,0.0252 0.10633,0.10633 -0.0827,0.18197 -0.42,0.16807 -0.37279,-0.0154 -0.44861,-0.0912 -0.19334,-0.19333 z"
         id="path1039" />
      <path
         style="fill:#8c8c8c;stroke-width:0.32"
         d="m 139.62137,171.0856 c 0.22,-0.0888 0.58,-0.0888 0.8,0 0.22,0.0888 0.04,0.1614 -0.4,0.1614 -0.44,0 -0.62,-0.0726 -0.4,-0.1614 z m 24.64,-1.6139 c 0.396,-0.0763 1.044,-0.0763 1.44,0 0.396,0.0763 0.072,0.13867 -0.72,0.13867 -0.792,0 -1.116,-0.0624 -0.72,-0.13867 z m -5.12,-0.64 c 0.396,-0.0763 1.044,-0.0763 1.44,0 0.396,0.0763 0.072,0.13867 -0.72,0.13867 -0.792,0 -1.116,-0.0624 -0.72,-0.13867 z M 361.37424,61.94658 c 0.56807,-0.07069 1.57607,-0.07185 2.24,-0.0026 0.66394,0.06927 0.19914,0.127111 -1.03286,0.128532 -1.232,0.0013 -1.7752,-0.05526 -1.20714,-0.125949 z m -15.34912,-3.835369 c 0.39805,-0.07654 0.97405,-0.07363 1.28,0.0065 0.30592,0.08009 -0.0198,0.14272 -0.72374,0.139168 -0.704,-0.0036 -0.95434,-0.06909 -0.55626,-0.145626 z m -23.6753,-0.328397 c 0.75268,-0.0676 1.90468,-0.06665 2.56,0.0022 0.65536,0.06876 0.0396,0.124067 -1.36844,0.122906 -1.408,-0.0013 -1.9442,-0.05742 -1.19156,-0.125021 z"
         id="path1037" />
      <path
         style="fill:#888888;stroke-width:0.32"
         d="m 279.94207,101.37753 c 0.004,-0.704 0.0691,-0.95432 0.14563,-0.55627 0.0765,0.39805 0.0736,0.97405 -0.006,1.28 -0.0801,0.30595 -0.14272,-0.0197 -0.13916,-0.72373 z m 84.79355,-25.759997 c 0,-0.616 0.0659,-0.868 0.14633,-0.56 0.0805,0.308 0.0805,0.812 0,1.12 -0.0805,0.308 -0.14633,0.056 -0.14633,-0.56 z m -84.52898,-2.426665 c 0.0154,-0.372784 0.0912,-0.448608 0.19333,-0.193335 0.0924,0.230999 0.0811,0.506999 -0.0252,0.613335 -0.10633,0.106333 -0.18196,-0.08267 -0.16807,-0.42 z m 36.8,-2.88 c 0.0154,-0.372784 0.0912,-0.448608 0.19333,-0.193334 0.0924,0.230998 0.0811,0.506998 -0.0253,0.613334 -0.10633,0.106333 -0.18196,-0.08267 -0.16807,-0.42 z"
         id="path1035" />
      <path
         style="fill:#7d7d7d;stroke-width:0.32"
         d="m 316.95716,164.01753 -0.77578,-0.88 0.88,0.77578 c 0.82249,0.72508 1.02675,0.98422 0.77578,0.98422 -0.0573,0 -0.45332,-0.396 -0.88,-0.88 z"
         id="path1033" />
      <path
         style="fill:#7b7b7b;stroke-width:0.32"
         d="m 245.86511,141.63121 c 0.39805,-0.0765 0.97405,-0.0736 1.28,0.006 0.30594,0.0801 -0.0197,0.14272 -0.72374,0.13917 -0.704,-0.004 -0.95432,-0.0691 -0.55626,-0.14563 z M 346.68138,56.838939 c 0.231,-0.09244 0.507,-0.08107 0.61334,0.02525 0.10634,0.106333 -0.0827,0.181965 -0.42,0.16807 -0.3728,-0.01536 -0.44861,-0.09118 -0.19334,-0.193331 z m 4.62,-1.610605 c 0.484,-0.07332 1.276,-0.07332 1.76,0 0.484,0.07332 0.088,0.133309 -0.88,0.133309 -0.968,0 -1.364,-0.05999 -0.88,-0.133309 z"
         id="path1031" />
      <path
         style="fill:#717171;stroke-width:0.32"
         d="m 330.85318,188.57753 c 0,-1.496 0.0551,-2.108 0.1225,-1.36 0.0674,0.748 0.0674,1.972 0,2.72 -0.0674,0.748 -0.1225,0.136 -0.1225,-1.36 z m -13.47111,-37.92 c 0.004,-0.704 0.0691,-0.95432 0.14563,-0.55627 0.0765,0.39805 0.0736,0.97405 -0.006,1.28 -0.0801,0.30595 -0.14272,-0.0197 -0.13917,-0.72373 z m -68.16,-11.2 c 0.004,-0.704 0.0691,-0.95432 0.14563,-0.55627 0.0765,0.39805 0.0736,0.97405 -0.006,1.28 -0.0801,0.30595 -0.14272,-0.0197 -0.13916,-0.72373 z"
         id="path1029" />
      <path
         style="fill:#656565;stroke-width:0.32"
         d="m 88.761371,168.19893 c 0.230998,-0.0924 0.507001,-0.0811 0.613334,0.0252 0.106333,0.10633 -0.08267,0.18197 -0.42,0.16807 -0.372784,-0.0154 -0.448608,-0.0912 -0.193334,-0.19333 z"
         id="path1027" />
      <path
         style="fill:#5b5b5b;stroke-width:0.32"
         d="m 301.7747,177.29753 -2.87332,-2.96 2.96,2.87333 c 1.628,1.58033 2.96,2.91233 2.96,2.96 0,0.23233 -0.37799,-0.12415 -3.04668,-2.87333 z m 1.12036,-0.8 -3.03368,-3.12 3.12,3.03368 c 2.89782,2.81765 3.26556,3.20632 3.03368,3.20632 -0.0475,0 -1.45148,-1.404 -3.12,-3.12 z m -222.573821,-21.92 -0.939869,-1.04 1.04,0.93987 c 0.572,0.51693 1.04,0.98493 1.04,1.04 0,0.24722 -0.264041,0.0296 -1.140131,-0.93987 z m 0.795911,-1.12 -0.77578,-0.88 0.88,0.77578 c 0.822493,0.72508 1.026749,0.98422 0.77578,0.98422 -0.05732,0 -0.453319,-0.396 -0.88,-0.88 z"
         id="path1025" />
      <path
         style="fill:#46585a;stroke-width:0.32"
         d="m 365.30138,72.857297 c 0,-0.96072 0.91485,-2.593312 1.54563,-2.758266 1.20102,-0.314077 1.40224,0.779101 0.38208,2.076006 -0.74938,0.952708 -1.92771,1.369738 -1.92771,0.68226 z m -47.79217,-2.759763 c -0.10954,-0.748 -0.28429,-1.662535 -0.38835,-2.032295 -0.11743,-0.417337 0.0196,-0.881091 0.36138,-1.222857 0.69585,-0.695843 1.04816,-0.353015 2.00853,1.954473 0.98798,2.373805 0.9291,2.660679 -0.5459,2.660679 -1.21013,0 -1.24075,-0.02899 -1.43566,-1.36 z"
         id="path1023" />
      <path
         style="fill:#001eb9;stroke-width:0.32"
         d="m 158.77825,209.13263 c 0.19628,-0.12931 1.83533,-2.3231 3.64234,-4.8751 6.15555,-8.69337 8.95485,-12.06274 16.31737,-19.6404 7.41869,-7.63548 21.43632,-19.16593 32.96341,-27.11465 3.17992,-2.19276 11.12417,-6.54745 11.41463,-6.25699 0.33477,0.33477 -1.03747,1.80043 -1.99045,2.12597 -0.53671,0.18334 -1.77658,0.83421 -2.75526,1.44639 -1.41552,0.8854 -1.89057,1.40406 -2.32289,2.53606 -0.59407,1.55557 -0.40863,2.23005 1.09736,3.9913 0.60502,0.70756 0.75254,0.73889 1.88365,0.4 2.41873,-0.72467 3.10078,-0.52915 4.90086,1.40491 0.90738,0.97494 2.47201,2.21084 3.47695,2.74647 1.76957,0.94317 1.82352,1.01085 1.71183,2.1474 -0.0634,0.64545 -0.17961,2.27072 -0.25816,3.61172 -0.16769,2.86239 -1.10247,5.08182 -2.14037,5.08182 -0.35686,0 -0.97802,-0.38269 -1.38035,-0.85043 l -0.7315,-0.85042 -3.81315,0.94766 c -2.09723,0.52122 -3.78563,1.08391 -3.75199,1.25043 0.0625,0.3096 3.85017,1.21978 6.57801,1.58071 1.00663,0.1332 1.62617,0.40094 1.83631,0.7936 0.30217,0.56461 0.0944,0.59192 -4.39917,0.57833 -4.58144,-0.0139 -4.82612,0.0203 -8.55631,1.1925 -6.14829,1.93218 -13.0938,4.81616 -17.92,7.44091 -10.27206,5.58651 -18.05799,10.17281 -22.3815,13.18382 -4.42001,3.07823 -12.15286,7.37817 -13.2503,7.36799 -0.3362,-0.003 -0.39848,-0.0904 -0.17132,-0.24 z m 165.4685,-11.43956 c -2.30041,-1.89751 -10.68975,-10.38434 -18.16456,-18.37567 -6.6812,-7.1429 -13.0683,-12.02743 -17.39954,-13.30629 l -1.27702,-0.37706 1.69167,-0.56188 c 0.93041,-0.30903 3.89733,-1.61606 6.59314,-2.90451 l 4.90149,-2.34263 2.03472,0.42622 c 1.1191,0.23442 3.8082,0.6586 5.97578,0.94261 5.28507,0.69249 7.28562,1.59476 9.68925,4.36994 2.62112,3.02629 3.83709,5.55232 5.37872,11.17373 1.99226,7.26443 2.09085,7.56682 3.52781,10.82041 0.72397,1.63923 1.61504,4.06923 1.98013,5.40001 0.58233,2.12263 0.61484,2.60124 0.26476,3.89958 -0.86076,3.19249 -2.09776,3.39139 -5.19635,0.83554 z m -207.39128,-22.50122 -0.9259,-0.10569 0.25483,-3.89431 c 0.14015,-2.14188 0.29778,-5.34342 0.35029,-7.11454 0.0954,-3.21833 0.0949,-3.22054 -0.78772,-3.74194 -1.87133,-1.10543 -6.11915,-1.9405 -9.9656,-1.95912 -3.15243,-0.0153 -4.08091,0.10817 -6.476559,0.86097 -2.350483,0.73861 -2.874419,1.02935 -3.284685,1.82272 -0.538493,1.04133 -3.296522,3.21243 -4.798755,3.77754 -2.041844,0.76811 -7.152039,1.60364 -8.221021,1.34415 -2.624631,-0.6371 -6.170848,-2.37948 -5.861527,-2.87998 0.08607,-0.13927 0.553859,-0.34992 1.039523,-0.46811 2.022794,-0.49227 5.104464,-2.17308 5.967661,-3.25489 1.311527,-1.64368 1.006602,-2.6984 -1.486144,-5.14044 -2.353414,-2.30554 -4.025769,-3.19695 -8.512755,-4.53753 -5.090208,-1.52079 -6.050285,-1.57791 -8.071751,-0.48021 -0.928841,0.50438 -4.506973,3.33889 -7.951395,6.2989 -7.980448,6.85811 -11.407354,9.31001 -16.182593,11.57839 -5.522307,2.62327 -8.785763,3.68083 -11.340028,3.67487 -3.386523,-0.008 -3.377704,0.0875 -0.507802,-5.49362 1.913952,-3.72207 3.259385,-5.82937 5.591459,-8.75767 6.981687,-8.76664 7.636986,-12.79696 3.380163,-20.78917 -2.777356,-5.2145 -5.770179,-13.42417 -8.805542,-24.15464 -1.665923,-5.88929 -6.180509,-19.914029 -7.39354,-22.968327 -0.580499,-1.461638 -0.92471,-2.916617 -0.92471,-3.908742 0,-1.647808 -0.48087,-2.241126 -1.818963,-2.24431 -0.434675,-9.6e-4 -0.822859,-0.657085 -1.541037,-2.604439 -0.601531,-1.631059 -1.232581,-2.781881 -1.689987,-3.081961 -1.00922,-0.662103 -0.630032,-0.886202 0.639726,-0.378074 3.109454,1.244327 12.010749,11.069843 21.584716,23.825853 5.431712,7.23702 10.175693,12.95176 20.72481,24.9657 2.475405,2.81913 5.566138,6.45222 6.868291,8.07353 1.302157,1.62131 2.598157,3.01416 2.88,3.09522 0.281847,0.0811 4.146685,0.2474 8.588538,0.36963 l 8.076093,0.22225 3.603907,-3.37438 c 3.528586,-3.30387 3.63066,-3.43909 4.883908,-6.47023 1.5376,-3.71888 1.964861,-4.0141 4.64,-3.20599 0.967999,0.29241 3.507879,1.52818 5.644179,2.74614 2.1363,1.21797 5.1603,2.80656 6.72,3.5302 l 2.83582,1.31571 3.52,-0.18071 c 6.74506,-0.34626 20.05621,-2.34517 25.12,-3.77223 15.19923,-4.28337 25.69285,-7.70784 37.21589,-12.14496 l 5.69588,-2.19329 4.15436,-3.92829 c 5.54792,-5.24603 7.93834,-8.2962 9.36493,-11.949619 l 1.11626,-2.858679 0.16177,-7.039999 c 0.15959,-6.945283 0.17911,-7.106733 1.45112,-12 0.70915,-2.728 1.38715,-5.895999 1.50667,-7.039999 0.21998,-2.105648 0.58062,-3.167491 1.22103,-3.595101 0.61243,-0.408928 3.98005,-0.26439 6.33859,0.272048 3.05464,0.694762 8.07187,2.955091 13.6935,6.16911 5.60675,3.205507 7.82155,4.875536 13.39731,10.101971 3.56777,3.344256 4.54615,4.089174 5.89808,4.490652 2.36363,0.701924 3.00724,0.627364 8.17563,-0.947129 9.47751,-2.887219 11.99642,-4.086013 17.11427,-8.145005 4.47613,-3.550041 17.19858,-12.243631 21.07796,-14.403138 3.19231,-1.77704 5.23776,-2.616429 10.81676,-4.438867 9.08122,-2.966477 13.55973,-3.647539 24,-3.649763 l 7.2,-0.0016 5.1856,1.313376 5.1856,1.313379 6.3344,0.0013 c 6.58733,0.0013 11.02221,0.484477 13.3959,1.45936 2.10055,0.862691 4.29837,2.410896 4.80023,3.381385 0.55632,1.075795 0.55459,1.076599 -0.83172,0.385028 -0.6646,-0.331552 -2.34585,-0.617834 -4.44915,-0.757597 -1.85949,-0.123559 -4.01097,-0.459735 -4.78109,-0.747059 -0.77014,-0.287322 -1.80307,-0.522404 -2.29545,-0.522404 -0.50522,0 -1.34154,-0.375545 -1.91965,-0.862006 -1.77437,-1.493037 -7.95712,-1.989577 -11.59719,-0.931379 -2.62192,0.762214 -9.21084,0.695085 -12.64774,-0.128858 -1.6753,-0.401619 -3.76701,-0.637756 -5.64928,-0.637756 -2.93296,0 -3.04211,0.02774 -5.81974,1.479692 -3.79562,1.984071 -4.85917,2.828791 -5.53652,4.397392 -0.64537,1.494522 -1.40562,2.261443 -2.5742,2.59679 -1.23839,0.355376 -7.45276,4.036125 -8.07289,4.781539 -0.31118,0.374055 -0.55599,1.209107 -0.56,1.910173 l -0.007,1.245658 -1.84,-0.186628 c -2.27816,-0.231072 -3.12488,0.322282 -3.35847,2.194855 -0.0865,0.693331 -0.41207,2.445363 -0.7235,3.893404 -0.56233,2.614659 -0.57591,2.637488 -1.97083,3.312759 -1.42649,0.69055 -2.9872,2.373228 -2.9872,3.220643 0,0.256188 0.15525,0.621052 0.34501,0.810812 0.18976,0.18976 0.29776,0.752474 0.24,1.25048 -0.0891,0.767799 -0.3092,0.956173 -1.448,1.238983 -0.73864,0.183437 -1.74664,0.713344 -2.24,1.177571 -0.49336,0.464227 -1.25363,0.952281 -1.68949,1.084566 -1.45014,0.440119 -2.86373,1.575008 -3.05957,2.456355 -0.10571,0.475735 -0.46737,1.214787 -0.80368,1.642339 -0.95239,1.210768 -1.32425,2.410013 -1.57523,5.080156 -0.20987,2.23285 -0.34195,2.58925 -1.38909,3.74831 -0.63644,0.70446 -1.51595,1.84919 -1.95446,2.54383 -0.82853,1.31248 -0.80335,2.128 0.11894,3.85131 0.31681,0.59197 0.24154,0.90782 -0.48727,2.0446 -0.86177,1.34416 -3.94803,4.06448 -4.61124,4.06448 -0.19328,0 -0.93564,-0.29804 -1.64968,-0.66232 -0.71405,-0.36428 -1.39231,-0.56828 -1.50726,-0.45334 -0.11494,0.11495 -0.20751,1.241 -0.20571,2.50233 0.003,1.92718 0.17431,2.65929 1.07453,4.58548 l 1.07126,2.29215 -0.99301,1.4433 c -0.54617,0.79382 -1.53052,1.88635 -2.18745,2.42785 -1.14915,0.94723 -1.30993,0.98448 -4.24151,0.98277 -3.98555,-0.002 -5.22242,-0.35914 -6.08541,-1.75549 -0.78803,-1.27506 -2.46808,-2.66693 -4.40169,-3.64665 l -1.36,-0.68909 -0.002,2.16651 c -0.001,1.74086 -0.15652,2.41798 -0.79001,3.4465 -0.4336,0.704 -0.79287,1.73755 -0.79836,2.29678 -0.0108,1.10251 -1.21502,2.34322 -2.27426,2.34322 -0.31787,0 -0.67453,0.15626 -0.79256,0.34724 -0.3482,0.5634 0.82186,2.37875 1.81714,2.81931 1.24032,0.54902 1.31416,2.26138 0.13095,3.03665 -1.26883,0.83137 -2.81419,0.64043 -4.87523,-0.60238 -1.02081,-0.61555 -1.94091,-1.11955 -2.04466,-1.12 -0.10375,-3.2e-4 -0.3616,0.37879 -0.573,0.84275 l -0.38435,0.84358 -0.73577,-0.69122 c -0.72966,-0.68545 -2.39513,-1.31593 -3.47617,-1.31593 -0.88845,0 -0.74947,1.95243 0.20265,2.8469 1.02738,0.96518 1.75952,3.49868 1.12527,3.89395 -0.83854,0.5226 -3.25721,0.7162 -4.28854,0.34326 -0.9031,-0.32656 -1.32638,-0.22811 -4.02536,0.93631 -11.19615,4.83036 -16.89547,8.21554 -28.06745,16.67103 l -5.8513,4.42855 h -2.75157 c -1.51336,0 -3.30245,0.16505 -3.97575,0.36677 -0.91363,0.27373 -1.67943,0.27535 -3.01872,0.006 -1.64925,-0.33122 -1.87006,-0.30455 -2.72756,0.32943 -0.85594,0.63282 -1.06768,0.65873 -2.56282,0.31361 -2.20396,-0.50873 -4.00398,-0.47317 -6.60111,0.1304 -2.53843,0.58994 -9.29568,0.35954 -11.42009,-0.38938 -2.02139,-0.7126 -3.60231,-0.55139 -5.55633,0.56659 -1.61051,0.92144 -2.05239,1.01695 -5.38551,1.16404 -3.23175,0.14261 -3.84539,0.0801 -5.58015,-0.56868 l -1.94909,-0.72891 -0.86434,0.80511 c -0.75933,0.7073 -1.23369,0.82685 -3.90435,0.98405 -2.4588,0.14474 -3.58616,0.39547 -5.89671,1.31149 -1.57119,0.62289 -3.15519,1.1141 -3.52,1.09157 -0.36481,-0.0225 -2.10329,0.28213 -3.86329,0.67703 -3.34682,0.75095 -7.34841,1.21487 -8.9259,1.03481 z M 283.46794,79.138128 c 0.44708,-0.351673 1.04249,-1.313324 1.32315,-2.137004 1.40654,-4.127959 -0.58228,-8.281613 -3.40542,-7.112234 -1.47284,0.610071 -2.25537,2.515059 -2.10757,5.130663 0.1325,2.34495 0.77877,3.615609 2.21412,4.353263 1.00348,0.515706 1.025,0.513152 1.97572,-0.234688 z m 43.33462,94.831222 c -0.43002,-0.8535 -1.16134,-2.60901 -1.62522,-3.90114 -0.46384,-1.29212 -1.27267,-3.16412 -1.79734,-4.16 -1.33638,-2.53643 -4.00163,-8.53994 -4.63957,-10.45068 -0.2938,-0.88 -0.59958,-2.392 -0.6795,-3.36 l -0.14532,-1.76 1.95971,4 c 3.76919,7.69339 8.51946,20.37327 7.87418,21.01854 -0.0908,0.0908 -0.51692,-0.53322 -0.94694,-1.38672 z"
         id="path1021" />
      <path
         style="fill:#0c0c0c;stroke-width:0.32"
         d="m 316.47097,190.73753 -0.60959,-0.72 0.72,0.6096 c 0.67662,0.57287 0.86567,0.8304 0.60959,0.8304 -0.0607,0 -0.38472,-0.324 -0.72,-0.72 z"
         id="path1019" />
      <path
         style="fill:#000000;stroke-width:0.32"
         d="m 156.47654,211.50822 c -0.34517,-0.89951 2.14155,-4.80279 8.47103,-13.29656 3.77903,-5.07122 5.33849,-6.86889 11.7938,-13.59529 2.86,-2.98011 5.2,-5.53998 5.2,-5.68861 0,-0.14863 -1.42701,-0.27023 -3.17112,-0.27023 -3.41084,0 -15.50018,-1.91582 -20.34888,-3.22472 -4.34883,-1.17397 -4.06447,-1.20783 -5.97774,0.712 -2.25253,2.26026 -7.55768,6.89924 -8.63813,7.55345 -0.79851,0.48349 -0.94844,0.4767 -2.23678,-0.10125 -1.71843,-0.77089 -5.55689,-3.59704 -8.15164,-6.00182 -2.30192,-2.13339 -3.88024,-2.91218 -5.02207,-2.47805 -1.28392,0.48814 -7.92559,1.62064 -9.4823,1.61687 -0.79823,-0.002 -1.98611,-0.0919 -2.63972,-0.19999 -1.67578,-0.27704 -2.02293,-1.45175 -1.6835,-5.69666 0.14161,-1.77091 0.26971,-4.22327 0.28467,-5.44969 l 0.0272,-2.22987 -3.04,-0.73001 c -1.672,-0.40151 -3.904,-0.76608 -4.96,-0.81014 -2.28923,-0.0955 -3.74436,0.53089 -7.45893,3.21098 -3.434118,2.47775 -6.299626,3.3168 -11.192339,3.27725 -4.685905,-0.0379 -6.395018,-0.38571 -9.50873,-1.93516 -1.853562,-0.92237 -2.76617,-1.59306 -3.307117,-2.43044 -0.410915,-0.63608 -0.626915,-1.26523 -0.48,-1.3981 0.146912,-0.13288 1.347117,-0.56329 2.667117,-0.95647 3.737577,-1.11328 5.76,-2.36077 5.76,-3.55292 0,-0.84009 -3.128595,-3.73033 -5.183658,-4.78874 -1.948077,-1.00331 -8.143734,-2.8685 -9.51184,-2.86352 -1.432858,0.005 -3.847507,1.69907 -10.104503,7.08818 -7.840678,6.75313 -10.677766,8.77228 -15.894032,11.31175 -7.624567,3.71192 -12.123771,4.7592 -15.101282,3.51512 -1.936108,-0.80896 -1.852286,-1.41685 0.966451,-7.00888 1.981823,-3.93169 3.155418,-5.78613 5.586651,-8.82767 4.597834,-5.75202 6.380615,-9.35677 6.191585,-12.51927 -0.115578,-1.93379 -0.40898,-2.68425 -3.61338,-9.24223 -2.479885,-5.07522 -5.114895,-12.51028 -8.054028,-22.72558 -2.248214,-7.81393 -6.487394,-20.885784 -7.55911,-23.309121 -0.419565,-0.948714 -0.762846,-2.266989 -0.762846,-2.929501 0,-1.122765 -0.07588,-1.218806 -1.117421,-1.414198 -0.87901,-0.164903 -1.157219,-0.394394 -1.30395,-1.075613 -0.378224,-1.755952 -1.495972,-4.516233 -2.009569,-4.96263 -0.290983,-0.252912 -0.96106,-0.597911 -1.48906,-0.766663 -1.054993,-0.33718 -1.438168,-1.407747 -0.785382,-2.194303 0.53365,-0.643012 3.405325,-0.574957 4.685089,0.111027 3.838072,2.057296 12.006657,11.049231 21.426866,23.586584 5.346816,7.116078 11.672352,14.741218 21.104554,25.440568 2.09488,2.37631 5.013117,5.79631 6.484973,7.6 l 2.6761,3.27943 2.6039,0.0296 c 1.432144,0.0163 4.977853,0.12504 7.879348,0.2417 l 5.275446,0.21211 2.244554,-2.13679 c 1.234506,-1.17523 2.623341,-2.43291 3.086301,-2.79483 0.526649,-0.41172 1.358179,-1.88845 2.221338,-3.94492 0.758774,-1.80777 1.500342,-3.45086 1.647929,-3.65131 0.147587,-0.20045 0.893991,-0.52199 1.658672,-0.71454 1.201053,-0.30243 1.689847,-0.24795 3.590323,0.40018 1.20999,0.41264 3.35199,1.43379 4.75999,2.2692 1.408,0.83542 4.14261,2.3139 6.0769,3.28551 l 3.51691,1.76658 3.52309,-0.17514 c 1.93771,-0.0963 7.3391,-0.68684 12.0031,-1.31226 7.80253,-1.04629 9.09356,-1.31433 16.16,-3.35507 15.31718,-4.42351 22.9591,-6.9487 34.3537,-11.35178 4.95597,-1.91509 4.33674,-1.48079 10.66566,-7.48041 3.42927,-3.25084 5.86953,-6.53178 6.92544,-9.31129 0.8969,-2.360944 0.94082,-2.730467 1.12879,-9.496531 0.1901,-6.842595 0.2311,-7.179081 1.46225,-11.999999 0.69667,-2.728 1.41567,-6.06167 1.59777,-7.408154 0.5761,-4.259747 1.36874,-5.080009 4.8905,-5.060918 5.04472,0.02736 11.0818,2.479341 21.99372,8.93287 2.78392,1.646471 5.3516,3.734618 9.53232,7.752099 2.15058,2.066611 4.35432,3.987168 4.8972,4.267904 2.02156,1.045386 3.67053,0.95848 8.31265,-0.438099 8.94663,-2.691591 11.88427,-4.051565 16.27161,-7.532921 4.8561,-3.853316 17.51518,-12.522314 21.56745,-14.769497 4.20418,-2.331418 9.35752,-4.325354 16.88095,-6.531587 4.98667,-1.462336 15.68025,-2.339991 23.2,-1.90409 3.55094,0.205837 5.35881,0.495347 8.71779,1.396042 4.17209,1.118739 4.33577,1.136451 10.56,1.142787 9.25603,0.0094 12.46051,0.561494 16.43942,2.832208 3.38794,1.933459 4.06439,3.0415 5.07914,8.319846 1.10592,5.75247 1.28054,8.140716 0.74515,10.190998 -0.25305,0.969062 -1.90713,4.949859 -3.67571,8.84622 -1.76858,3.896362 -4.19616,9.604291 -5.39469,12.684291 -2.84089,7.300791 -5.38153,13.241271 -6.43232,15.040001 -0.46269,0.792 -1.42829,2.61209 -2.14579,4.04465 -1.83411,3.66189 -5.71447,9.50559 -7.90211,11.90038 -1.01744,1.11376 -3.15962,2.9014 -4.76039,3.97252 -7.53257,5.04026 -20.28451,14.04719 -21.09881,14.90251 l -0.90832,0.95407 2.2984,4.91294 c 4.87884,10.42877 7.17187,16.93147 9.77564,27.72238 1.24378,5.15452 1.39024,7.92555 0.61578,11.64962 -0.69645,3.34889 -1.41526,5.38764 -2.32035,6.58092 -0.67392,0.88857 -0.98829,1.04 -2.15882,1.04 -1.20854,0 -1.66617,-0.24114 -3.88201,-2.0456 -2.58276,-2.10321 -8.22208,-7.76121 -18.032,-18.09169 -8.10296,-8.53294 -13.4305,-12.54327 -18.34441,-13.80885 -2.12201,-0.54652 -2.23626,-0.54459 -4,0.0675 -1.67927,0.58273 -30.75278,8.86951 -35.0956,10.00325 -2.3604,0.6162 -8.75032,1.42627 -13.36,1.69368 -1.892,0.10975 -3.44,0.3225 -3.44,0.47277 0,0.15028 0.36,0.58624 0.8,0.96882 0.44,0.38258 0.8,1.01199 0.8,1.3987 0,1.32415 -0.60985,1.44197 -3.85632,0.74506 -2.22287,-0.47719 -4.29493,-0.65646 -7.82368,-0.67688 -4.71501,-0.0273 -4.86799,-0.006 -8.64,1.1952 -6.74401,2.14788 -12.96136,4.80866 -18.88,8.07989 -11.81868,6.5322 -15.80728,8.89617 -20.64,12.23296 -5.03173,3.4742 -8.56892,5.4582 -13.38835,7.50951 -3.06561,1.30482 -2.90115,1.26754 -3.11648,0.70642 z m 7.06483,-3.90244 c 2.40693,-1.18726 6.10806,-3.41579 8.7827,-5.28827 4.13833,-2.8972 11.64338,-7.32247 22.8973,-13.50115 4.18808,-2.29937 11.25137,-5.21394 17.28,-7.13037 3.76678,-1.19741 3.93153,-1.22022 8.64,-1.19593 3.19393,0.0165 5.52938,0.19585 6.97986,0.53611 1.19892,0.28125 2.40924,0.51136 2.6896,0.51136 0.4654,0 0.46561,-0.0488 0.003,-0.56059 -0.27903,-0.30832 -0.65748,-0.95553 -0.84101,-1.43825 -0.50757,-1.33499 0.42374,-1.72981 4.60914,-1.95396 4.58918,-0.24579 11.01929,-1.05074 13.44,-1.68249 3.74698,-0.97788 31.40562,-8.80759 34.24,-9.69279 1.584,-0.49469 4.176,-1.2978 5.76,-1.78469 4.0636,-1.24905 16.95516,-7.67879 20.32,-10.13472 1.496,-1.0919 4.448,-2.98364 6.56,-4.20387 2.112,-1.22023 4.344,-2.68897 4.96,-3.26386 1.07814,-1.00619 12.0641,-8.7272 19.36,-13.60632 5.77901,-3.86471 9.1591,-8.02335 14.17383,-17.43846 2.55276,-4.79279 4.528,-9.28526 8.23078,-18.719998 1.27786,-3.255999 3.63786,-8.788006 5.24445,-12.293349 1.60659,-3.505341 3.12608,-7.177341 3.37667,-8.16 0.50925,-1.997126 0.34074,-4.212314 -0.7457,-9.80135 -0.81542,-4.194822 -1.61459,-5.801152 -3.50748,-7.050073 -3.45456,-2.279303 -5.86708,-2.730762 -16.05255,-3.003936 -7.86406,-0.210915 -8.29347,-0.255994 -11.84,-1.242976 -6.09872,-1.697245 -16.10861,-1.895719 -25.77859,-0.511139 -5.79861,0.830262 -16.37497,4.340428 -21.42141,7.10951 -3.79323,2.081414 -16.0031,10.396178 -21.28,14.491391 -5.56492,4.318739 -8.40071,5.628605 -19.04,8.794685 -5.1039,1.518835 -6.61593,0.980348 -12.14666,-4.325866 -5.09935,-4.892345 -7.18936,-6.496115 -12.25651,-9.405008 -7.12043,-4.087622 -11.07569,-5.878982 -14.89669,-6.746802 -2.27371,-0.5164 -5.88411,-0.655498 -6.49377,-0.250186 -0.47211,0.313872 -0.9854,2.07823 -1.23208,4.235101 -0.11071,0.968 -0.77464,3.976595 -1.47541,6.685763 -1.24807,4.825007 -1.27786,5.07047 -1.45667,11.999999 -0.17951,6.957046 -0.19926,7.118224 -1.19237,9.729612 -1.3407,3.525362 -4.2716,7.227092 -9.59823,12.122542 l -4.10838,3.77583 -5.1651,2.00441 c -11.21643,4.35274 -18.65129,6.80639 -34.29058,11.31654 -7.31297,2.10896 -8.12795,2.27243 -17.39426,3.48897 -5.34714,0.70198 -10.78633,1.27633 -12.08723,1.27633 -2.26649,0 -2.53572,-0.0852 -6.44575,-2.04054 -2.24425,-1.12229 -5.0841,-2.63308 -6.31078,-3.35731 -2.9421,-1.73701 -5.782572,-2.67819 -7.049679,-2.33591 -1.031549,0.27866 -1.154791,0.46604 -2.899306,4.40821 -1.052406,2.37817 -1.442032,2.86694 -4.673875,5.86315 -3.375136,3.12905 -3.575767,3.26147 -4.696291,3.09954 -0.643789,-0.093 -4.28273,-0.26272 -8.086532,-0.37707 -3.803798,-0.11435 -7.04737,-0.30065 -7.207933,-0.41399 -0.160563,-0.11334 -1.579149,-1.79008 -3.152413,-3.72608 -1.573264,-1.936 -4.458329,-5.32 -6.411254,-7.52 C 51.333315,115.29912 44.388128,106.92641 39.016653,99.777532 31.949507,90.371904 25.742529,83.04777 21.84198,79.511706 c -3.010673,-2.729344 -4.384066,-3.574173 -5.810333,-3.574173 -1.000643,0 -1.047394,0.383063 -0.09814,0.804119 0.988474,0.438454 1.973468,2.014761 2.685006,4.296876 0.493493,1.582778 0.728721,1.934029 1.296683,1.936269 1.433002,0.0057 1.706172,0.317642 1.706172,1.948643 0,0.966787 0.35069,2.440435 0.92471,3.885763 1.256527,3.163814 5.720587,17.063617 7.684821,23.928327 2.654204,9.27606 5.350837,16.80655 7.849442,21.92 2.766941,5.6626 2.678058,5.42849 3.210378,8.45583 0.376774,2.14274 0.360483,2.54231 -0.166042,4.07269 -0.933043,2.71193 -2.719235,5.6292 -5.857974,9.56742 -2.221988,2.78796 -3.537692,4.87075 -5.472228,8.66264 -2.434357,4.7716 -2.520026,5.01183 -1.938839,5.4368 1.064927,0.77869 4.510747,0.55936 7.545703,-0.48031 4.393197,-1.50495 10.532026,-4.59439 13.763306,-6.92657 1.659197,-1.19752 5.538189,-4.36043 8.619978,-7.02868 6.256621,-5.41706 8.648778,-7.13815 10.292013,-7.40481 1.316122,-0.21358 6.37186,1.07995 9.639309,2.46626 2.823616,1.19799 6.527591,4.45553 6.822176,5.9999 0.168669,0.88425 0.0491,1.22268 -0.717168,2.02984 -1.03934,1.09482 -3.004931,2.16035 -5.479584,2.97046 -0.924,0.30248 -1.68,0.67259 -1.68,0.82246 0,0.46074 1.831671,1.60758 3.926212,2.45825 1.687107,0.68519 2.666953,0.83502 6.370141,0.97405 6.184473,0.23218 7.782029,-0.19921 12.671801,-3.42183 2.063517,-1.35997 4.327847,-2.63417 5.031847,-2.83155 1.46668,-0.41121 3.67805,-0.14946 8.48,1.00374 l 3.04,0.73007 -0.0341,2.54167 c -0.0188,1.39792 -0.147,4.28467 -0.28493,6.41501 -0.20002,3.08911 -0.1645,3.92668 0.17541,4.13676 0.77851,0.48114 4.57121,0.18942 8.78366,-0.67562 2.288,-0.46984 4.448,-0.84093 4.8,-0.82464 0.352,0.0163 2.008,-0.50575 3.68,-1.16011 l 3.04,-1.18973 4.8,0.033 c 4.22288,0.0291 5.18475,0.14089 8,0.9301 1.76,0.49339 3.992,0.92448 4.96,0.95798 0.968,0.0335 3.2,0.43941 4.96,0.90203 5.4507,1.43273 16.19344,3.09686 19.99172,3.09686 1.85488,0 3.80765,0.1248 4.3395,0.27733 0.81084,0.23254 1.12586,0.14212 1.95088,-0.56 15.47854,-13.17274 25.14015,-20.40173 32.47949,-24.30173 4.32665,-2.29911 14.38917,-6.85151 14.62443,-6.61626 0.26381,0.26382 0.0726,0.36325 -5.23979,2.72436 -7.0393,3.12867 -12.21685,5.90218 -16.16312,8.65827 -11.87856,8.29604 -25.28035,19.41864 -32.99476,27.38348 -7.36867,7.60787 -10.49446,11.34531 -15.39771,18.41071 -1.18177,1.70289 -2.36512,3.3126 -2.62966,3.57714 -0.26454,0.26454 -0.48098,0.6093 -0.48098,0.76613 0,0.15684 -0.36,0.59817 -0.8,0.98074 -1.00332,0.87238 -1.04248,1.4508 -0.08,1.18151 0.396,-0.1108 2.592,-1.12484 4.88,-2.25343 z m 118.08001,-95.50825 c 0.31855,-0.352 0.65119,-0.64 0.73919,-0.64 0.088,0 -0.10064,0.288 -0.41919,0.64 -0.31856,0.352 -0.6512,0.64 -0.7392,0.64 -0.088,0 0.10064,-0.288 0.4192,-0.64 z m 2.08,-2.08 c 0.5449,-0.792 1.06274,-1.44 1.15074,-1.44 0.088,0 -0.28584,0.648 -0.83074,1.44 -0.54491,0.792 -1.06275,1.44 -1.15075,1.44 -0.088,0 0.28584,-0.648 0.83075,-1.44 z m 1.92,-2.52028 c 0.44,-0.49626 1.232,-1.19952 1.76,-1.56279 1.14079,-0.78489 0.83403,-0.44827 -1.12,1.22902 -0.95642,0.82097 -1.17135,0.93305 -0.64,0.33377 z m 2.88,-2.23614 c 0,-0.088 0.432,-0.46761 0.96,-0.84358 0.528,-0.37597 0.96,-0.61158 0.96,-0.52358 0,0.088 -0.432,0.46761 -0.96,0.84358 -0.528,0.37597 -0.96,0.61158 -0.96,0.52358 z m 65.46944,-1.96358 c -0.30826,-0.47043 -0.38045,-0.8 -0.17527,-0.8 0.20688,0 0.2688,-0.29318 0.1521,-0.72 -0.14058,-0.51421 -0.11357,-0.58281 0.0944,-0.24 0.30835,0.50814 0.76368,2.56 0.5681,2.56 -0.0634,0 -0.35107,-0.36 -0.63936,-0.8 z m -63.22944,0.33951 c 0,-0.088 1.044,-0.85893 2.32,-1.71317 2.63931,-1.76693 3.44069,-2.242584 2.96,-1.75691 -0.5045,0.50972 -5.28,3.64824 -5.28,3.47008 z m 61.71885,-2.47729 c -0.3986,-0.55978 -0.53373,-0.89973 -0.30026,-0.75546 0.27469,0.16977 0.37875,0.12524 0.29491,-0.12621 -0.0712,-0.2137 -0.24374,-0.367239 -0.38336,-0.341194 -0.13961,0.02605 -0.928,-0.575581 -1.752,-1.336947 -0.82397,-0.761367 -1.85814,-1.646851 -2.29814,-1.967744 -0.79309,-0.578403 -0.79172,-0.57872 0.16,-0.0367 0.528,0.300707 1.284,0.840784 1.68,1.20017 0.396,0.359385 0.72,0.488752 0.72,0.287481 0,-0.387491 -2.55421,-2.119888 -4.8594,-3.295913 -0.75814,-0.386775 -1.52294,-0.885098 -1.69952,-1.107386 -0.23766,-0.299136 -0.86156,-0.339939 -2.40108,-0.157017 -1.62429,0.192992 -1.79476,0.256729 -0.77808,0.290921 1.31427,0.0442 4.78886,0.939654 4.55472,1.173818 -0.0696,0.06957 -0.82666,-0.08422 -1.68244,-0.34177 -1.21276,-0.364989 -3.60908,-0.467587 -10.86505,-0.46519 -8.44176,0.0029 -9.74151,0.07705 -13.94915,0.796924 -4.56447,0.780925 -6.05529,0.951914 -4.48132,0.513984 0.50592,-0.140761 -0.0219,-0.229027 -1.44,-0.240793 -1.23127,-0.01021 -2.43252,-0.07587 -2.66944,-0.145885 -0.23691,-0.07002 -0.56339,0.215939 -0.7255,0.635459 -0.28045,0.725741 -0.24402,0.753923 0.75075,0.580631 2.97948,-0.519034 3.24046,-0.528071 1.68551,-0.05837 -0.88,0.265821 -2.06988,0.402557 -2.64417,0.30386 -1.25393,-0.215498 -5.27207,0.50375 -4.44163,0.795052 0.33422,0.117239 -0.9346,0.560397 -3.15504,1.101956 -2.04275,0.498217 -3.76308,0.853708 -3.82296,0.789977 -0.0599,-0.06373 0.53726,-0.447603 1.32697,-0.853056 0.78972,-0.405453 1.34206,-0.585453 1.22745,-0.4 -0.28118,0.454954 0.32037,0.415687 2.22938,-0.145533 1.26493,-0.371868 1.35392,-0.435532 0.42495,-0.304006 -0.64628,0.0915 -1.26336,0.02346 -1.3713,-0.151184 -0.20287,-0.328253 1.61955,-1.381453 3.02635,-1.748963 0.44,-0.114944 -0.064,0.228246 -1.12,0.762646 -2.18791,1.10721 -1.85643,1.02152 2.4,-0.620409 1.672,-0.64498 4.48,-1.576695 6.24,-2.070477 3.1493,-0.883562 4.51664,-1.433168 2.48,-0.996842 -0.572,0.122544 -1.04,0.151431 -1.04,0.06419 0,-0.185507 6.86428,-1.827203 7.44598,-1.780819 0.2167,0.01728 -0.25398,0.231571 -1.04598,0.476205 -1.67197,0.516442 -1.20764,0.456797 4.1342,-0.531043 2.4064,-0.445002 5.03332,-0.635991 9.44,-0.68633 l 6.1058,-0.06975 -6.4,-0.180499 -6.4,-0.180499 6.4,-0.04495 c 5.62505,-0.0395 6.59372,0.02982 8,0.572653 0.88,0.339677 1.24,0.545645 0.8,0.457699 -0.44,-0.08795 -1.16,-0.232371 -1.6,-0.320947 -0.44,-0.08858 0.424,0.245568 1.92,0.742544 1.496,0.496976 3.19222,1.150205 3.7694,1.451622 0.57716,0.301418 1.2114,0.447898 1.40944,0.325514 0.21389,-0.132186 0.27136,-0.07906 0.14164,0.130867 -0.12013,0.194362 0.0642,0.504611 0.40953,0.689443 0.92919,0.497299 1.20167,0.407651 0.49114,-0.1616 -0.60592,-0.485437 -0.6048,-0.489795 0.0452,-0.177469 0.3665,0.1761 0.8705,0.580045 1.12,0.897652 0.41421,0.527209 0.40496,0.539244 -0.1063,0.138291 -0.90576,-0.710352 -0.64061,0.09577 0.3103,0.943401 0.64877,0.578285 0.752,0.612851 0.40554,0.135779 -0.46007,-0.633465 -0.45751,-0.633776 0.24966,-0.0304 0.75546,0.644535 0.96144,1.020788 0.35299,0.644746 -0.21945,-0.135619 -0.30329,-0.04872 -0.21334,0.221114 0.0815,0.244499 0.30419,0.444544 0.49485,0.444544 0.19065,0 0.46665,0.131088 0.61334,0.291305 0.15744,0.171984 0.0858,0.186509 -0.17485,0.03546 -0.24284,-0.140717 -0.37948,-0.127801 -0.30368,0.0287 1.21204,2.50185 1.54426,3.387177 1.37424,3.662247 -0.11228,0.18168 -0.0301,0.54002 0.1826,0.79631 0.21267,0.25629 0.30688,0.46598 0.20931,0.46598 -0.0976,0 -0.50352,-0.458 -0.90211,-1.01777 z m -0.59885,-1.652621 c 0,-0.06072 -0.324,-0.384723 -0.72,-0.72 l -0.72,-0.609597 0.6096,0.72 c 0.57286,0.676621 0.8304,0.865677 0.8304,0.609597 z m -33.12,-4.807657 2.24,-0.398733 -1.44,-0.211533 c -0.792,-0.116342 -1.83421,-0.304505 -2.31602,-0.418147 -0.67906,-0.16016 -0.92563,-0.07249 -1.09666,0.38993 -0.12135,0.328099 -0.37514,0.702339 -0.56398,0.831644 -0.48901,0.334845 0.57331,0.270247 3.17666,-0.193161 z m 9.35808,-1.029792 4.23804,-0.214064 -1.44918,-0.919043 c -1.7153,-1.087821 -2.06694,-1.135293 -2.06694,-0.27904 0,0.674905 -0.46557,0.861132 -0.8,0.32 -0.33405,-0.540516 -1.03613,-0.355258 -1.21271,0.32 -0.19401,0.741843 -1.08902,0.831916 -1.99609,0.200886 -0.34717,-0.24151 -1.0992,-0.54095 -1.6712,-0.665424 -0.9569,-0.208227 -1.04,-0.162221 -1.04,0.575648 0,0.485581 -0.22093,0.869133 -0.56,0.972221 -0.308,0.09365 0.088,0.110099 0.88,0.03657 0.792,-0.07353 3.34713,-0.230016 5.67808,-0.347754 z m 11.28192,-0.753261 c 0,-0.975546 -0.55834,-1.081555 -1.76583,-0.33528 -0.6128,0.378726 -1.11417,0.748848 -1.11417,0.822493 0,0.07364 0.648,0.133901 1.44,0.133901 1.21206,0 1.44,-0.09831 1.44,-0.621114 z m -21.44,-0.658886 c 0.63346,-0.202871 0.66677,-0.256205 0.16,-0.256205 -0.352,0 -1,0.115293 -1.44,0.256205 -0.63347,0.20287 -0.66678,0.256204 -0.16,0.256204 0.352,0 1,-0.115292 1.44,-0.256204 z m 35.39952,8.147627 c -0.30877,-0.8047 -0.2177,-1.012335 0.15955,-0.36363 0.18678,0.3212 0.27219,0.65141 0.18979,0.7338 -0.0824,0.0824 -0.23958,-0.0842 -0.34934,-0.37017 z m -0.79335,-1.987628 c -0.34918,-0.816012 -0.34131,-0.834835 0.10861,-0.258838 0.26688,0.341638 0.48522,0.737638 0.48522,0.88 0,0.486371 -0.21706,0.259315 -0.59383,-0.621162 z m -46.52617,-1.251929 c 0.22,-0.08877 0.58,-0.08877 0.8,0 0.22,0.08877 0.04,0.161405 -0.4,0.161405 -0.44,0 -0.62,-0.07263 -0.4,-0.161405 z m 1.76609,-0.329827 c 0.31135,-0.08113 0.74335,-0.0758 0.96,0.01187 0.21665,0.08766 -0.0381,0.154038 -0.56609,0.147516 -0.528,-0.0065 -0.70526,-0.07824 -0.39391,-0.159372 z m 38.45506,-1.235898 c -0.59648,-0.477885 -0.59255,-0.483792 0.0989,-0.148739 0.396,0.191901 0.72,0.415843 0.72,0.497651 0,0.24487 -0.16596,0.174157 -0.81885,-0.348912 z M 307.06138,94.87152 c 0.264,-0.163114 0.84,-0.392864 1.28,-0.51056 0.55599,-0.14872 0.65359,-0.12353 0.32,0.08258 -0.264,0.163114 -0.84,0.392864 -1.28,0.51056 -0.556,0.14872 -0.6536,0.12353 -0.32,-0.08258 z m 2.72,-1.013987 c 0.352,-0.151261 0.856,-0.275018 1.12,-0.275018 0.30255,0 0.2434,0.101667 -0.16,0.275018 -0.352,0.15126 -0.856,0.275017 -1.12,0.275017 -0.30256,0 -0.24341,-0.101667 0.16,-0.275017 z m 2.24,-0.64 c 0.352,-0.151261 0.856,-0.275018 1.12,-0.275018 0.30255,0 0.2434,0.101667 -0.16,0.275018 -0.352,0.15126 -0.856,0.275017 -1.12,0.275017 -0.30256,0 -0.24341,-0.101667 0.16,-0.275017 z m 34.54115,-0.817655 c -0.59648,-0.477885 -0.59255,-0.483792 0.0989,-0.148739 0.396,0.191901 0.72,0.415843 0.72,0.497651 0,0.244871 -0.16596,0.174157 -0.81885,-0.348912 z m -24.02855,-1.750899 c 0.50196,-0.150451 1.72596,-0.348403 2.72,-0.439898 1.7793,-0.163766 1.77258,-0.159392 -0.4326,0.281386 -2.48621,0.496947 -3.69626,0.580803 -2.2874,0.158512 z M 281.63982,79.167376 c -0.0986,-0.159587 0.10887,-0.21479 0.46111,-0.122678 0.7472,0.195395 0.84165,0.412835 0.17933,0.412835 -0.25361,0 -0.54181,-0.130569 -0.64044,-0.290157 z m 1.94571,-0.829843 c 0.73986,-1.263497 0.75585,-1.282294 0.75585,-0.888784 0,0.185834 -0.29655,0.677834 -0.659,1.093335 l -0.65899,0.755449 z m -3.28013,-0.329987 c -0.29189,-0.445491 -0.47251,-0.868195 -0.40136,-0.939341 0.0711,-0.07115 0.37195,0.293347 0.66846,0.809987 0.66038,1.150634 0.4643,1.245597 -0.2671,0.129354 z m 1.73667,-0.704928 c -1.02362,-1.093142 -1.18966,-1.640585 -1.26011,-4.154563 -0.0377,-1.346262 -0.16969,-1.923366 -0.40817,-1.784992 -0.19383,0.112464 -0.0781,-0.108269 0.25718,-0.490525 0.63751,-0.726828 1.01559,-0.933529 0.66248,-0.362179 -0.13468,0.21792 0.10737,0.258995 0.70111,0.118973 0.49875,-0.117622 0.97882,-0.212445 1.06682,-0.210723 0.67824,0.01328 0.91838,0.148909 1.09953,0.620982 0.17557,0.457517 0.0998,0.44504 -0.48576,-0.08 l -0.69377,-0.622057 0.6788,1.12 c 0.77509,1.278863 0.87745,3.642083 0.2348,5.420681 -0.51539,1.426406 -0.84413,1.501705 -1.85291,0.424403 z m 2.53737,-2.325085 c 0.0927,-1.144 0.22106,-2.14 0.28524,-2.213334 0.23592,-0.269558 0.0632,3.034179 -0.19104,3.653334 -0.15429,0.375802 -0.19317,-0.21864 -0.0942,-1.44 z m -4.99605,-0.32 c -0.0177,-1.144 0.0829,-2.261264 0.22351,-2.482809 0.14064,-0.221546 0.20211,0.498454 0.13659,1.6 -0.17267,2.903171 -0.32308,3.271916 -0.3601,0.882809 z m 2.45799,-4.698595 c 0.23099,-0.09244 0.507,-0.08107 0.61333,0.02525 0.10633,0.106333 -0.0827,0.181965 -0.42,0.168071 -0.37278,-0.01536 -0.44861,-0.09118 -0.19333,-0.193331 z m 46.82496,128.858592 c 0.91891,-1.24909 1.92355,-5.60321 2.10627,-9.12853 0.15094,-2.91204 0.0613,-3.63651 -0.96944,-7.84 -2.70291,-11.02211 -5.06839,-17.68154 -9.82918,-27.67147 -1.25811,-2.64 -2.34151,-4.85437 -2.40755,-4.92084 -0.21155,-0.2129 -6.27845,3.43458 -9.58506,5.76264 -3.45526,2.43272 -15.60905,8.58844 -19.52,9.88661 l -2.24,0.74353 1.50559,0.3872 c 2.29942,0.59135 6.16353,2.85471 9.54361,5.59006 1.67706,1.35717 6.21306,5.76034 10.08,9.78483 3.86694,4.02449 8.1468,8.46258 9.5108,9.86241 1.38324,1.41958 2.49117,2.83668 2.50526,3.20436 0.0139,0.36256 0.0974,0.48057 0.18565,0.26224 0.14918,-0.3692 0.77805,0.11761 5.22909,4.04787 1.40457,1.24023 2.98524,1.25207 3.88496,0.0291 z M 144.18773,182.01352 c 0.7005,-0.44221 1.27364,-0.91941 1.27364,-1.06043 0,-0.14103 1.116,-1.18322 2.48,-2.31599 1.364,-1.13276 3.01865,-2.64984 3.67698,-3.37127 l 1.19698,-1.31171 -3.59698,-0.92599 c -3.19332,-0.82208 -4.13563,-0.92547 -8.39698,-0.9213 -4.3036,0.004 -4.98201,0.0818 -6.56,0.75032 -0.968,0.4101 -2.12,0.88649 -2.56,1.05864 l -0.8,0.31302 0.96,0.49975 c 0.528,0.27485 2.01518,1.49752 3.30483,2.71702 2.15407,2.03691 6.78704,5.37195 7.46259,5.37195 0.15691,0 0.85844,-0.36181 1.55894,-0.80401 z"
         id="path1017" />
    </g>
  </g>
</svg>
