<?xml version="1.0" encoding="UTF-8" standalone="no"?>
<!-- Created with Inkscape (http://www.inkscape.org/) -->

<svg
   version="1.1"
   id="svg9"
   width="614.40002"
   height="345.60001"
   viewBox="0 0 614.40002 345.60001"
   sodipodi:docname="logo.svg"
   inkscape:version="1.1.1 (3bf5ae0d25, 2021-09-20)"
   xmlns:inkscape="http://www.inkscape.org/namespaces/inkscape"
   xmlns:sodipodi="http://sodipodi.sourceforge.net/DTD/sodipodi-0.dtd"
   xmlns="http://www.w3.org/2000/svg"
   xmlns:svg="http://www.w3.org/2000/svg">
  <defs
     id="defs13" />
  <sodipodi:namedview
     id="namedview11"
     pagecolor="#ffffff"
     bordercolor="#666666"
     borderopacity="1.0"
     inkscape:pageshadow="2"
     inkscape:pageopacity="0.0"
     inkscape:pagecheckerboard="0"
     showgrid="false"
     inkscape:zoom="1.0168752"
     inkscape:cx="420.40558"
     inkscape:cy="170.62074"
     inkscape:window-width="1366"
     inkscape:window-height="705"
     inkscape:window-x="-8"
     inkscape:window-y="-8"
     inkscape:window-maximized="1"
     inkscape:current-layer="g15" />
  <g
     inkscape:groupmode="layer"
     inkscape:label="Image"
     id="g15">
    <g
       id="g153"
       transform="translate(-2.1065866,4.1927026)">
      <path
         style="fill:#fefefe;stroke-width:0.32"
         d="m 384.57825,133.60052 c -1.79549,-0.65998 -3.04166,-1.71348 -4.73219,-4.00052 -2.79005,-3.77454 -3.5008,-5.27612 -4.37216,-9.23706 -0.75344,-3.42474 -0.80557,-4.1537 -0.65059,-9.10089 0.16621,-5.30628 0.18656,-5.42995 1.52733,-9.28 1.89897,-5.452844 4.43116,-8.74383 7.3136,-9.505139 1.0318,-0.272515 7.33235,-0.364105 22.86582,-0.332393 23.89565,0.04879 22.52231,-0.07484 25.46823,2.292563 2.45036,1.969175 3.68784,3.983082 4.99126,8.122919 l 1.20899,3.84 -0.0208,6.24 c -0.0243,7.22861 -0.42918,9.64799 -2.20553,13.17532 -2.08829,4.14683 -3.31626,5.37911 -7.40151,7.42761 l -1.66934,0.83707 -20.57066,-0.0226 c -16.48755,-0.0181 -20.80518,-0.10877 -21.75238,-0.45693 z m -173.70006,-0.29603 c -2.88455,-0.79683 -4.71288,-2.20596 -7.50532,-5.78449 -2.48888,-3.18953 -2.93029,-4.04482 -3.67977,-7.13015 -2.38471,-9.817 -1.26469,-16.93795 3.57275,-22.715022 2.99026,-3.571091 5.22623,-4.811027 10.56766,-5.860189 1.08812,-0.213728 11.2805,-0.322195 28.7265,-0.305705 30.86098,0.02915 28.83511,-0.147792 33.42077,2.91929 3.58604,2.398489 5.62628,5.411011 7.54671,11.143106 0.8813,2.63051 0.95252,3.18825 0.95252,7.45983 0,4.0088 -0.0993,4.90856 -0.75389,6.8328 -1.03776,3.05047 -2.14746,5.15108 -4.34764,8.22985 -1.78186,2.49339 -2.02817,2.70306 -4.87103,4.14619 l -2.99427,1.52 -29.59659,-0.0286 c -22.54927,-0.0218 -29.9399,-0.12345 -31.0384,-0.4269 z M 307.07935,132.96 c -3.43,-1.33903 -6.82855,-6.22051 -8.38925,-12.04982 -1.02549,-3.83025 -1.37932,-11.66711 -0.66338,-14.69296 0.61969,-2.61903 2.67561,-7.405316 4.06502,-9.463553 1.27719,-1.892 2.24369,-2.762883 4.21763,-3.800362 l 1.50936,-0.793302 h 21.78093 c 18.26666,0 21.95942,0.07459 22.88739,0.46232 1.25952,0.526265 3.67296,2.37751 3.67296,2.817382 0,0.160922 0.48663,0.892823 1.08141,1.626442 3.56227,4.393823 4.95981,11.584293 4.05936,20.885693 -0.56035,5.78841 -3.97328,11.89663 -8.02851,14.36898 l -1.76775,1.07774 -21.39289,0.10072 c -20.76029,0.0977 -21.44136,0.0818 -23.03228,-0.53928 z"
         id="path249" />
      <path
         style="fill:#f6f6f6;stroke-width:0.32"
         d="m 313.53074,133.52372 c 0.9299,-0.0649 2.3699,-0.0642 3.2,0.002 0.8301,0.0657 0.0693,0.11873 -1.69073,0.1179 -1.76,-9.6e-4 -2.43917,-0.0546 -1.50927,-0.11942 z m 74.86927,-41.595205 c 0.572,-0.07098 1.508,-0.07098 2.08,0 0.572,0.07098 0.104,0.129065 -1.04,0.129065 -1.144,0 -1.612,-0.05808 -1.04,-0.129065 z M 221.36846,91.285283 c 0.75266,-0.0676 1.90466,-0.06665 2.56,0.0022 0.65535,0.06876 0.0395,0.124067 -1.36845,0.122905 -1.408,-0.0013 -1.9442,-0.05742 -1.19155,-0.125021 z"
         id="path247" />
      <path
         style="fill:#f4f4f4;stroke-width:0.32"
         d="m 297.68071,116 c 0.004,-0.704 0.0691,-0.95432 0.14562,-0.55627 0.0765,0.39806 0.0736,0.97406 -0.006,1.28 -0.0801,0.30595 -0.14272,-0.0197 -0.13917,-0.72373 z"
         id="path245" />
      <path
         style="fill:#eef0fd;stroke-width:0.32"
         d="m 87.612544,189.52275 c 1.106896,-0.0627 2.834896,-0.0622 3.84,0.001 1.005101,0.0633 0.09946,0.11457 -2.012541,0.11394 -2.112,-6.4e-4 -2.934359,-0.0524 -1.827459,-0.11508 z M 334.96001,146.02807 c 0.22,-0.0888 0.58,-0.0888 0.8,0 0.22,0.0888 0.04,0.16141 -0.4,0.16141 -0.44,0 -0.62,-0.0726 -0.4,-0.16141 z m 67.20573,-0.02 c 0.57517,-0.0712 1.43917,-0.0697 1.92,0.003 0.48087,0.073 0.0102,0.13129 -1.04573,0.12949 -1.056,-0.002 -1.4494,-0.0615 -0.87427,-0.13276 z m -89.28573,-0.3 c 0.22,-0.0888 0.58,-0.0888 0.8,0 0.22,0.0888 0.04,0.16141 -0.4,0.16141 -0.44,0 -0.62,-0.0726 -0.4,-0.16141 z m -23.68,-0.32 c 0.22,-0.0888 0.58,-0.0888 0.8,0 0.22,0.0888 0.04,0.16141 -0.4,0.16141 -0.44,0 -0.62,-0.0726 -0.4,-0.16141 z"
         id="path243" />
      <path
         style="fill:#eeeeee;stroke-width:0.32"
         d="m 345.36968,200.7244 c 0.84131,-0.0661 2.13731,-0.0653 2.88,0.002 0.74268,0.0671 0.0543,0.12122 -1.52967,0.12025 -1.584,-9.6e-4 -2.19165,-0.0559 -1.35033,-0.12202 z m 76.48,0 c 0.84131,-0.0661 2.13731,-0.0653 2.88,0.002 0.74269,0.0671 0.0543,0.12122 -1.52967,0.12025 -1.584,-9.6e-4 -2.19164,-0.0559 -1.35033,-0.12202 z m -202.24967,-0.32087 c 1.012,-0.0635 2.668,-0.0635 3.68,0 1.012,0.0635 0.184,0.11546 -1.84,0.11546 -2.024,0 -2.852,-0.052 -1.84,-0.11546 z m 100.33073,-66.87981 c 0.92991,-0.0649 2.36991,-0.0642 3.19999,0.002 0.83011,0.0657 0.0693,0.11873 -1.69072,0.1179 -1.76,-9.6e-4 -2.43917,-0.0546 -1.50927,-0.11942 z m 72.62214,-41.594671 c 0.56806,-0.07069 1.57606,-0.07185 2.24,-0.0026 0.66393,0.06927 0.19913,0.12711 -1.03287,0.128531 -1.232,0.0013 -1.7752,-0.05526 -1.20713,-0.125949 z M 226.48001,91.285695 c 0.748,-0.06737 1.972,-0.06737 2.72,0 0.748,0.06737 0.136,0.122496 -1.36,0.122496 -1.496,0 -2.108,-0.05512 -1.36,-0.122496 z"
         id="path241" />
      <path
         style="fill:#e0e4fc;stroke-width:0.32"
         d="m 95.292544,189.52275 c 1.106896,-0.0627 2.834896,-0.0622 3.84,0.001 1.005096,0.0633 0.09946,0.11457 -2.012541,0.11394 -2.112,-6.4e-4 -2.934358,-0.0524 -1.827459,-0.11508 z M 147.67142,150.64 145.44,148.32 l 2.32,2.23142 c 2.15482,2.07254 2.46615,2.40858 2.23142,2.40858 -0.0487,0 -1.09272,-1.044 -2.32,-2.32 z m 186.02859,-4.61859 c 0.23101,-0.0924 0.50701,-0.0811 0.61334,0.0252 0.10634,0.10633 -0.0827,0.18196 -0.42,0.16807 -0.3728,-0.0154 -0.4486,-0.0912 -0.19334,-0.19333 z m 64.62573,-0.0133 c 0.57517,-0.0712 1.43917,-0.0697 1.92,0.003 0.48087,0.073 0.0102,0.13129 -1.04573,0.12949 -1.056,-0.002 -1.44941,-0.0615 -0.87427,-0.13275 z m -87.04573,-0.30003 c 0.22,-0.0888 0.58,-0.0888 0.8,0 0.22,0.0888 0.04,0.16141 -0.4,0.16141 -0.44,0 -0.62,-0.0726 -0.4,-0.16141 z m -23.68,-0.32 c 0.22,-0.0888 0.58,-0.0888 0.8,0 0.22,0.0888 0.04,0.16141 -0.4,0.16141 -0.44,0 -0.62,-0.0726 -0.4,-0.16141 z"
         id="path239" />
      <path
         style="fill:#e6e6e6;stroke-width:0.32"
         d="m 326.33073,133.52372 c 0.92992,-0.0649 2.36992,-0.0642 3.2,0.002 0.83011,0.0657 0.0693,0.11873 -1.69072,0.1179 -1.76,-9.6e-4 -2.43917,-0.0546 -1.50928,-0.11942 z m 70.70928,-41.595205 c 0.572,-0.07098 1.508,-0.07098 2.08,0 0.572,0.07098 0.104,0.129065 -1.04,0.129065 -1.144,0 -1.612,-0.05808 -1.04,-0.129065 z M 231.92847,91.285283 c 0.75265,-0.0676 1.90465,-0.06665 2.56,0.0022 0.65534,0.06876 0.0395,0.124067 -1.36846,0.122905 -1.408,-0.0013 -1.9442,-0.05742 -1.19154,-0.125021 z"
         id="path237" />
      <path
         style="fill:#d0d8fb;stroke-width:0.32"
         d="m 102.96,189.52308 c 1.1,-0.0625 2.9,-0.0625 4,0 1.1,0.0625 0.2,0.11361 -2,0.11361 -2.2,0 -3.1,-0.0511 -2,-0.11361 z m 229.12001,-43.49501 c 0.22,-0.0888 0.58,-0.0888 0.8,0 0.22,0.0888 0.04,0.16141 -0.4,0.16141 -0.44,0 -0.62,-0.0726 -0.4,-0.16141 z m 62.40573,-0.02 c 0.57517,-0.0712 1.43917,-0.0697 1.92,0.003 0.48086,0.073 0.0102,0.13129 -1.04573,0.12949 -1.056,-0.002 -1.44941,-0.0615 -0.87427,-0.13276 z m -84.80573,-0.3 c 0.22,-0.0888 0.58,-0.0888 0.8,0 0.22,0.0888 0.04,0.16141 -0.4,0.16141 -0.44,0 -0.62,-0.0726 -0.4,-0.16141 z m -23.68,-0.32 c 0.22,-0.0888 0.58,-0.0888 0.8,0 0.22,0.0888 0.04,0.16141 -0.4,0.16141 -0.44,0 -0.62,-0.0726 -0.4,-0.16141 z"
         id="path235" />
      <path
         style="fill:#dcdcdc;stroke-width:0.32"
         d="m 339.28001,200.72479 c 0.836,-0.0659 2.204,-0.0659 3.04,0 0.836,0.0659 0.152,0.11986 -1.52,0.11986 -1.672,0 -2.356,-0.0539 -1.52,-0.11986 z m 76.48,0 c 0.836,-0.0659 2.204,-0.0659 3.04,0 0.836,0.0659 0.152,0.11986 -1.52,0.11986 -1.672,0 -2.356,-0.0539 -1.52,-0.11986 z m -188.62746,-0.32204 c 1.10689,-0.0627 2.83489,-0.0622 3.84,0.001 1.0051,0.0633 0.0995,0.11457 -2.01254,0.11394 -2.112,-6.4e-4 -2.93436,-0.0524 -1.82746,-0.11508 z m 105.59818,-66.87903 c 0.92992,-0.0649 2.36992,-0.0642 3.2,0.002 0.83011,0.0657 0.0693,0.11873 -1.69072,0.1179 -1.76,-9.6e-4 -2.43917,-0.0546 -1.50928,-0.11942 z m 68.46215,-41.594671 c 0.56806,-0.07069 1.57606,-0.07185 2.24,-0.0026 0.66393,0.06927 0.19913,0.12711 -1.03287,0.128531 -1.232,0.0013 -1.7752,-0.05526 -1.20713,-0.125949 z M 237.04001,91.285695 c 0.748,-0.06737 1.972,-0.06737 2.72,0 0.748,0.06737 0.136,0.122496 -1.36,0.122496 -1.496,0 -2.108,-0.05512 -1.36,-0.122496 z"
         id="path233" />
      <path
         style="fill:#c1ccfa;stroke-width:0.32"
         d="m 110.64,189.52308 c 1.1,-0.0625 2.9,-0.0625 4,0 1.1,0.0625 0.2,0.11361 -2,0.11361 -2.2,0 -3.1,-0.0511 -2,-0.11361 z m 219.84001,-43.49501 c 0.22,-0.0888 0.58,-0.0888 0.8,0 0.22,0.0888 0.04,0.16141 -0.4,0.16141 -0.44,0 -0.62,-0.0726 -0.4,-0.16141 z m 60.16573,-0.02 c 0.57517,-0.0712 1.43917,-0.0697 1.92,0.003 0.48086,0.073 0.0102,0.13129 -1.04573,0.12949 -1.056,-0.002 -1.44941,-0.0615 -0.87427,-0.13276 z m -82.22573,-0.30668 c 0.231,-0.0924 0.507,-0.0811 0.61333,0.0252 0.10634,0.10633 -0.0827,0.18197 -0.42,0.16807 -0.37278,-0.0154 -0.4486,-0.0912 -0.19333,-0.19333 z m -24.02,-0.31332 c 0.22,-0.0888 0.58,-0.0888 0.8,0 0.22,0.0888 0.04,0.16141 -0.4,0.16141 -0.44,0 -0.62,-0.0726 -0.4,-0.16141 z"
         id="path231" />
      <path
         style="fill:#d4d4d4;stroke-width:0.32"
         d="m 228.42409,133.84007 c 7.80124,-0.0477 20.47324,-0.0477 28.16,4e-5 7.68675,0.0477 1.30392,0.0868 -14.18408,0.0868 -15.488,-2e-5 -21.77717,-0.0391 -13.97592,-0.0868 z m 110.38664,-0.31635 c 0.92992,-0.0649 2.36992,-0.0642 3.2,0.002 0.83011,0.0657 0.0693,0.11873 -1.69072,0.1179 -1.76,-9.6e-4 -2.43917,-0.0546 -1.50928,-0.11942 z M 284.57153,112.8 c 0.003,-0.88 0.0645,-1.20202 0.1381,-0.7156 0.0736,0.48642 0.0716,1.20642 -0.004,1.6 -0.076,0.39358 -0.13613,-0.004 -0.13373,-0.8844 z M 405.68001,91.928515 c 0.572,-0.07098 1.508,-0.07098 2.08,0 0.572,0.07098 0.104,0.129065 -1.04,0.129065 -1.144,0 -1.612,-0.05808 -1.04,-0.129065 z M 242.48847,91.285283 c 0.75265,-0.0676 1.90465,-0.06665 2.56,0.0022 0.65534,0.06876 0.0395,0.124067 -1.36846,0.122905 -1.408,-0.0013 -1.9442,-0.05742 -1.19154,-0.125021 z"
         id="path229" />
      <path
         style="fill:#b1bdf9;stroke-width:0.32"
         d="m 118.65254,189.52275 c 1.1069,-0.0627 2.8349,-0.0622 3.84,0.001 1.00511,0.0633 0.0995,0.11457 -2.01254,0.11394 -2.112,-6.4e-4 -2.93435,-0.0524 -1.82746,-0.11508 z m 210.22747,-43.49468 c 0.22,-0.0888 0.58,-0.0888 0.8,0 0.22,0.0888 0.04,0.16141 -0.4,0.16141 -0.44,0 -0.62,-0.0726 -0.4,-0.16141 z m 57.6,-0.0196 c 0.572,-0.071 1.508,-0.071 2.08,0 0.572,0.071 0.104,0.12907 -1.04,0.12907 -1.144,0 -1.612,-0.0581 -1.04,-0.12907 z m -79.68,-0.30044 c 0.22,-0.0888 0.58,-0.0888 0.8,0 0.22,0.0888 0.04,0.16141 -0.4,0.16141 -0.44,0 -0.62,-0.0726 -0.4,-0.16141 z m -24,-0.32 c 0.22,-0.0888 0.58,-0.0888 0.8,0 0.22,0.0888 0.04,0.16141 -0.4,0.16141 -0.44,0 -0.62,-0.0726 -0.4,-0.16141 z"
         id="path227" />
      <path
         style="fill:#cccccc;stroke-width:0.32"
         d="m 333.52967,200.7244 c 0.84132,-0.0661 2.13732,-0.0653 2.88,0.002 0.74269,0.0671 0.0543,0.12122 -1.52966,0.12025 -1.584,-9.6e-4 -2.19165,-0.0559 -1.35034,-0.12202 z m 76.48001,0 c 0.84131,-0.0661 2.13731,-0.0653 2.88,0.002 0.74269,0.0671 0.0543,0.12122 -1.52967,0.12025 -1.584,-9.6e-4 -2.19164,-0.0559 -1.35033,-0.12202 z m -175.51713,-0.32165 c 1.10689,-0.0627 2.83489,-0.0622 3.84,0.001 1.0051,0.0633 0.0995,0.11457 -2.01254,0.11394 -2.112,-6.4e-4 -2.93436,-0.0524 -1.82746,-0.11508 z"
         id="path225" />
      <path
         style="fill:#cacaca;stroke-width:0.32"
         d="m 345.21073,133.52372 c 0.92992,-0.0649 2.36992,-0.0642 3.2,0.002 0.83011,0.0657 0.0693,0.11873 -1.69072,0.1179 -1.76,-9.6e-4 -2.43917,-0.0546 -1.50928,-0.11942 z m -0.15741,-41.601317 c 1.19533,-0.06174 3.06733,-0.06128 4.16,9.6e-4 1.09268,0.0623 0.11469,0.112809 -2.17331,0.112249 -2.288,-6.4e-4 -3.18201,-0.05153 -1.98669,-0.113267 z m 64.77956,0.0067 c 0.56806,-0.07069 1.57606,-0.07185 2.24,-0.0026 0.66393,0.06927 0.19913,0.12711 -1.03287,0.128531 -1.232,0.0013 -1.7752,-0.05526 -1.20713,-0.125949 z M 247.60001,91.285695 c 0.748,-0.06737 1.972,-0.06737 2.72,0 0.748,0.06737 0.136,0.122496 -1.36,0.122496 -1.496,0 -2.108,-0.05512 -1.36,-0.122496 z"
         id="path223" />
      <path
         style="fill:#a1b1f8;stroke-width:0.32"
         d="m 126.33254,189.52275 c 1.1069,-0.0627 2.8349,-0.0622 3.84001,0.001 1.0051,0.0633 0.0994,0.11457 -2.01255,0.11394 -2.112,-6.4e-4 -2.93435,-0.0524 -1.82746,-0.11508 z m 200.94747,-43.49468 c 0.22,-0.0888 0.58,-0.0888 0.8,0 0.22,0.0888 0.04,0.16141 -0.4,0.16141 -0.44,0 -0.62,-0.0726 -0.4,-0.16141 z m 55.36573,-0.02 c 0.57517,-0.0712 1.43917,-0.0697 1.92,0.003 0.48086,0.073 0.0102,0.13129 -1.04573,0.12949 -1.056,-0.002 -1.44941,-0.0615 -0.87427,-0.13276 z m -77.44573,-0.3 c 0.22,-0.0888 0.58,-0.0888 0.8,0 0.22,0.0888 0.04,0.16141 -0.4,0.16141 -0.44,0 -0.62,-0.0726 -0.4,-0.16141 z m -23.68,-0.32 c 0.22,-0.0888 0.58,-0.0888 0.8,0 0.22,0.0888 0.04,0.16141 -0.4,0.16141 -0.44,0 -0.62,-0.0726 -0.4,-0.16141 z"
         id="path221" />
      <path
         style="fill:#c0c0c0;stroke-width:0.32"
         d="m 350.32001,133.54807 c 0.22,-0.0888 0.58,-0.0888 0.8,0 0.22,0.0888 0.04,0.16141 -0.4,0.16141 -0.44,0 -0.62,-0.0726 -0.4,-0.16141 z M 337.05332,91.922403 c 1.19533,-0.06174 3.06733,-0.06128 4.16,9.6e-4 1.09268,0.0623 0.11469,0.112809 -2.17331,0.112249 -2.288,-6.4e-4 -3.18202,-0.05153 -1.98669,-0.113267 z m 77.26669,0.0061 c 0.572,-0.07098 1.508,-0.07098 2.08,0 0.572,0.07098 0.104,0.129065 -1.04,0.129065 -1.144,0 -1.612,-0.05808 -1.04,-0.129065 z m -161.27154,-0.64322 c 0.75265,-0.0676 1.90465,-0.06665 2.56,0.0022 0.65534,0.06876 0.0395,0.124067 -1.36846,0.122905 -1.408,-0.0013 -1.9442,-0.05742 -1.19154,-0.125021 z"
         id="path219" />
      <path
         style="fill:#bababa;stroke-width:0.32"
         d="m 327.44001,200.72479 c 0.836,-0.0659 2.204,-0.0659 3.04,0 0.836,0.0659 0.152,0.11986 -1.52,0.11986 -1.672,0 -2.356,-0.0539 -1.52,-0.11986 z m 76.80967,-3.2e-4 c 0.84131,-0.0661 2.13731,-0.0653 2.88,0.002 0.74269,0.0671 0.0543,0.12123 -1.52967,0.12025 -1.584,-9.6e-4 -2.19164,-0.0559 -1.35033,-0.12202 z m -162.24967,-0.32094 c 1.012,-0.0635 2.668,-0.0635 3.68,0 1.012,0.0635 0.184,0.11546 -1.84,0.11546 -2.024,0 -2.852,-0.052 -1.84,-0.11546 z m 65.9244,-110.393153 c 0.48642,-0.07355 1.20642,-0.07159 1.6,0.0044 0.39358,0.07595 -0.004,0.136134 -0.8844,0.133734 -0.88,-0.0026 -1.20202,-0.06455 -0.7156,-0.138102 z"
         id="path217" />
      <path
         style="fill:#92a4f7;stroke-width:0.32"
         d="m 134.01255,189.52275 c 1.10689,-0.0627 2.83489,-0.0622 3.84,0.001 1.0051,0.0633 0.0994,0.11457 -2.01255,0.11394 -2.112,-6.4e-4 -2.93435,-0.0524 -1.82745,-0.11508 z m 192.00746,-43.50134 c 0.23101,-0.0924 0.50701,-0.0811 0.61334,0.0252 0.10634,0.10633 -0.0827,0.18196 -0.42,0.16807 -0.3728,-0.0154 -0.4486,-0.0912 -0.19334,-0.19333 z m 52.78573,-0.0133 c 0.57517,-0.0712 1.43917,-0.0697 1.92,0.003 0.48086,0.073 0.0102,0.13129 -1.04573,0.12949 -1.056,-0.002 -1.44941,-0.0615 -0.87427,-0.13275 z m -75.20573,-0.30003 c 0.22,-0.0888 0.58,-0.0888 0.8,0 0.22,0.0888 0.04,0.16141 -0.4,0.16141 -0.44,0 -0.62,-0.0726 -0.4,-0.16141 z m -23.68,-0.32 c 0.22,-0.0888 0.58,-0.0888 0.8,0 0.22,0.0888 0.04,0.16141 -0.4,0.16141 -0.44,0 -0.62,-0.0726 -0.4,-0.16141 z"
         id="path215" />
      <path
         style="fill:#8a9ef7;stroke-width:0.32"
         d="m 263.80536,167.36 c 0,-2.376 0.0504,-3.348 0.11194,-2.16 0.0616,1.188 0.0616,3.132 0,4.32 -0.0616,1.188 -0.11194,0.216 -0.11194,-2.16 z m -98.90293,0 c 0,-1.144 0.0581,-1.612 0.12906,-1.04 0.071,0.572 0.071,1.508 0,2.08 -0.071,0.572 -0.12906,0.104 -0.12906,-1.04 z"
         id="path213" />
      <path
         style="fill:#b4b4b4;stroke-width:0.32"
         d="m 328.73332,91.922403 c 1.19533,-0.06174 3.06733,-0.06128 4.16,9.6e-4 1.09267,0.0623 0.11469,0.112809 -2.17331,0.112249 -2.288,-6.4e-4 -3.18202,-0.05153 -1.98669,-0.113267 z m 89.73956,0.0067 c 0.56806,-0.07069 1.57606,-0.07185 2.24,-0.0026 0.66393,0.06927 0.19913,0.12711 -1.03287,0.128531 -1.232,0.0013 -1.7752,-0.05526 -1.20713,-0.125949 z M 258.16001,91.285695 c 0.748,-0.06737 1.972,-0.06737 2.72,0 0.748,0.06737 0.136,0.122496 -1.36,0.122496 -1.496,0 -2.108,-0.05512 -1.36,-0.122496 z"
         id="path211" />
      <path
         style="fill:#b2b2b2;stroke-width:0.32"
         d="m 361.69592,111.68 c 0,-0.968 0.06,-1.364 0.13331,-0.88 0.0733,0.484 0.0733,1.276 0,1.76 -0.0734,0.484 -0.13331,0.088 -0.13331,-0.88 z"
         id="path209" />
      <path
         style="fill:#8399f7;stroke-width:0.32"
         d="m 392.90411,189.84007 c 7.80122,-0.0477 20.47322,-0.0477 28.16,4e-5 7.68675,0.0477 1.3039,0.0868 -14.1841,0.0868 -15.488,-2e-5 -21.77715,-0.0391 -13.9759,-0.0868 z m -210.9041,-0.31699 c 1.1,-0.0625 2.9,-0.0625 4,0 1.1,0.0625 0.2,0.11361 -2,0.11361 -2.2,0 -3.1,-0.0511 -2,-0.11361 z M 443.34494,149.68 l -1.26493,-1.36 1.36,1.26495 c 0.748,0.69572 1.36,1.30772 1.36,1.36 0,0.2421 -0.27868,-1.6e-4 -1.45507,-1.26495 z m -9.8192,-3.35191 c 0.57517,-0.0712 1.43917,-0.0697 1.92,0.003 0.48087,0.073 0.0102,0.13129 -1.04573,0.1295 -1.056,-0.002 -1.4494,-0.0615 -0.87427,-0.13276 z m -109.12573,-0.30002 c 0.22,-0.0888 0.58,-0.0888 0.8,0 0.22,0.0888 0.04,0.16141 -0.4,0.16141 -0.44,0 -0.62,-0.0726 -0.4,-0.16141 z m -190.70746,-0.34532 c 1.10689,-0.0627 2.83489,-0.0622 3.84,0.001 1.0051,0.0633 0.0995,0.11457 -2.01255,0.11394 -2.112,-6.4e-4 -2.93435,-0.0524 -1.82745,-0.11509 z m 99.18746,3.2e-4 c 1.1,-0.0625 2.9,-0.0625 4,0 1.1,0.0625 0.2,0.11362 -2,0.11362 -2.2,0 -3.1,-0.0511 -2,-0.11362 z m 69.12,0.025 c 0.22,-0.0888 0.58,-0.0888 0.8,0 0.22,0.0888 0.04,0.1614 -0.4,0.1614 -0.44,0 -0.62,-0.0726 -0.4,-0.1614 z"
         id="path207" />
      <path
         style="fill:#aaaaaa;stroke-width:0.32"
         d="m 321.68967,200.7244 c 0.84132,-0.0661 2.13732,-0.0653 2.88,0.002 0.74269,0.0671 0.0543,0.12122 -1.52966,0.12025 -1.584,-9.6e-4 -2.19165,-0.0559 -1.35034,-0.12202 z m 76.80001,0 c 0.84131,-0.0661 2.13731,-0.0653 2.88,0.002 0.74269,0.0671 0.0543,0.12122 -1.52967,0.12025 -1.584,-9.6e-4 -2.19165,-0.0559 -1.35033,-0.12202 z m -149.12967,-0.32087 c 1.012,-0.0635 2.668,-0.0635 3.68,0 1.012,0.0635 0.184,0.11546 -1.84,0.11546 -2.024,0 -2.852,-0.052 -1.84,-0.11546 z M 312.41332,90.002403 c 1.19532,-0.06174 3.06732,-0.06128 4.16,9.6e-4 1.09268,0.0623 0.11469,0.112809 -2.17331,0.112249 -2.288,-6.4e-4 -3.18201,-0.05153 -1.98669,-0.113267 z m 114.39044,0.01126 c 0.39805,-0.07654 0.97405,-0.07364 1.28,0.0065 0.30592,0.08009 -0.0198,0.14272 -0.72375,0.139168 -0.704,-0.0036 -0.95433,-0.06909 -0.55625,-0.145626 z M 268.24441,89.370364 c 0.48642,-0.07355 1.20642,-0.07159 1.6,0.0044 0.39358,0.07595 -0.004,0.136135 -0.8844,0.133735 -0.88,-0.0026 -1.20202,-0.06455 -0.7156,-0.138103 z"
         id="path205" />
      <path
         style="fill:#a8a8a8;stroke-width:0.32"
         d="m 320.73332,91.922403 c 1.19533,-0.06174 3.06733,-0.06128 4.16,9.6e-4 1.09267,0.0623 0.11469,0.112809 -2.17331,0.112249 -2.288,-6.4e-4 -3.18201,-0.05153 -1.98669,-0.113267 z m 102.22669,0.0061 c 0.572,-0.07098 1.508,-0.07098 2.08,0 0.572,0.07098 0.104,0.129065 -1.04,0.129065 -1.144,0 -1.612,-0.05808 -1.04,-0.129065 z m -159.35154,-0.64322 c 0.75265,-0.0676 1.90465,-0.06665 2.56,0.0022 0.65534,0.06876 0.0395,0.124067 -1.36846,0.122905 -1.408,-0.0013 -1.9442,-0.05742 -1.19154,-0.125021 z"
         id="path203" />
      <path
         style="fill:#728af5;stroke-width:0.32"
         d="m 189.68001,189.52308 c 1.1,-0.0625 2.9,-0.0625 4,0 1.1,0.0625 0.2,0.11361 -2,0.11361 -2.2,0 -3.1,-0.0511 -2,-0.11361 z m 239.68,-43.19456 c 0.572,-0.071 1.508,-0.071 2.08,0 0.572,0.071 0.104,0.12906 -1.04,0.12906 -1.144,0 -1.612,-0.0581 -1.04,-0.12906 z m -106.56,-0.30045 c 0.22,-0.0888 0.58,-0.0888 0.8,0 0.22,0.0888 0.04,0.16141 -0.4,0.16141 -0.44,0 -0.62,-0.0726 -0.4,-0.16141 z M 125.68,145.68308 c 1.1,-0.0625 2.9,-0.0625 4,0 1.1,0.0625 0.2,0.11361 -2,0.11361 -2.2,0 -3.1,-0.0511 -2,-0.11361 z m 99.53255,-3.2e-4 c 1.10689,-0.0627 2.83489,-0.0622 3.84,0.001 1.0051,0.0633 0.0995,0.11457 -2.01254,0.11394 -2.112,-6.4e-4 -2.93436,-0.0524 -1.82746,-0.11509 z m 75.52746,0.0187 c 0.231,-0.0924 0.507,-0.0811 0.61333,0.0252 0.10634,0.10633 -0.0827,0.18197 -0.42,0.16807 -0.37278,-0.0154 -0.4486,-0.0912 -0.19333,-0.19333 z"
         id="path201" />
      <path
         style="fill:#647ef5;stroke-width:0.32"
         d="m 197.36001,189.52308 c 1.1,-0.0625 2.9,-0.0625 4,0 1.1,0.0625 0.2,0.11361 -2,0.11361 -2.2,0 -3.1,-0.0511 -2,-0.11361 z m 228.16,-43.19456 c 0.572,-0.071 1.508,-0.071 2.08,0 0.572,0.071 0.104,0.12906 -1.04,0.12906 -1.144,0 -1.612,-0.0581 -1.04,-0.12906 z m -104.32,-0.30045 c 0.22,-0.0888 0.58,-0.0888 0.8,0 0.22,0.0888 0.04,0.16141 -0.4,0.16141 -0.44,0 -0.62,-0.0726 -0.4,-0.16141 z m -203.18747,-0.34532 c 1.1069,-0.0627 2.8349,-0.0622 3.84,0.001 1.00511,0.0633 0.0995,0.11457 -2.01254,0.11394 -2.112,-6.4e-4 -2.93435,-0.0524 -1.82746,-0.11509 z m 99.52001,0 c 1.10689,-0.0627 2.83489,-0.0622 3.84,0.001 1.0051,0.0633 0.0995,0.11457 -2.01254,0.11394 -2.112,-6.4e-4 -2.93436,-0.0524 -1.82746,-0.11509 z m 81.58746,0.0253 c 0.22,-0.0888 0.58,-0.0888 0.8,0 0.22,0.0888 0.04,0.1614 -0.4,0.1614 -0.44,0 -0.62,-0.0726 -0.4,-0.1614 z"
         id="path199" />
      <path
         style="fill:#9a9a9a;stroke-width:0.32"
         d="m 312.56001,91.923075 c 1.1,-0.06249 2.9,-0.06249 4,0 1.1,0.06249 0.2,0.113612 -2,0.113612 -2.2,0 -3.1,-0.05113 -2,-0.113612 z m 114.08,0.01635 c 0.308,-0.08049 0.812,-0.08049 1.12,0 0.308,0.08049 0.056,0.146345 -0.56,0.146345 -0.616,0 -0.868,-0.06586 -0.56,-0.146345 z m -158.56,-0.645248 c 0.396,-0.07628 1.044,-0.07628 1.44,0 0.396,0.07627 0.072,0.138678 -0.72,0.138678 -0.792,0 -1.116,-0.06241 -0.72,-0.138678 z"
         id="path197" />
      <path
         style="fill:#989898;stroke-width:0.32"
         d="m 315.60001,200.72479 c 0.836,-0.0659 2.204,-0.0659 3.04,0 0.836,0.0659 0.152,0.11986 -1.52,0.11986 -1.672,0 -2.356,-0.0539 -1.52,-0.11986 z m 76.8,0 c 0.836,-0.0659 2.204,-0.0659 3.04,0 0.836,0.0659 0.152,0.11986 -1.52,0.11986 -1.672,0 -2.356,-0.0539 -1.52,-0.11986 z m -135.68,-0.32126 c 1.012,-0.0635 2.668,-0.0635 3.68,0 1.012,0.0635 0.184,0.11546 -1.84,0.11546 -2.024,0 -2.852,-0.052 -1.84,-0.11546 z m 63.84,-110.400455 c 1.1,-0.06249 2.9,-0.06249 4,0 1.1,0.06249 0.2,0.113612 -2,0.113612 -2.2,0 -3.1,-0.05113 -2,-0.113612 z m 102.07287,0.006 c 0.56806,-0.07069 1.57606,-0.07185 2.24,-0.0026 0.66393,0.06927 0.19913,0.12711 -1.03287,0.128531 -1.232,0.0013 -1.7752,-0.05526 -1.20713,-0.125949 z m -159.35287,-0.64338 c 0.748,-0.06737 1.972,-0.06737 2.72,0 0.748,0.06737 0.136,0.122496 -1.36,0.122496 -1.496,0 -2.108,-0.05512 -1.36,-0.122496 z"
         id="path195" />
      <path
         style="fill:#5472f4;stroke-width:0.32"
         d="m 205.04001,189.52308 c 1.1,-0.0625 2.9,-0.0625 4,0 1.1,0.0625 0.2,0.11361 -2,0.11361 -2.2,0 -3.1,-0.0511 -2,-0.11361 z m 216.64573,-43.19499 c 0.57517,-0.0712 1.43917,-0.0697 1.92,0.003 0.48087,0.073 0.0102,0.13129 -1.04573,0.1295 -1.056,-0.002 -1.4494,-0.0615 -0.87427,-0.13276 z m -102.08573,-0.30002 c 0.22,-0.0888 0.58,-0.0888 0.8,0 0.22,0.0888 0.04,0.16141 -0.4,0.16141 -0.44,0 -0.62,-0.0726 -0.4,-0.16141 z m -209.26747,-0.34532 c 1.1069,-0.0627 2.8349,-0.0622 3.84,0.001 1.00511,0.0633 0.0995,0.11457 -2.01254,0.11394 -2.112,-6.4e-4 -2.93435,-0.0524 -1.82746,-0.11509 z m 99.52001,0 c 1.10689,-0.0627 2.83489,-0.0622 3.84,0.001 1.0051,0.0633 0.0995,0.11457 -2.01254,0.11394 -2.112,-6.4e-4 -2.93436,-0.0524 -1.82746,-0.11509 z m 87.66746,0.0253 c 0.22,-0.0888 0.58,-0.0888 0.8,0 0.22,0.0888 0.04,0.1614 -0.4,0.1614 -0.44,0 -0.62,-0.0726 -0.4,-0.1614 z"
         id="path193" />
      <path
         style="fill:#8c8c8c;stroke-width:0.32"
         d="m 308.24441,91.930377 c 0.48642,-0.07355 1.20642,-0.07159 1.6,0.0044 0.39358,0.07595 -0.004,0.136134 -0.8844,0.133734 -0.88,-0.0026 -1.20202,-0.06455 -0.7156,-0.138102 z"
         id="path191" />
      <path
         style="fill:#8a8a8a;stroke-width:0.32"
         d="m 363.61592,111.68 c 0,-0.968 0.06,-1.364 0.13331,-0.88 0.0733,0.484 0.0733,1.276 0,1.76 -0.0734,0.484 -0.13331,0.088 -0.13331,-0.88 z"
         id="path189" />
      <path
         style="fill:#4565f3;stroke-width:0.32"
         d="m 212.72001,189.52308 c 1.1,-0.0625 2.9,-0.0625 4,0 1.1,0.0625 0.2,0.11361 -2,0.11361 -2.2,0 -3.1,-0.0511 -2,-0.11361 z m 205.12573,-43.19499 c 0.57517,-0.0712 1.43917,-0.0697 1.92,0.003 0.48087,0.073 0.0102,0.13129 -1.04573,0.1295 -1.056,-0.002 -1.4494,-0.0615 -0.87427,-0.13276 z m -99.52573,-0.30002 c 0.22,-0.0888 0.58,-0.0888 0.8,0 0.22,0.0888 0.04,0.16141 -0.4,0.16141 -0.44,0 -0.62,-0.0726 -0.4,-0.16141 z M 102.32,145.68308 c 1.1,-0.0625 2.9,-0.0625 4,0 1.1,0.0625 0.2,0.11361 -2,0.11361 -2.2,0 -3.1,-0.0511 -2,-0.11361 z m 99.52001,0 c 1.1,-0.0625 2.9,-0.0625 4,0 1.1,0.0625 0.2,0.11361 -2,0.11361 -2.2,0 -3.1,-0.0511 -2,-0.11361 z m 94.08,0.025 c 0.22,-0.0888 0.58,-0.0888 0.8,0 0.22,0.0888 0.04,0.1614 -0.4,0.1614 -0.44,0 -0.62,-0.0726 -0.4,-0.1614 z"
         id="path187" />
      <path
         style="fill:#888888;stroke-width:0.32"
         d="m 309.52001,200.72479 c 0.836,-0.0659 2.204,-0.0659 3.04,0 0.836,0.0659 0.152,0.11986 -1.52,0.11986 -1.672,0 -2.356,-0.0539 -1.52,-0.11986 z m 77.12967,-3.2e-4 c 0.84131,-0.0661 2.13731,-0.0653 2.88,0.002 0.74268,0.0671 0.0543,0.12123 -1.52967,0.12025 -1.584,-9.6e-4 -2.19165,-0.0559 -1.35033,-0.12202 z m -122.39713,-0.32164 c 1.1069,-0.0627 2.8349,-0.0622 3.84,0.001 1.0051,0.0633 0.0995,0.11457 -2.01254,0.11394 -2.112,-6.4e-4 -2.93436,-0.0524 -1.82746,-0.11509 z M 328.73332,90.002403 c 1.19533,-0.06174 3.06733,-0.06128 4.16,9.6e-4 1.09267,0.0623 0.11469,0.112809 -2.17331,0.112249 -2.288,-6.4e-4 -3.18202,-0.05153 -1.98669,-0.113267 z m 89.73956,0.0067 c 0.56806,-0.07069 1.57606,-0.07185 2.24,-0.0026 0.66393,0.06927 0.19913,0.12711 -1.03287,0.128531 -1.232,0.0013 -1.7752,-0.05526 -1.20713,-0.125949 z m -160.30441,-0.64382 c 0.75265,-0.0676 1.90465,-0.06665 2.56,0.0022 0.65534,0.06876 0.0395,0.124067 -1.36846,0.122905 -1.408,-0.0013 -1.9442,-0.05742 -1.19154,-0.125021 z"
         id="path185" />
      <path
         style="fill:#3558f2;stroke-width:0.32"
         d="m 220.40001,189.52308 c 1.1,-0.0625 2.9,-0.0625 4,0 1.1,0.0625 0.2,0.11361 -2,0.11361 -2.2,0 -3.1,-0.0511 -2,-0.11361 z m 193.60573,-43.19499 c 0.57517,-0.0712 1.43917,-0.0697 1.92,0.003 0.48087,0.073 0.0102,0.13129 -1.04573,0.1295 -1.056,-0.002 -1.4494,-0.0615 -0.87427,-0.13276 z m -97.28573,-0.30002 c 0.22,-0.0888 0.58,-0.0888 0.8,0 0.22,0.0888 0.04,0.16141 -0.4,0.16141 -0.44,0 -0.62,-0.0726 -0.4,-0.16141 z M 94.652544,145.68275 c 1.106896,-0.0627 2.834896,-0.0622 3.84,0.001 1.005101,0.0633 0.09946,0.11457 -2.012541,0.11394 -2.112,-6.4e-4 -2.934358,-0.0524 -1.827459,-0.11509 z m 99.507466,3.2e-4 c 1.1,-0.0625 2.9,-0.0625 4,0 1.1,0.0625 0.2,0.11362 -2,0.11362 -2.2,0 -3.1,-0.0511 -2,-0.11362 z m 100.16,0.025 c 0.22,-0.0888 0.58,-0.0888 0.8,0 0.22,0.0888 0.04,0.1614 -0.4,0.1614 -0.44,0 -0.62,-0.0726 -0.4,-0.1614 z"
         id="path183" />
      <path
         style="fill:#7e7e7e;stroke-width:0.32"
         d="m 197.54501,221.92001 c 0.001,-1.232 0.0593,-1.69679 0.12853,-1.03287 0.0693,0.66393 0.0681,1.67193 -0.003,2.24 -0.0707,0.56808 -0.12737,0.0249 -0.12595,-1.20713 z"
         id="path181" />
      <path
         style="fill:#3154f1;stroke-width:0.32"
         d="m 147.35142,150.64 -2.23142,-2.32 2.32,2.23142 c 2.15482,2.07254 2.46615,2.40858 2.23142,2.40858 -0.0487,0 -1.09272,-1.044 -2.32,-2.32 z"
         id="path179" />
      <path
         style="fill:#767676;stroke-width:0.32"
         d="m 227.92001,244.24009 c 7.876,-0.0477 20.764,-0.0477 28.64,0 7.876,0.0477 1.432,0.0867 -14.32,0.0867 -15.752,0 -22.196,-0.039 -14.32,-0.0867 z m 168.50336,3e-5 c 6.04087,-0.0487 15.83287,-0.0487 21.76,6e-5 5.92717,0.0487 0.98464,0.0886 -10.98336,0.0886 -11.968,-3e-5 -16.81747,-0.0399 -10.77664,-0.0886 z m -45.94336,-108.7807 c 0.308,-0.0805 0.812,-0.0805 1.12,0 0.308,0.0805 0.056,0.14634 -0.56,0.14634 -0.616,0 -0.868,-0.0659 -0.56,-0.14634 z M 337.05332,90.002403 c 1.19533,-0.06174 3.06733,-0.06128 4.16,9.6e-4 1.09268,0.0623 0.11469,0.112809 -2.17331,0.112249 -2.288,-6.4e-4 -3.18202,-0.05153 -1.98669,-0.113267 z m 76.93956,0.0067 c 0.56806,-0.07069 1.57606,-0.07185 2.24,-0.0026 0.66393,0.06927 0.19913,0.12711 -1.03287,0.128531 -1.232,0.0013 -1.7752,-0.05526 -1.20713,-0.125949 z M 252.72001,89.365695 c 0.748,-0.06737 1.972,-0.06737 2.72,0 0.748,0.06737 0.136,0.122496 -1.36,0.122496 -1.496,0 -2.108,-0.05512 -1.36,-0.122496 z"
         id="path177" />
      <path
         style="fill:#264bf1;stroke-width:0.32"
         d="m 228.08001,189.52308 c 1.1,-0.0625 2.9,-0.0625 4,0 1.1,0.0625 0.2,0.11361 -2,0.11361 -2.2,0 -3.1,-0.0511 -2,-0.11361 z m 182.08573,-43.19499 c 0.57517,-0.0712 1.43917,-0.0697 1.92,0.003 0.48087,0.073 0.0102,0.13129 -1.04573,0.1295 -1.056,-0.002 -1.4494,-0.0615 -0.87427,-0.13276 z m -95.04573,-0.30002 c 0.22,-0.0888 0.58,-0.0888 0.8,0 0.22,0.0888 0.04,0.16141 -0.4,0.16141 -0.44,0 -0.62,-0.0726 -0.4,-0.16141 z M 86.972544,145.68275 c 1.106896,-0.0627 2.834896,-0.0622 3.84,0.001 1.005101,0.0633 0.09946,0.11457 -2.012541,0.11394 -2.112,-6.4e-4 -2.934359,-0.0524 -1.827459,-0.11509 z m 99.520006,0 c 1.10689,-0.0627 2.83489,-0.0622 3.84,0.001 1.0051,0.0633 0.0995,0.11457 -2.01254,0.11394 -2.112,-6.4e-4 -2.93436,-0.0524 -1.82746,-0.11509 z m 106.56746,0.0187 c 0.231,-0.0924 0.507,-0.0811 0.61333,0.0252 0.10634,0.10633 -0.0827,0.18196 -0.42,0.16807 -0.37278,-0.0154 -0.4486,-0.0912 -0.19333,-0.19333 z"
         id="path175" />
      <path
         style="fill:#163ef0;stroke-width:0.32"
         d="m 206.56001,189.43805 c -26.85988,-0.16824 -27.56606,-0.18842 -29.44,-0.84134 -3.89134,-1.35582 -4.18123,-1.59116 -6.83002,-5.54465 -3.74541,-5.59026 -4.71818,-8.28915 -5.07018,-14.0669 -0.23321,-3.82804 0.22065,-6.52492 1.74436,-10.365 2.19507,-5.53206 3.45925,-7.14987 8.23584,-10.53965 3.24677,-2.30413 1.75709,-2.2102 34.34558,-2.16567 32.72499,0.0447 29.89416,-0.16325 33.33442,2.44879 4.36018,3.31052 7.56298,7.90532 9.00261,12.91536 0.91049,3.16861 0.85372,10.81406 -0.10457,14.08102 -1.23083,4.19609 -4.60329,9.00505 -8.07023,11.50771 -2.37177,1.71211 -5.80023,2.91898 -8.00386,2.8175 -0.89317,-0.0411 -14.00795,-0.15236 -29.14395,-0.24717 z m 169.98602,-0.11442 c -2.31936,-0.5594 -7.12029,-4.05727 -9.0032,-6.55956 -1.76877,-2.35063 -3.2712,-5.52415 -4.32733,-9.14056 -0.63766,-2.18351 -0.71744,-3.00738 -0.57312,-5.92 0.2729,-5.50693 1.3345,-8.84095 4.61136,-14.48228 2.12029,-3.65016 3.4632,-4.82814 6.72109,-5.89557 l 2.82518,-0.92566 29.76,0.10142 29.76,0.1014 2.70666,0.77874 c 2.10938,0.60688 2.98035,1.0435 3.94691,1.97859 4.11219,3.97817 6.59495,8.74629 7.40125,14.21407 0.49603,3.36372 0.49123,3.48676 -0.3247,8.31979 -0.45552,2.69807 -1.01024,5.33767 -1.23274,5.86579 -1.42262,3.37676 -5.93434,8.33184 -9.77738,10.73817 l -1.76,1.10204 -29.6,0.0468 c -21.44653,0.0339 -30.02256,-0.0551 -31.13398,-0.32318 z M 79.945193,188.81275 c -1.174144,-0.31322 -3.051891,-1.08235 -4.172771,-1.70918 -1.655412,-0.92576 -2.374023,-1.60933 -3.828279,-3.64163 -4.045149,-5.65301 -4.481088,-6.76787 -5.697933,-14.57165 -0.583385,-3.74135 0.906538,-10.60517 3.215139,-14.81155 1.620429,-2.95251 3.509066,-4.54442 7.853716,-6.61981 l 3.391786,-1.62022 29.315509,0.0597 29.3155,0.0597 2.73107,1.14888 c 2.27755,0.95809 3.14681,1.55275 5.23459,3.58092 2.51794,2.44604 3.4472,3.96129 5.02391,8.19203 0.79982,2.14611 1.27258,5.87241 1.27258,10.03046 0,3.84837 -0.51837,5.59151 -3.32404,11.17793 -1.17082,2.33125 -1.85642,3.24817 -3.55883,4.75957 -1.15974,1.02963 -3.21754,2.48223 -4.57288,3.22801 l -2.46426,1.35597 -28.8,-0.0249 c -26.55064,-0.0229 -28.96673,-0.0693 -30.934807,-0.59433 z m 197.014817,-0.36812 c -1.232,-0.51757 -3.608,-1.92086 -5.28,-3.1184 l -3.04,-2.17735 -1.84869,-3.64202 c -1.01677,-2.00311 -2.06077,-4.55654 -2.32,-5.67429 -0.6503,-2.80408 -0.63109,-10.08357 0.0334,-12.64786 1.39961,-5.40126 4.35998,-9.58144 9.03794,-12.76199 4.54216,-3.08822 1.89479,-2.90051 34.61737,-2.4545 l 28.64,0.39036 3.15331,1.39259 c 3.9713,1.75382 6.09879,3.44515 8.16218,6.48883 1.90045,2.8033 2.91651,5.35704 3.85235,9.6822 0.88944,4.11085 0.61271,6.63759 -1.31897,12.04301 -1.27008,3.55409 -1.66336,4.27183 -3.79293,6.92236 -2.25555,2.80731 -2.52999,3.03212 -5.41594,4.43695 -1.672,0.81389 -3.688,1.61931 -4.48,1.78982 -0.87152,0.18763 -12.55674,0.30239 -29.6,0.29068 l -28.16,-0.0193 -2.24,-0.94105 z"
         id="path173" />
      <path
         style="fill:#163df0;stroke-width:0.32"
         d="m 472.83774,188.16889 c -3.74169,-2.09925 -5.32147,-3.57229 -7.83635,-7.30696 -2.93392,-4.35693 -3.04307,-4.78601 -3.17776,-12.49169 -0.11273,-6.44855 -0.0792,-6.93974 0.60074,-8.8 2.2647,-6.19608 6.84989,-11.37292 11.80205,-13.32487 1.59955,-0.63049 2.31088,-0.64537 30.85536,-0.64537 27.81843,0 29.30227,0.029 30.97603,0.60484 5.38618,1.85312 10.01318,6.0484 11.4287,10.36232 2.42701,7.39666 2.5897,15.15432 0.43773,20.87285 -1.42918,3.79792 -5.05331,8.16179 -8.56422,10.31233 -3.23824,1.98353 -2.36903,1.92845 -34.08,2.15936 l -28.96,0.21088 z"
         id="path171" />
      <path
         style="fill:#666666;stroke-width:0.32"
         d="m 345.21073,135.44372 c 0.92992,-0.0649 2.36992,-0.0642 3.2,0.002 0.83011,0.0657 0.0693,0.11873 -1.69072,0.1179 -1.76,-9.6e-4 -2.43917,-0.0546 -1.50928,-0.11942 z m 0.16259,-45.441317 c 1.19533,-0.06174 3.06733,-0.06128 4.16,9.6e-4 1.09268,0.0623 0.11469,0.112809 -2.17331,0.112249 -2.288,-6.4e-4 -3.18201,-0.05153 -1.98669,-0.113267 z m 64.45956,0.0067 c 0.56806,-0.07069 1.57606,-0.07185 2.24,-0.0026 0.66393,0.06927 0.19913,0.12711 -1.03287,0.128531 -1.232,0.0013 -1.7752,-0.05526 -1.20713,-0.125949 z m -162.22441,-0.64382 c 0.75265,-0.0676 1.90465,-0.06665 2.56,0.0022 0.65534,0.06876 0.0395,0.124067 -1.36846,0.122905 -1.408,-0.0013 -1.9442,-0.05742 -1.19154,-0.125021 z"
         id="path169" />
      <path
         style="fill:#545454;stroke-width:0.32"
         d="m 228.08001,135.76009 c 7.788,-0.0477 20.532,-0.0477 28.32,0 7.788,0.0477 1.416,0.0867 -14.16,0.0867 -15.576,0 -21.948,-0.039 -14.16,-0.0867 z m 110.73072,-0.31637 c 0.92992,-0.0649 2.36992,-0.0642 3.2,0.002 0.83011,0.0657 0.0693,0.11873 -1.69072,0.1179 -1.76,-9.6e-4 -2.43917,-0.0546 -1.50928,-0.11942 z M 286.49153,112.8 c 0.003,-0.88 0.0645,-1.20202 0.1381,-0.7156 0.0736,0.48642 0.0716,1.20642 -0.004,1.6 -0.0759,0.39358 -0.13613,-0.004 -0.13373,-0.8844 z M 405.35288,90.009049 c 0.56806,-0.07069 1.57606,-0.07185 2.24,-0.0026 0.66393,0.06927 0.19913,0.12711 -1.03287,0.128531 -1.232,0.0013 -1.7752,-0.05526 -1.20713,-0.125949 z M 242.16001,89.365695 c 0.748,-0.06737 1.972,-0.06737 2.72,0 0.748,0.06737 0.136,0.122496 -1.36,0.122496 -1.496,0 -2.108,-0.05512 -1.36,-0.122496 z"
         id="path167" />
      <path
         style="fill:#444444;stroke-width:0.32"
         d="m 332.41073,135.44372 c 0.92992,-0.0649 2.36992,-0.0642 3.2,0.002 0.83011,0.0657 0.0693,0.11873 -1.69072,0.1179 -1.76,-9.6e-4 -2.43917,-0.0546 -1.50928,-0.11942 z m 68.78215,-45.434671 c 0.56806,-0.07069 1.57606,-0.07185 2.24,-0.0026 0.66393,0.06927 0.19913,0.12711 -1.03287,0.128531 -1.232,0.0013 -1.7752,-0.05526 -1.20713,-0.125949 z M 237.04001,89.365695 c 0.748,-0.06737 1.972,-0.06737 2.72,0 0.748,0.06737 0.136,0.122496 -1.36,0.122496 -1.496,0 -2.108,-0.05512 -1.36,-0.122496 z"
         id="path165" />
      <path
         style="fill:#323232;stroke-width:0.32"
         d="m 326.01073,135.44372 c 0.92992,-0.0649 2.36992,-0.0642 3.2,0.002 0.83011,0.0657 0.0693,0.11873 -1.69072,0.1179 -1.76,-9.6e-4 -2.43917,-0.0546 -1.50928,-0.11942 z m 70.70215,-45.434671 c 0.56806,-0.07069 1.57606,-0.07185 2.24,-0.0026 0.66393,0.06927 0.19913,0.12711 -1.03287,0.128531 -1.232,0.0013 -1.7752,-0.05526 -1.20713,-0.125949 z M 231.60001,89.365695 c 0.748,-0.06737 1.972,-0.06737 2.72,0 0.748,0.06737 0.136,0.122496 -1.36,0.122496 -1.496,0 -2.108,-0.05512 -1.36,-0.122496 z"
         id="path163" />
      <path
         style="fill:#222222;stroke-width:0.32"
         d="m 319.93074,135.44372 c 0.92991,-0.0649 2.36991,-0.0642 3.19999,0.002 0.83011,0.0657 0.0693,0.11873 -1.69072,0.1179 -1.76,-9.6e-4 -2.43917,-0.0546 -1.50927,-0.11942 z m 72.62214,-45.434671 c 0.56806,-0.07069 1.57606,-0.07185 2.24,-0.0026 0.66393,0.06927 0.19913,0.12711 -1.03287,0.128531 -1.232,0.0013 -1.7752,-0.05526 -1.20713,-0.125949 z M 226.48001,89.365695 c 0.748,-0.06737 1.972,-0.06737 2.72,0 0.748,0.06737 0.136,0.122496 -1.36,0.122496 -1.496,0 -2.108,-0.05512 -1.36,-0.122496 z"
         id="path161" />
      <path
         style="fill:#161616;stroke-width:0.32"
         d="m 295.75425,116.16 c 0,-0.616 0.0659,-0.868 0.14635,-0.56 0.0805,0.308 0.0805,0.812 0,1.12 -0.0805,0.308 -0.14635,0.056 -0.14635,-0.56 z"
         id="path159" />
      <path
         style="fill:#101010;stroke-width:0.32"
         d="m 313.53074,135.44372 c 0.9299,-0.0649 2.3699,-0.0642 3.2,0.002 0.8301,0.0657 0.0693,0.11873 -1.69073,0.1179 -1.76,-9.6e-4 -2.43917,-0.0546 -1.50927,-0.11942 z m 74.54214,-45.434671 c 0.56806,-0.07069 1.57606,-0.07185 2.24,-0.0026 0.66393,0.06927 0.19913,0.12711 -1.03287,0.128531 -1.232,0.0013 -1.7752,-0.05526 -1.20713,-0.125949 z M 221.04001,89.365695 c 0.748,-0.06737 1.972,-0.06737 2.72,0 0.748,0.06737 0.136,0.122496 -1.36,0.122496 -1.496,0 -2.108,-0.05512 -1.36,-0.122496 z"
         id="path157" />
      <path
         style="fill:#000000;stroke-width:0.32"
         d="m 307.48309,244.01554 c -4.47187,-1.23306 -7.91129,-6.07137 -9.9064,-13.93553 -0.62095,-2.44763 -0.67228,-3.28078 -0.5126,-8.32 0.14783,-4.66509 0.30684,-6.02739 0.95247,-8.16 1.16477,-3.84746 2.03814,-5.82815 3.46987,-7.86922 1.37001,-1.95308 2.64564,-2.95539 5.19426,-4.08131 1.54874,-0.6842 1.7294,-0.68947 23.61564,-0.68947 h 22.05495 l 1.92883,1.36 c 2.18953,1.54383 3.86582,4.01859 5.79817,8.56 2.05165,4.82178 2.10109,5.04099 2.31428,10.2594 0.18675,4.57166 0.1384,5.26741 -0.59053,8.49653 -1.40522,6.22497 -3.64691,10.19744 -7.35907,13.0407 l -2.35444,1.80337 -21.56425,-0.0286 c -16.39442,-0.0218 -21.91834,-0.12625 -23.04118,-0.43585 z m -96.61831,-0.455 c -3.06737,-0.69063 -4.84249,-1.74751 -6.9086,-4.11326 -1.80616,-2.0681 -3.1908,-4.5957 -4.57685,-8.35485 -2.62927,-7.13097 -1.96958,-15.47411 1.64535,-20.80885 2.35838,-3.48037 5.72551,-6.98593 7.88419,-8.20833 2.35669,-1.33451 4.80959,-1.43959 33.55462,-1.43736 l 27.26348,0.002 2.5708,0.81212 c 4.71143,1.48834 8.36296,5.08552 11.28117,11.11326 2.46333,5.08815 2.62515,10.96192 0.50456,18.31462 -0.85096,2.95054 -1.28943,3.8872 -2.7103,5.78975 -0.9323,1.24836 -2.83061,3.22026 -4.21847,4.382 -3.96882,3.32218 -1.58252,3.11288 -35.12091,3.08042 -25.83276,-0.025 -28.99917,-0.0831 -31.16904,-0.57163 z m 172.33523,-0.39776 c -4.09821,-1.73851 -7.06793,-6.03788 -8.48333,-12.28163 -0.66153,-2.91832 -0.71033,-3.74621 -0.55651,-9.44 0.16346,-6.05023 0.19911,-6.31737 1.1657,-8.73321 1.46109,-3.65167 2.82134,-6.25423 4.2383,-8.10909 0.99271,-1.29944 1.71885,-1.84913 3.48762,-2.64 l 2.23385,-0.99884 h 21.62308 21.62307 l 2.14422,1.49985 c 5.26125,3.68021 8.68032,12.12315 8.68298,21.44156 0,3.18487 -0.12432,3.99494 -1.13104,7.31624 -0.73181,2.4143 -1.72368,4.76859 -2.80528,6.65859 -1.5479,2.70478 -1.8632,3.04958 -4.20998,4.60376 l -2.53677,1.68 -21.61795,-0.0235 -21.61796,-0.0235 -2.24,-0.95024 z m 0.96,-107.71172 c -2.07785,-0.62636 -3.95837,-2.18257 -6.05488,-5.01068 -2.87664,-3.88049 -3.57574,-5.41873 -4.52675,-9.96038 -0.82141,-3.92268 -0.85933,-4.47283 -0.66515,-9.64375 l 0.20595,-5.48376 1.57139,-4.34284 c 1.64733,-4.552633 3.23648,-7.113772 5.64685,-9.100598 2.04685,-1.687184 2.74186,-1.731526 26.40247,-1.684541 l 21.723,0.04314 1.84103,0.814192 c 1.95155,0.863062 5.9927,4.616499 6.93753,6.443577 0.26951,0.521168 1.01799,2.65916 1.6633,4.75108 l 1.17328,3.8035 0.0163,6.4 c 0.0128,5.05023 -0.10742,6.97366 -0.5703,9.12 -0.68423,3.17271 -2.52839,7.08775 -4.14708,8.80407 -0.62531,0.663 -1.13689,1.31018 -1.13689,1.43817 0,0.34172 -2.12877,1.69256 -4.73789,3.00648 L 427.21598,136 406.48801,135.9667 c -17.47904,-0.0281 -20.97878,-0.10892 -22.328,-0.51563 z m 45.05274,-2.05284 c 0.74099,-0.37499 1.72352,-0.94673 2.18339,-1.27055 0.45987,-0.32382 0.90573,-0.51914 0.99082,-0.43406 0.2672,0.26721 2.77971,-3.32339 3.94573,-5.6388 1.73875,-3.4527 2.13529,-5.88684 2.15916,-13.25481 0.0198,-6.07658 -0.024,-6.55362 -0.86412,-9.44 -0.48669,-1.672 -1.23783,-3.786138 -1.66919,-4.69809 -1.00045,-2.11512 -3.97446,-5.10369 -6.03853,-6.068087 l -1.6,-0.747568 -21.92,-0.0013 c -14.72982,-9.6e-4 -22.33987,0.112285 -23.2,0.345066 -1.34669,0.364454 -3.44905,2.174579 -4.79069,4.124784 -0.42576,0.618883 -1.43452,2.925239 -2.24166,5.125235 l -1.46758,4 -0.19648,5.44 c -0.18404,5.09432 -0.14186,5.70035 0.66342,9.53708 0.90374,4.30585 1.37635,5.3367 4.28339,9.34292 1.61245,2.22214 2.30515,2.85094 4.0696,3.69421 1.22061,0.58335 2.27933,0.61207 22.81274,0.61877 21.34474,0.007 21.54451,9.6e-4 22.88,-0.67476 z m -218.97274,1.67835 c -0.968,-0.31297 -2.336,-0.86979 -3.04,-1.2374 -2.36963,-1.23735 -7.31868,-7.05286 -8.45466,-9.93488 -1.95096,-4.94961 -2.69102,-14.10047 -1.50621,-18.62429 1.16122,-4.43371 3.08508,-7.669284 6.49148,-10.917392 2.41563,-2.303393 6.16789,-3.918701 10.66939,-4.593069 0.792,-0.11865 13.63644,-0.199325 28.5432,-0.17928 l 27.1032,0.03644 2.22897,0.758125 c 2.6946,0.916493 6.51545,3.430346 8.30654,5.465127 1.69074,1.92079 3.28468,4.836159 4.57886,8.374879 0.97241,2.65889 1.03715,3.11175 1.16632,8.15765 0.12549,4.90258 0.0772,5.52177 -0.58623,7.52 -1.19993,3.61403 -2.35202,5.86035 -4.70609,9.1759 l -2.24248,3.15839 -3.46572,1.72161 -3.46573,1.72162 -29.93042,-0.0172 c -27.78473,-0.016 -30.0566,-0.058 -31.69042,-0.58622 z m 64.56664,-2.55975 c 3.06366,-1.53742 3.1473,-1.60997 5.07256,-4.4 2.2987,-3.33121 3.2883,-5.23573 4.26825,-8.21434 0.65484,-1.99043 0.70476,-2.63655 0.58101,-7.52 -0.12323,-4.86255 -0.21516,-5.55807 -1.02339,-7.74248 -1.09431,-2.95759 -2.82569,-6.152538 -4.2334,-7.811988 -1.44136,-1.69911 -5.28419,-4.20439 -7.66786,-4.99896 -1.91913,-0.639715 -2.49521,-0.650173 -30.4,-0.551805 l -28.44381,0.100266 -2.40341,0.81287 c -3.47038,1.173735 -5.05411,2.219684 -7.33463,4.84402 -2.17091,2.498201 -3.48231,4.978807 -4.36891,8.264117 -1.20689,4.47214 -0.45845,13.88972 1.45944,18.36397 1.18584,2.76644 5.53653,7.77679 7.84751,9.03736 2.40009,1.30917 2.71599,1.32185 33.68581,1.35154 l 29.84582,0.0286 3.11501,-1.56319 z m 31.81026,2.33105 c -2.90477,-0.96506 -5.46638,-3.56939 -7.51509,-7.64039 -2.16852,-4.30912 -2.78372,-6.78305 -3.18299,-12.79996 -0.39406,-5.93824 -0.10018,-8.48597 1.42155,-12.32413 2.33567,-5.891112 4.50065,-8.8778 7.75423,-10.697301 l 2.04939,-1.146086 h 22.44075 c 22.23347,0 22.45321,0.0063 23.788,0.678972 1.37949,0.69521 3.74345,2.931028 5.58441,5.281693 2.48093,3.16776 4.17444,8.569702 4.45152,14.199332 0.36996,7.51578 -0.65084,12.67525 -3.43497,17.3616 -1.74103,2.93056 -3.34986,4.66191 -5.82899,6.27275 l -1.98471,1.28959 -21.76,0.098 c -21.3859,0.0964 -21.79478,0.0865 -23.7831,-0.5741 z m 47.01616,-2.28888 c 2.34221,-1.56617 4.01453,-3.54391 5.63529,-6.66449 1.82455,-3.51288 2.30903,-5.69117 2.5354,-11.39923 0.29145,-7.35011 -0.87268,-12.80968 -3.57348,-16.758685 -0.61065,-0.892883 -1.11027,-1.789533 -1.11027,-1.99256 0,-0.484953 -3.07504,-2.915642 -4.38973,-3.469904 -0.8334,-0.35136 -5.24284,-0.434118 -23.13062,-0.434118 h -22.10093 l -1.50936,0.772352 c -2.7715,1.418205 -4.592,3.81472 -6.72616,8.854355 -1.86317,4.39974 -2.10459,5.96616 -1.84538,11.97329 0.25355,5.87583 1.02959,9.22485 3.07728,13.28 1.41597,2.80414 4.35484,5.88939 6.25492,6.56648 1.02024,0.36356 5.27883,0.44783 23.16998,0.45846 l 21.92,0.013 1.79306,-1.19898 z"
         id="path155" />
    </g>
  </g>
</svg>
