<?xml version="1.0" encoding="UTF-8" standalone="no"?>
<!-- Created with Inkscape (http://www.inkscape.org/) -->

<svg
   version="1.1"
   id="svg9"
   width="614.40002"
   height="345.60001"
   viewBox="0 0 614.40002 345.60001"
   sodipodi:docname="logo.svg"
   inkscape:version="1.1.1 (3bf5ae0d25, 2021-09-20)"
   xmlns:inkscape="http://www.inkscape.org/namespaces/inkscape"
   xmlns:sodipodi="http://sodipodi.sourceforge.net/DTD/sodipodi-0.dtd"
   xmlns="http://www.w3.org/2000/svg"
   xmlns:svg="http://www.w3.org/2000/svg">
  <defs
     id="defs13" />
  <sodipodi:namedview
     id="namedview11"
     pagecolor="#ffffff"
     bordercolor="#666666"
     borderopacity="1.0"
     inkscape:pageshadow="2"
     inkscape:pageopacity="0.0"
     inkscape:pagecheckerboard="0"
     showgrid="false"
     inkscape:zoom="1.4380787"
     inkscape:cx="262.50302"
     inkscape:cy="175.58149"
     inkscape:window-width="1366"
     inkscape:window-height="705"
     inkscape:window-x="-8"
     inkscape:window-y="-8"
     inkscape:window-maximized="1"
     inkscape:current-layer="g15" />
  <g
     inkscape:groupmode="layer"
     inkscape:label="Image"
     id="g15">
    <g
       id="g171"
       transform="matrix(1.1724927,0,0,1.3681326,-44.865237,-59.851432)">
      <path
         style="fill:#f6f6f6;stroke-width:0.32"
         d="m 311.12001,229.53942 c 0.308,-0.0805 0.812,-0.0805 1.12,0 0.308,0.0805 0.056,0.14635 -0.56,0.14635 -0.616,0 -0.868,-0.0659 -0.56,-0.14635 z m -75.52,-39.05463 c 0.836,-0.0659 2.204,-0.0659 3.04,0 0.836,0.0659 0.152,0.11986 -1.52,0.11986 -1.672,0 -2.356,-0.0539 -1.52,-0.11986 z m 82.56609,0.0135 c 0.31135,-0.0811 0.74335,-0.0758 0.96,0.0119 0.21665,0.0876 -0.0381,0.15404 -0.56609,0.14751 -0.528,-0.007 -0.70526,-0.0782 -0.39391,-0.15937 z m 81.11391,-5.13586 c 1.276,-0.0607 3.364,-0.0607 4.64,0 1.276,0.0607 0.232,0.11044 -2.32,0.11044 -2.552,0 -3.596,-0.0497 -2.32,-0.11044 z m -151.5156,-0.31202 c 0.48642,-0.0736 1.20642,-0.0716 1.6,0.004 0.39358,0.076 -0.004,0.13614 -0.8844,0.13374 -0.88,-0.003 -1.20202,-0.0645 -0.7156,-0.13811 z m 39.9956,-0.003 c 0.66,-0.069 1.74,-0.069 2.4,0 0.66,0.069 0.12,0.12553 -1.2,0.12553 -1.32,0 -1.86,-0.0565 -1.2,-0.12553 z M 167.76441,146.3309 c 0.48641,-0.0736 1.20641,-0.0716 1.6,0.004 0.39358,0.076 -0.004,0.13614 -0.8844,0.13374 -0.88,-0.003 -1.20202,-0.0646 -0.7156,-0.13811 z m 48,-0.32 c 0.48642,-0.0736 1.20642,-0.0716 1.6,0.004 0.39358,0.076 -0.004,0.13614 -0.8844,0.13374 -0.88,-0.003 -1.20202,-0.0646 -0.7156,-0.13811 z m 251.83561,3.2e-4 c 0.484,-0.0733 1.276,-0.0733 1.76,0 0.484,0.0733 0.088,0.13331 -0.88,0.13331 -0.968,0 -1.364,-0.06 -0.88,-0.13331 z m -135.52001,-5.43664 c 0.396,-0.0763 1.044,-0.0763 1.44,0 0.396,0.0763 0.072,0.13868 -0.72,0.13868 -0.792,0 -1.116,-0.0624 -0.72,-0.13868 z m 52.48375,-6.4e-4 c 0.39804,-0.0765 0.97404,-0.0736 1.28,0.006 0.30592,0.0801 -0.0198,0.14272 -0.72375,0.13917 -0.704,-0.004 -0.95433,-0.0691 -0.55625,-0.14563 z m -113.12375,-3.52653 c 0.66,-0.069 1.74,-0.069 2.4,0 0.66,0.069 0.12,0.12553 -1.2,0.12553 -1.32,0 -1.86,-0.0565 -1.2,-0.12553 z m -13.76,-32 c 0.66,-0.069 1.74,-0.069 2.4,0 0.66,0.069 0.12,0.12553 -1.2,0.12553 -1.32,0 -1.86,-0.0565 -1.2,-0.12553 z m 54.24,0.0212 c 0.22,-0.0888 0.58,-0.0888 0.8,0 0.22,0.0888 0.04,0.1614 -0.4,0.1614 -0.44,0 -0.62,-0.0726 -0.4,-0.1614 z m 69.76,0 c 0.22,-0.0888 0.58,-0.0888 0.8,0 0.22,0.0888 0.04,0.1614 -0.4,0.1614 -0.44,0 -0.62,-0.0726 -0.4,-0.1614 z m -21.1,-0.32667 c 0.23101,-0.0924 0.50701,-0.0811 0.61335,0.0252 0.10633,0.10633 -0.0827,0.18196 -0.42,0.16807 -0.3728,-0.0154 -0.44861,-0.0912 -0.19335,-0.19333 z m -112.18,-3.21452 c 0.66,-0.069 1.74,-0.069 2.4,0 0.66,0.069 0.12,0.12553 -1.2,0.12553 -1.32,0 -1.86,-0.0565 -1.2,-0.12553 z m 66.88609,0.0114 c 0.31135,-0.0811 0.74335,-0.0758 0.96,0.0119 0.21665,0.0877 -0.0381,0.15404 -0.56609,0.14752 -0.528,-0.007 -0.70526,-0.0782 -0.39391,-0.15937 z m 63.51391,0.01 c 0.22,-0.0888 0.58,-0.0888 0.8,0 0.22,0.0888 0.04,0.1614 -0.4,0.1614 -0.44,0 -0.62,-0.0726 -0.4,-0.1614 z"
         id="path221" />
      <path
         style="fill:#f5f5f5;stroke-width:0.32"
         d="m 195.52001,150.88 c 0.59705,-0.616 1.15754,-1.12 1.24554,-1.12 0.088,0 -0.32849,0.504 -0.92554,1.12 -0.59705,0.616 -1.15755,1.12 -1.24555,1.12 -0.088,0 0.3285,-0.504 0.92555,-1.12 z m 90.53578,-43.6 -0.77578,-0.88 0.88,0.77578 c 0.82249,0.72509 1.02675,0.98422 0.77578,0.98422 -0.0573,0 -0.45332,-0.396 -0.88,-0.88 z"
         id="path219" />
      <path
         style="fill:#eeeeee;stroke-width:0.32"
         d="m 309.2061,229.53825 c 0.31135,-0.0811 0.74335,-0.0758 0.96,0.0119 0.21665,0.0877 -0.0381,0.15404 -0.56609,0.14752 -0.528,-0.007 -0.70526,-0.0782 -0.39391,-0.15937 z m -67.52609,-39.05346 c 0.836,-0.0659 2.204,-0.0659 3.04,0 0.836,0.0659 0.152,0.11986 -1.52,0.11986 -1.672,0 -2.356,-0.0539 -1.52,-0.11986 z m 74.24,0.0146 c 0.308,-0.0805 0.812,-0.0805 1.12,0 0.308,0.0805 0.056,0.14634 -0.56,0.14634 -0.616,0 -0.868,-0.0658 -0.56,-0.14634 z m 74.08,-5.13702 c 1.276,-0.0607 3.364,-0.0607 4.64,0 1.276,0.0607 0.232,0.11044 -2.32,0.11044 -2.552,0 -3.596,-0.0497 -2.32,-0.11044 z m -145.1156,-0.31202 c 0.48642,-0.0736 1.20642,-0.0716 1.6,0.004 0.39358,0.076 -0.004,0.13613 -0.8844,0.13373 -0.88,-0.003 -1.20202,-0.0645 -0.7156,-0.1381 z m 47.50846,-0.001 c 0.56808,-0.0707 1.57608,-0.0719 2.24,-0.003 0.66393,0.0693 0.19914,0.12711 -1.03286,0.12853 -1.232,0.001 -1.77521,-0.0553 -1.20714,-0.12595 z M 164.56441,146.33038 c 0.48641,-0.0736 1.20641,-0.0716 1.6,0.004 0.39358,0.076 -0.004,0.13614 -0.8844,0.13374 -0.88,-0.003 -1.20202,-0.0646 -0.7156,-0.13811 z m 48.32,-0.32 c 0.48642,-0.0736 1.20642,-0.0716 1.6,0.004 0.39358,0.076 -0.004,0.13614 -0.8844,0.13374 -0.88,-0.003 -1.20202,-0.0646 -0.7156,-0.13811 z m 251.04133,-0.002 c 0.57517,-0.0712 1.43917,-0.0697 1.92,0.003 0.48087,0.073 0.0102,0.13129 -1.04572,0.12949 -1.056,-0.002 -1.44941,-0.0615 -0.87428,-0.13275 z m -134.72573,-5.43392 c 0.396,-0.0763 1.044,-0.0763 1.44,0 0.396,0.0763 0.072,0.13868 -0.72,0.13868 -0.792,0 -1.116,-0.0624 -0.72,-0.13868 z m 52.48,0 c 0.396,-0.0763 1.044,-0.0763 1.44,0 0.396,0.0763 0.072,0.13868 -0.72,0.13868 -0.792,0 -1.116,-0.0624 -0.72,-0.13868 z M 266.79287,137.0491 c 0.56808,-0.0707 1.57608,-0.0719 2.24,-0.003 0.66393,0.0693 0.19914,0.12711 -1.03286,0.12853 -1.232,0.001 -1.77521,-0.0553 -1.20714,-0.12595 z m -4.48,-32 c 0.56808,-0.0707 1.57608,-0.0719 2.24,-0.003 0.66393,0.0693 0.19914,0.12711 -1.03286,0.12853 -1.232,0.001 -1.77521,-0.0553 -1.20714,-0.12595 z m 48.00714,0.019 c 0.22,-0.0888 0.58,-0.0888 0.8,0 0.22,0.0888 0.04,0.1614 -0.4,0.1614 -0.44,0 -0.62,-0.0726 -0.4,-0.1614 z m 72.64,0 c 0.22,-0.0888 0.58,-0.0888 0.8,0 0.22,0.0888 0.04,0.1614 -0.4,0.1614 -0.44,0 -0.62,-0.0726 -0.4,-0.1614 z m -21.12,-0.32 c 0.22,-0.0888 0.58,-0.0888 0.8,0 0.22,0.0888 0.04,0.1614 -0.4,0.1614 -0.44,0 -0.62,-0.0726 -0.4,-0.1614 z m -118.08714,-3.21906 c 0.56808,-0.0707 1.57608,-0.0718 2.24,-0.003 0.66393,0.0693 0.19914,0.12711 -1.03286,0.12853 -1.232,10e-4 -1.77521,-0.0553 -1.20714,-0.12595 z m 73.28714,0.019 c 0.22,-0.0888 0.58,-0.0888 0.8,0 0.22,0.0888 0.04,0.1614 -0.4,0.1614 -0.44,0 -0.62,-0.0726 -0.4,-0.1614 z m 60.5,-0.007 c 0.23101,-0.0924 0.50701,-0.0811 0.61335,0.0252 0.10633,0.10633 -0.0827,0.18196 -0.42,0.16807 -0.3728,-0.0154 -0.44861,-0.0912 -0.19335,-0.19333 z"
         id="path217" />
      <path
         style="fill:#e6e6e6;stroke-width:0.32"
         d="m 307.2861,229.53825 c 0.31135,-0.0811 0.74335,-0.0758 0.96,0.0119 0.21665,0.0877 -0.0381,0.15404 -0.56609,0.14752 -0.528,-0.007 -0.70526,-0.0782 -0.39391,-0.15937 z m -59.52609,-39.05346 c 0.836,-0.0659 2.204,-0.0659 3.04,0 0.836,0.0659 0.152,0.11986 -1.52,0.11986 -1.672,0 -2.356,-0.0539 -1.52,-0.11986 z m 66.24,0.0146 c 0.308,-0.0805 0.812,-0.0805 1.12,0 0.308,0.0805 0.056,0.14634 -0.56,0.14634 -0.616,0 -0.868,-0.0658 -0.56,-0.14634 z m 66.72,-5.13702 c 1.276,-0.0607 3.364,-0.0607 4.64,0 1.276,0.0607 0.232,0.11044 -2.32,0.11044 -2.552,0 -3.596,-0.0497 -2.32,-0.11044 z m -139.0356,-0.31202 c 0.48642,-0.0736 1.20642,-0.0716 1.6,0.004 0.39358,0.076 -0.004,0.13613 -0.8844,0.13373 -0.88,-0.003 -1.20202,-0.0645 -0.7156,-0.1381 z m 55.3556,-0.003 c 0.66,-0.069 1.74,-0.069 2.4,0 0.66,0.069 0.12,0.12553 -1.2,0.12553 -1.32,0 -1.86,-0.0565 -1.2,-0.12553 z M 140.866,181.84303 c 1.18031,-0.0614 3.19631,-0.0618 4.48,-9.6e-4 1.2837,0.0609 0.318,0.11113 -2.146,0.11162 -2.464,6.4e-4 -3.5143,-0.0493 -2.334,-0.11071 z m 72.65841,0.007 c 0.48642,-0.0736 1.20642,-0.0716 1.6,0.004 0.39358,0.076 -0.004,0.13614 -0.8844,0.13374 -0.88,-0.003 -1.20202,-0.0645 -0.7156,-0.13811 z m -80.64001,-32.32 c 0.48642,-0.0736 1.20642,-0.0716 1.6,0.004 0.39359,0.076 -0.004,0.13613 -0.8844,0.13373 -0.88,-0.003 -1.20201,-0.0646 -0.7156,-0.1381 z m 95.68001,0 c 0.48642,-0.0736 1.20642,-0.0716 1.6,0.004 0.39358,0.076 -0.004,0.13613 -0.8844,0.13373 -0.88,-0.003 -1.20202,-0.0646 -0.7156,-0.1381 z m 68.4756,-0.004 c 0.66,-0.069 1.74,-0.069 2.4,0 0.66,0.069 0.12,0.12553 -1.2,0.12553 -1.32,0 -1.86,-0.0565 -1.2,-0.12553 z m 83.84,-0.002 c 0.836,-0.0659 2.204,-0.0659 3.04,0 0.836,0.0659 0.152,0.11986 -1.52,0.11986 -1.672,0 -2.356,-0.0539 -1.52,-0.11986 z m 101.92573,0.003 c 0.57517,-0.0712 1.43917,-0.0697 1.92,0.003 0.48087,0.073 0.0102,0.13129 -1.04572,0.1295 -1.056,-0.002 -1.44941,-0.0615 -0.87428,-0.13276 z m -321.44133,-3.19757 c 0.48641,-0.0736 1.20641,-0.0716 1.6,0.004 0.39358,0.076 -0.004,0.13614 -0.8844,0.13374 -0.88,-0.003 -1.20202,-0.0646 -0.7156,-0.13811 z m 48.32,-0.32 c 0.48642,-0.0736 1.20642,-0.0716 1.6,0.004 0.39358,0.076 -0.004,0.13614 -0.8844,0.13374 -0.88,-0.003 -1.20202,-0.0646 -0.7156,-0.13811 z m 250.40133,-0.002 c 0.57517,-0.0712 1.43917,-0.0697 1.92,0.003 0.48087,0.073 0.0102,0.13129 -1.04572,0.12949 -1.05601,-0.002 -1.44941,-0.0615 -0.87428,-0.13275 z m -133.76573,-5.43392 c 0.396,-0.0763 1.044,-0.0763 1.44,0 0.396,0.0763 0.072,0.13868 -0.72,0.13868 -0.792,0 -1.116,-0.0624 -0.72,-0.13868 z m 52.48,0 c 0.396,-0.0763 1.044,-0.0763 1.44,0 0.396,0.0763 0.072,0.13868 -0.72,0.13868 -0.792,0 -1.116,-0.0624 -0.72,-0.13868 z m -116.64,-3.52728 c 0.66,-0.069 1.74,-0.069 2.4,0 0.66,0.069 0.12,0.12552 -1.2,0.12552 -1.32,0 -1.86,-0.0565 -1.2,-0.12552 z m 4.8,-32 c 0.66,-0.069 1.74,-0.069 2.4,0 0.66,0.069 0.12,0.12552 -1.2,0.12552 -1.32,0 -1.86,-0.0565 -1.2,-0.12552 z m 41.76,0.0212 c 0.22,-0.0888 0.58,-0.0888 0.8,0 0.22,0.0888 0.04,0.16141 -0.4,0.16141 -0.44,0 -0.62,-0.0726 -0.4,-0.16141 z m 75.86,-0.007 c 0.23101,-0.0924 0.50701,-0.0811 0.61335,0.0252 0.10633,0.10633 -0.0827,0.18196 -0.42,0.16807 -0.3728,-0.0154 -0.44861,-0.0912 -0.19335,-0.19333 z m -21.12,-0.32 c 0.23101,-0.0924 0.50701,-0.0811 0.61335,0.0252 0.10633,0.10633 -0.0827,0.18196 -0.42,0.16807 -0.3728,-0.0154 -0.44861,-0.0912 -0.19335,-0.19333 z m -124.34,-3.21458 c 0.66,-0.069 1.74,-0.069 2.4,0 0.66,0.069 0.12,0.12553 -1.2,0.12553 -1.32,0 -1.86,-0.0565 -1.2,-0.12553 z m 79.52,0.0212 c 0.22,-0.0888 0.58,-0.0888 0.8,0 0.22,0.0888 0.04,0.1614 -0.4,0.1614 -0.44,0 -0.62,-0.0726 -0.4,-0.1614 z m 57.28,0 c 0.22,-0.0888 0.58,-0.0888 0.8,0 0.22,0.0888 0.04,0.1614 -0.4,0.1614 -0.44,0 -0.62,-0.0726 -0.4,-0.1614 z"
         id="path215" />
      <path
         style="fill:#dfdfdf;stroke-width:0.32"
         d="m 349.52072,209.12001 c 0.004,-0.704 0.0691,-0.95432 0.14563,-0.55627 0.0765,0.39805 0.0736,0.97405 -0.006,1.28 -0.0801,0.30595 -0.14272,-0.0197 -0.13917,-0.72373 z"
         id="path213" />
      <path
         style="fill:#dddddd;stroke-width:0.32"
         d="m 334.32001,229.22808 c 0.22,-0.0888 0.58,-0.0888 0.8,0 0.22,0.0888 0.04,0.1614 -0.4,0.1614 -0.44,0 -0.62,-0.0726 -0.4,-0.1614 z m -80.48,-38.74329 c 0.836,-0.0659 2.204,-0.0659 3.04,0 0.836,0.0659 0.152,0.11986 -1.52,0.11986 -1.672,0 -2.356,-0.0539 -1.52,-0.11986 z m 58.24609,0.0135 c 0.31135,-0.0811 0.74335,-0.0758 0.96,0.0119 0.21665,0.0876 -0.0381,0.15404 -0.56609,0.14751 -0.528,-0.007 -0.70526,-0.0782 -0.39391,-0.15937 z m 59.35391,-5.13586 c 1.276,-0.0607 3.364,-0.0607 4.64,0 1.276,0.0607 0.232,0.11044 -2.32,0.11044 -2.552,0 -3.596,-0.0497 -2.32,-0.11044 z m -132.9556,-0.31202 c 0.48642,-0.0736 1.20642,-0.0716 1.6,0.004 0.39358,0.076 -0.004,0.13614 -0.8844,0.13374 -0.88,-0.003 -1.20202,-0.0645 -0.7156,-0.13811 z m 63.18846,-0.001 c 0.56808,-0.0707 1.57608,-0.0719 2.24,-0.003 0.66393,0.0693 0.19914,0.12711 -1.03286,0.12853 -1.232,0.001 -1.77521,-0.0553 -1.20714,-0.12595 z M 131.906,181.84303 c 1.18031,-0.0614 3.19631,-0.0618 4.48,-9.6e-4 1.2837,0.0609 0.318,0.11113 -2.146,0.11162 -2.464,6.4e-4 -3.5143,-0.0493 -2.334,-0.11071 z m 84.81841,0.007 c 0.48642,-0.0736 1.20642,-0.0716 1.6,0.004 0.39358,0.076 -0.004,0.13614 -0.8844,0.13374 -0.88,-0.003 -1.20202,-0.0645 -0.7156,-0.13811 z m -80.64001,-32.32 c 0.48642,-0.0736 1.20642,-0.0716 1.6,0.004 0.39359,0.076 -0.004,0.13613 -0.8844,0.13373 -0.88,-0.003 -1.20201,-0.0646 -0.7156,-0.1381 z m 95.68001,0 c 0.48642,-0.0736 1.20642,-0.0716 1.6,0.004 0.39358,0.076 -0.004,0.13613 -0.8844,0.13373 -0.88,-0.003 -1.20202,-0.0646 -0.7156,-0.1381 z m 70.0756,-0.004 c 0.66,-0.069 1.74,-0.069 2.4,0 0.66,0.069 0.12,0.12553 -1.2,0.12553 -1.32,0 -1.86,-0.0565 -1.2,-0.12553 z m 85.12,-0.002 c 0.836,-0.0659 2.204,-0.0659 3.04,0 0.836,0.0659 0.152,0.11986 -1.52,0.11986 -1.672,0 -2.356,-0.0539 -1.52,-0.11986 z m 99.68573,0.003 c 0.57517,-0.0712 1.43917,-0.0697 1.92,0.003 0.48087,0.073 0.0102,0.13129 -1.04572,0.1295 -1.056,-0.002 -1.44941,-0.0615 -0.87428,-0.13276 z m -328.48133,-3.19757 c 0.48641,-0.0736 1.20641,-0.0716 1.6,0.004 0.39358,0.076 -0.004,0.13614 -0.8844,0.13374 -0.88,-0.003 -1.20202,-0.0646 -0.7156,-0.13811 z m 48.32,-0.32 c 0.48642,-0.0736 1.20642,-0.0716 1.6,0.004 0.39358,0.076 -0.004,0.13614 -0.8844,0.13374 -0.88,-0.003 -1.20202,-0.0646 -0.7156,-0.13811 z m 249.76133,-0.002 c 0.57517,-0.0712 1.43917,-0.0697 1.92,0.003 0.48087,0.073 0.0102,0.13129 -1.04573,0.12949 -1.056,-0.002 -1.4494,-0.0615 -0.87427,-0.13275 z m -132.80573,-5.43392 c 0.396,-0.0763 1.044,-0.0763 1.44,0 0.396,0.0763 0.072,0.13868 -0.72,0.13868 -0.792,0 -1.116,-0.0624 -0.72,-0.13868 z m 52.8,0 c 0.396,-0.0763 1.044,-0.0763 1.44,0 0.396,0.0763 0.072,0.13868 -0.72,0.13868 -0.792,0 -1.116,-0.0624 -0.72,-0.13868 z M 257.51287,137.0491 c 0.56808,-0.0707 1.57608,-0.0719 2.24,-0.003 0.66393,0.0693 0.19914,0.12711 -1.03286,0.12853 -1.232,0.001 -1.77521,-0.0553 -1.20714,-0.12595 z m 131.92714,-1.14923 c 0,-0.0551 0.468,-0.52307 1.04,-1.04 l 1.04,-0.93987 -0.93987,1.04 c -0.8761,0.96943 -1.14013,1.18709 -1.14013,0.93987 z M 283.02495,109.04 l -1.26494,-1.36 1.36,1.26495 c 0.748,0.69572 1.36,1.30772 1.36,1.36 0,0.2421 -0.27867,-1.6e-4 -1.45506,-1.26495 z m -11.43208,-3.99095 c 0.56808,-0.0707 1.57608,-0.0718 2.24,-0.003 0.66393,0.0693 0.19914,0.12711 -1.03286,0.12853 -1.232,10e-4 -1.77521,-0.0553 -1.20714,-0.12595 z m 35.37323,0.009 c 0.31135,-0.0811 0.74335,-0.0758 0.96,0.0119 0.21665,0.0876 -0.0381,0.15403 -0.56609,0.14751 -0.528,-0.007 -0.70526,-0.0782 -0.39391,-0.15937 z m 78.87391,0.01 c 0.22,-0.0888 0.58,-0.0888 0.8,0 0.22,0.0888 0.04,0.1614 -0.4,0.1614 -0.44,0 -0.62,-0.0726 -0.4,-0.1614 z m -21.12,-0.32 c 0.22,-0.0888 0.58,-0.0888 0.8,0 0.22,0.0888 0.04,0.1614 -0.4,0.1614 -0.44,0 -0.62,-0.0726 -0.4,-0.1614 z m -130.24714,-3.21901 c 0.56808,-0.0707 1.57608,-0.0718 2.24,-0.003 0.66392,0.0693 0.19914,0.12711 -1.03286,0.12853 -1.232,10e-4 -1.77522,-0.0553 -1.20714,-0.12595 z m 85.92714,0.0104 c 0.308,-0.0805 0.812,-0.0805 1.12,0 0.308,0.0805 0.056,0.14634 -0.56,0.14634 -0.616,0 -0.868,-0.0658 -0.56,-0.14634 z m 54.24,0.009 c 0.22,-0.0888 0.58,-0.0888 0.8,0 0.22,0.0888 0.04,0.1614 -0.4,0.1614 -0.44,0 -0.62,-0.0726 -0.4,-0.1614 z"
         id="path211" />
      <path
         style="fill:#d4d4d4;stroke-width:0.32"
         d="m 332.56609,229.21825 c 0.31136,-0.0811 0.74336,-0.0758 0.96,0.0119 0.21667,0.0877 -0.0381,0.15404 -0.56608,0.14752 -0.528,-0.007 -0.70525,-0.0782 -0.39392,-0.15937 z m -72.64608,-38.73346 c 0.836,-0.0659 2.204,-0.0659 3.04,0 0.836,0.0659 0.152,0.11986 -1.52,0.11986 -1.672,0 -2.356,-0.0539 -1.52,-0.11986 z m 50.24609,0.0135 c 0.31135,-0.0811 0.74335,-0.0758 0.96,0.0119 0.21665,0.0876 -0.0381,0.15404 -0.56609,0.14751 -0.528,-0.007 -0.70526,-0.0782 -0.39391,-0.15937 z m 55.50678,-5.12919 c 0.56806,-0.0707 1.57606,-0.0719 2.24,-0.003 0.66393,0.0693 0.19913,0.12711 -1.03287,0.12853 -1.232,0.001 -1.7752,-0.0553 -1.20713,-0.12595 z m -130.38847,-0.3187 c 0.48642,-0.0736 1.20642,-0.0716 1.6,0.004 0.39358,0.0759 -0.004,0.13613 -0.8844,0.13373 -0.88,-0.003 -1.20202,-0.0645 -0.7156,-0.1381 z m 71.0356,-0.004 c 0.66,-0.069 1.74,-0.069 2.4,0 0.66,0.069 0.12,0.12553 -1.2,0.12553 -1.32,0 -1.86,-0.0565 -1.2,-0.12553 z m 181.12001,0 c 0.66,-0.069 1.74,-0.069 2.4,0 0.66,0.069 0.12,0.12553 -1.2,0.12553 -1.32,0 -1.86,-0.0565 -1.2,-0.12553 z m -361.12715,-3.19784 c 0.56807,-0.0707 1.57607,-0.0719 2.24,-0.003 0.66392,0.0693 0.19913,0.12711 -1.03287,0.12853 -1.232,0.001 -1.77521,-0.0553 -1.20713,-0.12595 z m 93.61154,0.001 c 0.48642,-0.0736 1.20642,-0.0716 1.6,0.004 0.39358,0.076 -0.004,0.13614 -0.8844,0.13374 -0.88,-0.003 -1.20202,-0.0645 -0.7156,-0.1381 z m 109.1156,0.009 c 0.308,-0.0805 0.812,-0.0805 1.12,0 0.308,0.0805 0.056,0.14634 -0.56,0.14634 -0.616,0 -0.868,-0.0658 -0.56,-0.14634 z m 117.12,-0.0125 c 0.66,-0.069 1.74,-0.069 2.4,0 0.66,0.069 0.12,0.12553 -1.2,0.12553 -1.32,0 -1.86,-0.0565 -1.2,-0.12553 z M 139.2844,149.53038 c 0.48642,-0.0736 1.20642,-0.0716 1.6,0.004 0.39359,0.076 -0.004,0.13614 -0.8844,0.13374 -0.88,-0.003 -1.20201,-0.0646 -0.7156,-0.13811 z m 95.68001,0 c 0.48642,-0.0736 1.20642,-0.0716 1.6,0.004 0.39358,0.076 -0.004,0.13614 -0.8844,0.13374 -0.88,-0.003 -1.20202,-0.0646 -0.7156,-0.13811 z m 71.50846,-0.001 c 0.56808,-0.0707 1.57608,-0.0719 2.24,-0.003 0.66393,0.0693 0.19914,0.12711 -1.03286,0.12853 -1.232,0.001 -1.77521,-0.0553 -1.20714,-0.12595 z m 86.73786,-0.005 c 0.92992,-0.0648 2.36992,-0.0642 3.2,0.002 0.83011,0.0657 0.0693,0.11874 -1.69072,0.11791 -1.76,-9.6e-4 -2.43917,-0.0546 -1.50928,-0.11942 z m 96.62929,0.0244 c 0.22,-0.0888 0.58,-0.0888 0.8,0 0.22,0.0888 0.04,0.1614 -0.4,0.1614 -0.44,0 -0.62,-0.0726 -0.4,-0.1614 z m -334.87561,-3.21773 c 0.48641,-0.0736 1.20641,-0.0716 1.6,0.004 0.39358,0.076 -0.004,0.13614 -0.8844,0.13374 -0.88,-0.003 -1.20202,-0.0646 -0.7156,-0.13811 z m 95.36169,0.008 c 0.31135,-0.0811 0.74335,-0.0758 0.96,0.0119 0.21665,0.0877 -0.0381,0.15404 -0.56609,0.14752 -0.528,-0.007 -0.70526,-0.0782 -0.39391,-0.15937 z m 79.19765,-0.005 c 0.39805,-0.0765 0.97405,-0.0736 1.28,0.006 0.30592,0.0801 -0.0198,0.14272 -0.72374,0.13917 -0.704,-0.004 -0.95434,-0.0691 -0.55626,-0.14563 z m -125.12374,-0.3056 c 0.22,-0.0888 0.58,-0.0888 0.8,0 0.22,0.0888 0.04,0.16141 -0.4,0.16141 -0.44,0 -0.62,-0.0726 -0.4,-0.16141 z m 248.00573,-0.02 c 0.57517,-0.0712 1.43917,-0.0697 1.92,0.003 0.48087,0.073 0.0102,0.13129 -1.04573,0.12949 -1.056,-0.002 -1.4494,-0.0615 -0.87427,-0.13276 z m -131.84573,-5.43392 c 0.396,-0.0763 1.044,-0.0763 1.44,0 0.396,0.0763 0.072,0.13868 -0.72,0.13868 -0.792,0 -1.116,-0.0624 -0.72,-0.13868 z m 52.8,0 c 0.396,-0.0763 1.044,-0.0763 1.44,0 0.396,0.0763 0.072,0.13868 -0.72,0.13868 -0.792,0 -1.116,-0.0624 -0.72,-0.13868 z m -142.07627,-0.32049 c 0.39805,-0.0765 0.97405,-0.0736 1.28,0.006 0.30595,0.0801 -0.0197,0.14272 -0.72373,0.13917 -0.704,-0.004 -0.95432,-0.0691 -0.55627,-0.14563 z m 76.49627,-2.87227 c 0.231,-0.0924 0.507,-0.0811 0.61333,0.0252 0.10634,0.10633 -0.0827,0.18197 -0.42,0.16807 -0.37278,-0.0154 -0.4486,-0.0912 -0.19333,-0.19333 z m -54.9,-0.3345 c 0.66,-0.069 1.74,-0.069 2.4,0 0.66,0.069 0.12,0.12553 -1.2,0.12553 -1.32,0 -1.86,-0.0565 -1.2,-0.12553 z M 216.74243,121.6 c 0,-1.144 0.0581,-1.612 0.12907,-1.04 0.071,0.572 0.071,1.508 0,2.08 -0.071,0.572 -0.12907,0.104 -0.12907,-1.04 z m 124.16728,-0.8 c 0,-1.408 0.0574,-1.94419 0.12502,-1.19154 0.0676,0.75265 0.0667,1.90465 -0.003,2.56 -0.0688,0.65535 -0.12406,0.0395 -0.12291,-1.36846 z m 56.63789,-0.48 c 0,-1.32 0.0565,-1.86 0.12553,-1.2 0.069,0.66 0.069,1.74 0,2.4 -0.0691,0.66 -0.12553,0.12 -0.12553,-1.2 z M 275.6061,105.05825 c 0.31135,-0.0811 0.74335,-0.0758 0.96,0.0119 0.21665,0.0877 -0.0381,0.15404 -0.56609,0.14752 -0.528,-0.007 -0.70526,-0.0782 -0.39391,-0.15938 z m 90.73391,-0.31684 c 0.23101,-0.0924 0.50701,-0.0811 0.61335,0.0252 0.10633,0.10633 -0.0827,0.18196 -0.42,0.16807 -0.3728,-0.0154 -0.44861,-0.0912 -0.19335,-0.19333 z m -134.73627,-3.20773 c 0.39805,-0.0765 0.97405,-0.0736 1.28,0.006 0.30595,0.0801 -0.0197,0.14272 -0.72373,0.13917 -0.704,-0.004 -0.95432,-0.0691 -0.55627,-0.14562 z m 91.20001,0 c 0.39805,-0.0765 0.97405,-0.0736 1.28,0.006 0.30592,0.0801 -0.0198,0.14272 -0.72374,0.13917 -0.704,-0.004 -0.95434,-0.0691 -0.55626,-0.14562 z m 50.57626,0.008 c 0.23101,-0.0924 0.50701,-0.0811 0.61335,0.0252 0.10633,0.10633 -0.0827,0.18197 -0.42,0.16807 -0.3728,-0.0154 -0.44861,-0.0912 -0.19335,-0.19333 z"
         id="path209" />
      <path
         style="fill:#cacaca;stroke-width:0.32"
         d="m 330.64609,229.21825 c 0.31136,-0.0811 0.74336,-0.0758 0.96,0.0119 0.21667,0.0877 -0.0381,0.15404 -0.56608,0.14752 -0.528,-0.007 -0.70525,-0.0782 -0.39392,-0.15937 z m 35.51392,-0.0173 c 2.244,-0.055 5.916,-0.055 8.16,0 2.244,0.055 0.408,0.10001 -4.08,0.10001 -4.488,0 -6.324,-0.045 -4.08,-0.10001 z m -100.16,-38.71611 c 0.836,-0.0659 2.204,-0.0659 3.04,0 0.836,0.0659 0.152,0.11985 -1.52,0.11985 -1.672,0 -2.356,-0.0539 -1.52,-0.11985 z m 42.24609,0.0135 c 0.31135,-0.0811 0.74335,-0.0758 0.96,0.0119 0.21665,0.0877 -0.0381,0.15404 -0.56609,0.14752 -0.528,-0.007 -0.70526,-0.0782 -0.39391,-0.15937 z m -75.84169,-5.44789 c 0.48642,-0.0736 1.20642,-0.0716 1.6,0.004 0.39358,0.076 -0.004,0.13614 -0.8844,0.13374 -0.88,-0.003 -1.20202,-0.0645 -0.7156,-0.13811 z m 78.7156,-0.003 c 0.66,-0.069 1.74,-0.069 2.4,0 0.66,0.069 0.12,0.12553 -1.2,0.12553 -1.32,0 -1.86,-0.0565 -1.2,-0.12553 z m 168.16001,-0.004 c 1.276,-0.0607 3.364,-0.0607 4.64,0 1.276,0.0608 0.232,0.11044 -2.32,0.11044 -2.552,0 -3.596,-0.0497 -2.32,-0.11044 z m -256.47561,-3.19202 c 0.48642,-0.0736 1.20642,-0.0716 1.6,0.004 0.39358,0.076 -0.004,0.13614 -0.8844,0.13374 -0.88,-0.003 -1.20202,-0.0645 -0.7156,-0.1381 z m 102.22846,-0.001 c 0.56807,-0.0707 1.57607,-0.0718 2.24,-0.003 0.66394,0.0693 0.19914,0.12711 -1.03286,0.12853 -1.232,0.001 -1.7752,-0.0553 -1.20714,-0.12595 z m 126.87313,-0.006 c 1.18032,-0.0614 3.19632,-0.0618 4.48,-9.6e-4 1.28371,0.0609 0.31801,0.11112 -2.14599,0.11162 -2.464,6.4e-4 -3.5143,-0.0493 -2.33401,-0.11071 z M 142.4844,149.53038 c 0.48642,-0.0736 1.20642,-0.0716 1.6,0.004 0.39359,0.076 -0.004,0.13614 -0.8844,0.13374 -0.88,-0.003 -1.20201,-0.0646 -0.7156,-0.13811 z m 95.51561,0.004 c 0.396,-0.0763 1.044,-0.0763 1.44,0 0.396,0.0763 0.072,0.13868 -0.72,0.13868 -0.792,0 -1.116,-0.0624 -0.72,-0.13868 z m 73.12,-0.007 c 0.66,-0.069 1.74,-0.069 2.4,0 0.66,0.069 0.12,0.12552 -1.2,0.12552 -1.32,0 -1.86,-0.0565 -1.2,-0.12552 z m 88.32,-0.002 c 0.836,-0.0659 2.204,-0.0659 3.04,0 0.836,0.0659 0.152,0.11985 -1.52,0.11985 -1.672,0 -2.356,-0.0539 -1.52,-0.11985 z M 151.7644,146.33024 c 0.48642,-0.0736 1.20642,-0.0716 1.6,0.004 0.39359,0.076 -0.004,0.13613 -0.8844,0.13373 -0.88,-0.003 -1.20201,-0.0645 -0.7156,-0.1381 z m 95.68001,0 c 0.48642,-0.0736 1.20642,-0.0716 1.6,0.004 0.39358,0.076 -0.004,0.13613 -0.8844,0.13373 -0.88,-0.003 -1.20202,-0.0645 -0.7156,-0.1381 z m 77.7556,-0.003 c 0.66,-0.069 1.74,-0.069 2.4,0 0.66,0.069 0.12,0.12552 -1.2,0.12552 -1.32,0 -1.86,-0.0565 -1.2,-0.12552 z m 123.36573,-0.3188 c 0.57517,-0.0712 1.43917,-0.0697 1.92,0.003 0.48087,0.073 0.0102,0.13129 -1.04573,0.12949 -1.056,-0.002 -1.4494,-0.0615 -0.87427,-0.13275 z m -130.88573,-5.43378 c 0.396,-0.0763 1.044,-0.0763 1.44,0 0.396,0.0763 0.072,0.13868 -0.72,0.13868 -0.792,0 -1.116,-0.0624 -0.72,-0.13868 z m 53.12375,-6.4e-4 c 0.39804,-0.0765 0.97404,-0.0736 1.28,0.006 0.30592,0.0801 -0.0198,0.14272 -0.72375,0.13917 -0.704,-0.004 -0.95433,-0.0691 -0.55625,-0.14562 z M 234.15287,140.2489 c 0.56808,-0.0707 1.57608,-0.0718 2.24,-0.003 0.66392,0.0693 0.19914,0.12711 -1.03286,0.12853 -1.232,0.001 -1.77522,-0.0553 -1.20714,-0.12595 z m 74.88714,-2.87488 c 0.396,-0.0763 1.044,-0.0763 1.44,0 0.396,0.0763 0.072,0.13868 -0.72,0.13868 -0.792,0 -1.116,-0.0624 -0.72,-0.13868 z m 53.44,0 c 0.396,-0.0763 1.044,-0.0763 1.44,0 0.396,0.0763 0.072,0.13868 -0.72,0.13868 -0.792,0 -1.116,-0.0624 -0.72,-0.13868 z m -114.4,-0.32728 c 0.66,-0.069 1.74,-0.069 2.4,0 0.66,0.069 0.12,0.12553 -1.2,0.12553 -1.32,0 -1.86,-0.0565 -1.2,-0.12553 z m 119.54,-32.30548 c 0.23101,-0.0924 0.50701,-0.0811 0.61335,0.0252 0.10633,0.10633 -0.0827,0.18196 -0.42,0.16807 -0.3728,-0.0154 -0.44861,-0.0912 -0.19335,-0.19334 z m -42.25626,-3.20773 c 0.39805,-0.0765 0.97405,-0.0736 1.28,0.006 0.30592,0.0801 -0.0198,0.14272 -0.72374,0.13917 -0.704,-0.004 -0.95434,-0.0691 -0.55626,-0.14562 z m 46.39626,0.0144 c 0.22,-0.0888 0.58,-0.0888 0.8,0 0.22,0.0888 0.04,0.1614 -0.4,0.1614 -0.44,0 -0.62,-0.0726 -0.4,-0.1614 z"
         id="path207" />
      <path
         style="fill:#c0c0c0;stroke-width:0.32"
         d="m 328.72609,229.21825 c 0.31136,-0.0811 0.74336,-0.0758 0.96,0.0119 0.21667,0.0877 -0.0381,0.15404 -0.56608,0.14752 -0.528,-0.007 -0.70525,-0.0782 -0.39392,-0.15937 z m 31.19392,-0.004 c 0.396,-0.0763 1.044,-0.0763 1.44,0 0.396,0.0763 0.072,0.13867 -0.72,0.13867 -0.792,0 -1.116,-0.0624 -0.72,-0.13867 z m 21.12,-0.0123 c 1.452,-0.0593 3.828,-0.0593 5.28,0 1.452,0.0593 0.264,0.10781 -2.64,0.10781 -2.904,0 -4.092,-0.0485 -2.64,-0.10781 z M 272.25074,190.48372 c 0.9299,-0.0649 2.3699,-0.0642 3.2,0.002 0.83009,0.0657 0.0693,0.11873 -1.69073,0.1179 -1.76,-9.6e-4 -2.43918,-0.0546 -1.50927,-0.11942 z m 33.74927,0.0157 c 0.308,-0.0805 0.812,-0.0805 1.12,0 0.308,0.0805 0.056,0.14635 -0.56,0.14635 -0.616,0 -0.868,-0.0659 -0.56,-0.14635 z m -76.7956,-5.44905 c 0.48642,-0.0736 1.20642,-0.0716 1.6,0.004 0.39358,0.076 -0.004,0.13614 -0.8844,0.13374 -0.88,-0.003 -1.20202,-0.0645 -0.7156,-0.13811 z m 86.3956,-0.003 c 0.66,-0.069 1.74,-0.069 2.4,0 0.66,0.069 0.12,0.12553 -1.2,0.12553 -1.32,0 -1.86,-0.0565 -1.2,-0.12553 z m 154.54599,-0.004 c 1.18032,-0.0614 3.19632,-0.0618 4.48,-9.6e-4 1.28371,0.0609 0.31802,0.11113 -2.14598,0.11163 -2.464,6.4e-4 -3.51431,-0.0493 -2.33402,-0.11072 z m -244.14159,-3.19265 c 0.48642,-0.0736 1.20642,-0.0716 1.6,0.004 0.39358,0.076 -0.004,0.13613 -0.8844,0.13373 -0.88,-0.003 -1.20202,-0.0645 -0.7156,-0.1381 z m 94.3956,-0.003 c 0.66,-0.069 1.74,-0.069 2.4,0 0.66,0.069 0.12,0.12552 -1.2,0.12552 -1.32,0 -1.86,-0.0565 -1.2,-0.12552 z m 140.64001,-0.004 c 1.276,-0.0607 3.364,-0.0607 4.64,0 1.276,0.0607 0.232,0.11043 -2.32,0.11043 -2.552,0 -3.59601,-0.0497 -2.32,-0.11043 z M 145.52,149.53417 c 0.396,-0.0763 1.044,-0.0763 1.44,0 0.396,0.0763 0.072,0.13868 -0.72,0.13868 -0.792,0 -1.116,-0.0624 -0.72,-0.13868 z m 95.52441,-0.004 c 0.48642,-0.0736 1.20642,-0.0716 1.6,0.004 0.39358,0.076 -0.004,0.13613 -0.8844,0.13373 -0.88,-0.003 -1.20202,-0.0645 -0.7156,-0.1381 z m 74.8756,-0.004 c 0.66,-0.069 1.74,-0.069 2.4,0 0.66,0.069 0.12,0.12553 -1.2,0.12553 -1.32,0 -1.86,-0.0565 -1.2,-0.12553 z m 89.60967,-0.003 c 0.84131,-0.0661 2.13731,-0.0653 2.88,0.002 0.74269,0.0671 0.0543,0.12123 -1.52967,0.12025 -1.584,-9.6e-4 -2.19164,-0.0559 -1.35033,-0.12202 z M 148.72,146.33417 c 0.396,-0.0763 1.044,-0.0763 1.44,0 0.396,0.0763 0.072,0.13868 -0.72,0.13868 -0.792,0 -1.116,-0.0624 -0.72,-0.13868 z m 95.52441,-0.004 c 0.48642,-0.0735 1.20642,-0.0716 1.6,0.004 0.39358,0.0759 -0.004,0.13613 -0.8844,0.13373 -0.88,-0.003 -1.20202,-0.0645 -0.7156,-0.1381 z m 76.4756,-0.003 c 0.66,-0.069 1.74,-0.069 2.4,0 0.66,0.069 0.12,0.12552 -1.2,0.12552 -1.32,0 -1.86,-0.0565 -1.2,-0.12552 z m 124.00573,-0.31881 c 0.57517,-0.0712 1.43917,-0.0697 1.92,0.003 0.48087,0.073 0.0102,0.13128 -1.04573,0.12949 -1.056,-0.002 -1.4494,-0.0615 -0.87427,-0.13276 z m -129.92573,-5.43393 c 0.396,-0.0763 1.044,-0.0763 1.44,0 0.396,0.0763 0.072,0.13868 -0.72,0.13868 -0.792,0 -1.116,-0.0624 -0.72,-0.13868 z m 53.12,0 c 0.396,-0.0763 1.044,-0.0763 1.44,0 0.396,0.0763 0.072,0.13868 -0.72,0.13868 -0.792,0 -1.116,-0.0624 -0.72,-0.13868 z m -129.12,-0.32728 c 0.66,-0.069 1.74,-0.069 2.4,0 0.66,0.069 0.12,0.12553 -1.2,0.12553 -1.32,0 -1.86,-0.0565 -1.2,-0.12553 z m 73.12,-2.87272 c 0.396,-0.0763 1.044,-0.0763 1.44,0 0.396,0.0763 0.072,0.13868 -0.72,0.13868 -0.792,0 -1.116,-0.0624 -0.72,-0.13868 z m 53.12,0 c 0.396,-0.0763 1.044,-0.0763 1.44,0 0.396,0.0763 0.072,0.13868 -0.72,0.13868 -0.792,0 -1.116,-0.0624 -0.72,-0.13868 z m -121.44,-0.32728 c 0.66,-0.069 1.74,-0.069 2.4,0 0.66,0.069 0.12,0.12553 -1.2,0.12553 -1.32,0 -1.86,-0.0565 -1.2,-0.12553 z m 87.20573,-32.3188 c 0.57517,-0.0712 1.43917,-0.0697 1.92,0.003 0.48086,0.073 0.0102,0.13129 -1.04573,0.12949 -1.056,-0.002 -1.44941,-0.0615 -0.87427,-0.13275 z m 38.07427,0.02 c 0.22,-0.0888 0.58,-0.0888 0.8,0 0.22,0.0888 0.04,0.1614 -0.4,0.1614 -0.44,0 -0.62,-0.0726 -0.4,-0.1614 z m -40.95626,-3.21439 c 0.39805,-0.0765 0.97405,-0.0736 1.28,0.006 0.30592,0.0801 -0.0198,0.14272 -0.72374,0.13917 -0.704,-0.004 -0.95434,-0.0691 -0.55626,-0.14563 z m 6.09626,0.008 c 0.23101,-0.0924 0.50701,-0.0811 0.61334,0.0252 0.10634,0.10633 -0.0827,0.18196 -0.42,0.16807 -0.3728,-0.0154 -0.4486,-0.0912 -0.19334,-0.19333 z m 36.48,0 c 0.23101,-0.0924 0.50701,-0.0811 0.61335,0.0252 0.10633,0.10633 -0.0827,0.18196 -0.42,0.16807 -0.3728,-0.0154 -0.44861,-0.0912 -0.19335,-0.19333 z"
         id="path205" />
      <path
         style="fill:#bababa;stroke-width:0.32"
         d="m 397.53592,212.80001 c 0,-0.968 0.06,-1.364 0.13331,-0.88 0.0733,0.484 0.0733,1.276 0,1.76 -0.0734,0.484 -0.13331,0.088 -0.13331,-0.88 z"
         id="path203" />
      <path
         style="fill:#b5b5b5;stroke-width:0.32"
         d="m 272.72001,229.20479 c 0.836,-0.0659 2.204,-0.0659 3.04,0 0.836,0.0659 0.152,0.11986 -1.52,0.11986 -1.672,0 -2.356,-0.0539 -1.52,-0.11986 z m 54.08608,0.0135 c 0.31136,-0.0811 0.74336,-0.0758 0.96,0.0119 0.21667,0.0877 -0.0381,0.15404 -0.56608,0.14751 -0.528,-0.007 -0.70525,-0.0782 -0.39392,-0.15937 z m 6.71392,-38.39883 c 0.308,-0.0805 0.812,-0.0805 1.12,0 0.308,0.0805 0.056,0.14634 -0.56,0.14634 -0.616,0 -0.868,-0.0658 -0.56,-0.14634 z m 52.00573,-0.0113 c 0.57517,-0.0712 1.43917,-0.0697 1.92,0.003 0.48086,0.073 0.0102,0.13129 -1.04573,0.12949 -1.056,-0.002 -1.44941,-0.0615 -0.87427,-0.13275 z m -159.52133,-5.75773 c 0.48642,-0.0736 1.20642,-0.0716 1.6,0.004 0.39358,0.076 -0.004,0.13614 -0.8844,0.13374 -0.88,-0.003 -1.20202,-0.0645 -0.7156,-0.13811 z m 94.3956,-0.003 c 0.66,-0.069 1.74,-0.069 2.4,0 0.66,0.069 0.12,0.12552 -1.2,0.12552 -1.32,0 -1.86,-0.0565 -1.2,-0.12552 z m 140.64001,-0.004 c 1.276,-0.0607 3.364,-0.0607 4.64,0 1.276,0.0607 0.232,0.11044 -2.32,0.11044 -2.552,0 -3.59601,-0.0497 -2.32,-0.11044 z m -231.83561,-3.19202 c 0.48642,-0.0736 1.20642,-0.0716 1.6,0.004 0.39358,0.076 -0.004,0.13614 -0.8844,0.13374 -0.88,-0.003 -1.20202,-0.0645 -0.7156,-0.13811 z m 86.54846,-10e-4 c 0.56808,-0.0707 1.57608,-0.0718 2.24,-0.003 0.66393,0.0693 0.19914,0.12711 -1.03286,0.12853 -1.232,0.001 -1.77521,-0.0553 -1.20714,-0.12595 z m 154.39313,-0.006 c 1.18032,-0.0614 3.19632,-0.0618 4.48,-9.6e-4 1.28371,0.0609 0.31802,0.11113 -2.14598,0.11163 -2.464,6.4e-4 -3.51431,-0.0493 -2.33402,-0.11072 z M 148.5644,149.53038 c 0.48642,-0.0736 1.20642,-0.0716 1.6,0.004 0.39359,0.076 -0.004,0.13614 -0.8844,0.13374 -0.88,-0.003 -1.20201,-0.0646 -0.7156,-0.13811 z m 95.68001,0 c 0.48642,-0.0736 1.20642,-0.0716 1.6,0.004 0.39358,0.076 -0.004,0.13614 -0.8844,0.13374 -0.88,-0.003 -1.20202,-0.0646 -0.7156,-0.13811 z m 76.30846,-0.001 c 0.56807,-0.0707 1.57607,-0.0719 2.24,-0.003 0.66394,0.0693 0.19914,0.12711 -1.03286,0.12853 -1.232,0.001 -1.77521,-0.0553 -1.20714,-0.12595 z m 124.32714,-0.31825 c 0.484,-0.0733 1.276,-0.0733 1.76,0 0.484,0.0733 0.088,0.13331 -0.88,0.13331 -0.968,0 -1.364,-0.06 -0.88,-0.13331 z m -299.19561,-2.8807 c 0.48642,-0.0736 1.20642,-0.0716 1.6,0.004 0.39359,0.076 -0.004,0.13613 -0.8844,0.13373 -0.88,-0.003 -1.20201,-0.0645 -0.7156,-0.1381 z m 95.36001,0 c 0.48642,-0.0736 1.20642,-0.0716 1.6,0.004 0.39358,0.076 -0.004,0.13613 -0.8844,0.13373 -0.88,-0.003 -1.20202,-0.0645 -0.7156,-0.1381 z m 74.8756,-0.004 c 0.66,-0.069 1.74,-0.069 2.4,0 0.66,0.069 0.12,0.12553 -1.2,0.12553 -1.32,0 -1.86,-0.0565 -1.2,-0.12553 z m 89.6,-0.002 c 0.836,-0.0659 2.204,-0.0659 3.04,0 0.836,0.0659 0.152,0.11986 -1.52,0.11986 -1.672,0 -2.356,-0.0539 -1.52,-0.11986 z m -93.6,-5.75062 c 0.396,-0.0763 1.044,-0.0763 1.44,0 0.396,0.0763 0.072,0.13868 -0.72,0.13868 -0.792,0 -1.116,-0.0624 -0.72,-0.13868 z m 53.44375,-6.4e-4 c 0.39804,-0.0765 0.97404,-0.0736 1.28,0.006 0.30592,0.0801 -0.0198,0.14272 -0.72375,0.13916 -0.704,-0.004 -0.95433,-0.0691 -0.55625,-0.14562 z m -121.93089,-0.32463 c 0.56808,-0.0707 1.57608,-0.0719 2.24,-0.003 0.66393,0.0693 0.19914,0.12711 -1.03286,0.12853 -1.232,0.001 -1.77521,-0.0553 -1.20714,-0.12595 z m 71.36714,-2.87488 c 0.396,-0.0763 1.044,-0.0763 1.44,0 0.396,0.0763 0.072,0.13868 -0.72,0.13868 -0.792,0 -1.116,-0.0624 -0.72,-0.13868 z m 53.12,0 c 0.396,-0.0763 1.044,-0.0763 1.44,0 0.396,0.0763 0.072,0.13868 -0.72,0.13868 -0.792,0 -1.116,-0.0624 -0.72,-0.13868 z m -129.12,-0.32727 c 0.66,-0.069 1.74,-0.069 2.4,0 0.66,0.069 0.12,0.12552 -1.2,0.12552 -1.32,0 -1.86,-0.0565 -1.2,-0.12552 z m 89.12374,-32.31322 c 0.39805,-0.0765 0.97405,-0.0736 1.28,0.006 0.30592,0.0801 -0.0198,0.14272 -0.72374,0.13916 -0.704,-0.004 -0.95434,-0.0691 -0.55626,-0.14562 z m 42.57626,0.008 c 0.23101,-0.0924 0.50701,-0.0811 0.61335,0.0252 0.10633,0.10634 -0.0827,0.18197 -0.42,0.16807 -0.3728,-0.0154 -0.44861,-0.0912 -0.19335,-0.19333 z m -39.7,-3.21263 c 0.572,-0.071 1.508,-0.071 2.08,0 0.572,0.071 0.104,0.12907 -1.04,0.12907 -1.144,0 -1.612,-0.0581 -1.04,-0.12907 z m 38.08,0.0196 c 0.22,-0.0888 0.58,-0.0888 0.8,0 0.22,0.0888 0.04,0.1614 -0.4,0.1614 -0.44,0 -0.62,-0.0726 -0.4,-0.1614 z"
         id="path201" />
      <path
         style="fill:#aeaeae;stroke-width:0.32"
         d="m 356.28961,181.36001 -0.6096,-0.72 0.72,0.60959 c 0.67661,0.57287 0.86567,0.83041 0.6096,0.83041 -0.0607,0 -0.38473,-0.324 -0.72,-0.72 z"
         id="path199" />
      <path
         style="fill:#a9a9a9;stroke-width:0.32"
         d="m 266.64001,229.20479 c 0.836,-0.0659 2.204,-0.0659 3.04,0 0.836,0.0659 0.152,0.11986 -1.52,0.11986 -1.672,0 -2.356,-0.0539 -1.52,-0.11986 z m 58.24608,0.0135 c 0.31136,-0.0811 0.74336,-0.0758 0.96,0.0119 0.21667,0.0877 -0.0381,0.15404 -0.56608,0.14751 -0.528,-0.007 -0.70525,-0.0782 -0.39392,-0.15937 z m 6.71392,-38.39883 c 0.308,-0.0805 0.812,-0.0805 1.12,0 0.308,0.0805 0.056,0.14634 -0.56,0.14634 -0.616,0 -0.868,-0.0658 -0.56,-0.14634 z m 49.76,-0.0109 c 0.572,-0.071 1.508,-0.071 2.08,0 0.572,0.071 0.104,0.12907 -1.04,0.12907 -1.144,0 -1.612,-0.0581 -1.04,-0.12907 z m -158.5556,-5.75814 c 0.48642,-0.0736 1.20642,-0.0716 1.6,0.004 0.39358,0.076 -0.004,0.13614 -0.8844,0.13374 -0.88,-0.003 -1.20202,-0.0645 -0.7156,-0.13811 z m 102.22846,-0.001 c 0.56807,-0.0707 1.57607,-0.0719 2.24,-0.003 0.66394,0.0693 0.19914,0.12711 -1.03286,0.12853 -1.232,0.001 -1.7752,-0.0553 -1.20714,-0.12595 z m 126.87313,-0.006 c 1.18032,-0.0614 3.19632,-0.0618 4.48,-9.6e-4 1.28371,0.0609 0.31801,0.11113 -2.14599,0.11163 -2.464,6.4e-4 -3.5143,-0.0493 -2.33401,-0.11072 z m -219.50159,-3.19265 c 0.48642,-0.0735 1.20642,-0.0716 1.6,0.004 0.39358,0.0759 -0.004,0.13613 -0.8844,0.13373 -0.88,-0.003 -1.20202,-0.0645 -0.7156,-0.1381 z m 78.7156,-0.004 c 0.66,-0.069 1.74,-0.069 2.4,0 0.66,0.069 0.12,0.12553 -1.2,0.12553 -1.32,0 -1.86,-0.0565 -1.2,-0.12553 z m 168.16001,-0.004 c 1.276,-0.0607 3.364,-0.0607 4.64,0 1.276,0.0608 0.232,0.11044 -2.32,0.11044 -2.552,0 -3.596,-0.0497 -2.32,-0.11044 z M 151.7644,149.53038 c 0.48642,-0.0736 1.20642,-0.0716 1.6,0.004 0.39359,0.076 -0.004,0.13614 -0.8844,0.13374 -0.88,-0.003 -1.20201,-0.0646 -0.7156,-0.13811 z m 95.68001,0 c 0.48642,-0.0736 1.20642,-0.0716 1.6,0.004 0.39358,0.076 -0.004,0.13614 -0.8844,0.13374 -0.88,-0.003 -1.20202,-0.0646 -0.7156,-0.13811 z m 77.7556,-0.003 c 0.66,-0.069 1.74,-0.069 2.4,0 0.66,0.069 0.12,0.12552 -1.2,0.12552 -1.32,0 -1.86,-0.0565 -1.2,-0.12552 z m 123.36573,-0.3188 c 0.57517,-0.0712 1.43917,-0.0697 1.92,0.003 0.48087,0.073 0.0102,0.13129 -1.04573,0.12949 -1.056,-0.002 -1.4494,-0.0615 -0.87427,-0.13275 z m -306.08134,-2.8782 c 0.48642,-0.0736 1.20642,-0.0716 1.6,0.004 0.39359,0.076 -0.004,0.13613 -0.8844,0.13373 -0.88,-0.003 -1.20201,-0.0645 -0.7156,-0.1381 z m 95.68001,0 c 0.48642,-0.0736 1.20642,-0.0716 1.6,0.004 0.39358,0.076 -0.004,0.13613 -0.8844,0.13373 -0.88,-0.003 -1.20202,-0.0645 -0.7156,-0.1381 z m 72.9556,-0.003 c 0.66,-0.069 1.74,-0.069 2.4,0 0.66,0.069 0.12,0.12553 -1.2,0.12553 -1.32,0 -1.86,-0.0565 -1.2,-0.12553 z m 88.17072,-0.003 c 0.92992,-0.0648 2.36992,-0.0642 3.2,0.002 0.83012,0.0657 0.0693,0.11874 -1.69072,0.1179 -1.76,-9.6e-4 -2.43917,-0.0546 -1.50928,-0.11941 z m -90.08632,-5.75331 c 0.48642,-0.0736 1.20642,-0.0716 1.6,0.004 0.39358,0.076 -0.004,0.13613 -0.8844,0.13373 -0.88,-0.003 -1.20202,-0.0645 -0.7156,-0.1381 z m 53.2756,0.004 c 0.396,-0.0763 1.044,-0.0763 1.44,0 0.396,0.0763 0.072,0.13868 -0.72,0.13868 -0.792,0 -1.116,-0.0624 -0.72,-0.13868 z m -114.4,-0.32727 c 0.66,-0.069 1.74,-0.069 2.4,0 0.66,0.069 0.12,0.12552 -1.2,0.12552 -1.32,0 -1.86,-0.0565 -1.2,-0.12552 z m 69.6,-2.87273 c 0.396,-0.0763 1.044,-0.0763 1.44,0 0.396,0.0763 0.072,0.13868 -0.72,0.13868 -0.792,0 -1.116,-0.0624 -0.72,-0.13868 z m 53.12375,-6.4e-4 c 0.39804,-0.0765 0.97404,-0.0736 1.28,0.006 0.30592,0.0801 -0.0198,0.14272 -0.72375,0.13917 -0.704,-0.004 -0.95433,-0.0691 -0.55625,-0.14563 z M 234.15287,137.0498 c 0.56808,-0.0707 1.57608,-0.0718 2.24,-0.003 0.66392,0.0693 0.19914,0.12711 -1.03286,0.12854 -1.232,0.001 -1.77522,-0.0553 -1.20714,-0.12595 z m 91.21088,-32.31537 c 0.39805,-0.0765 0.97405,-0.0736 1.28,0.006 0.30592,0.0801 -0.0198,0.14272 -0.72374,0.13917 -0.704,-0.004 -0.95434,-0.0691 -0.55626,-0.14563 z m 46.39626,0.0144 c 0.22,-0.0888 0.58,-0.0888 0.8,0 0.22,0.0888 0.04,0.16141 -0.4,0.16141 -0.44,0 -0.62,-0.0726 -0.4,-0.16141 z m -4.16,-3.2 c 0.22,-0.0888 0.58,-0.0888 0.8,0 0.22,0.0888 0.04,0.16141 -0.4,0.16141 -0.44,0 -0.62,-0.0726 -0.4,-0.16141 z"
         id="path197" />
      <path
         style="fill:#9b9b9b;stroke-width:0.32"
         d="m 260.56001,229.20479 c 0.836,-0.0659 2.204,-0.0659 3.04,0 0.836,0.0659 0.152,0.11986 -1.52,0.11986 -1.672,0 -2.356,-0.0539 -1.52,-0.11986 z m 62.40608,0.0135 c 0.31136,-0.0811 0.74336,-0.0758 0.96,0.0119 0.21667,0.0877 -0.0381,0.15404 -0.56608,0.14751 -0.528,-0.007 -0.70525,-0.0782 -0.39392,-0.15937 z m 6.72,-38.40001 c 0.31136,-0.0811 0.74336,-0.0758 0.96,0.0119 0.21667,0.0876 -0.0381,0.15404 -0.56608,0.14751 -0.528,-0.007 -0.70525,-0.0782 -0.39392,-0.15937 z m 47.83965,-0.0101 c 0.57517,-0.0712 1.43917,-0.0697 1.92,0.003 0.48086,0.073 0.0102,0.13129 -1.04573,0.1295 -1.056,-0.002 -1.44941,-0.0615 -0.87427,-0.13276 z m -251.21287,-5.75904 c 0.56807,-0.0707 1.57607,-0.0719 2.24,-0.003 0.66392,0.0693 0.19913,0.12711 -1.03287,0.12853 -1.232,0.001 -1.77521,-0.0553 -1.20713,-0.12595 z m 93.61154,0.001 c 0.48642,-0.0736 1.20642,-0.0716 1.6,0.004 0.39358,0.076 -0.004,0.13614 -0.8844,0.13374 -0.88,-0.003 -1.20202,-0.0645 -0.7156,-0.13811 z m 109.27934,0.003 c 0.39805,-0.0765 0.97405,-0.0736 1.28,0.006 0.30592,0.0801 -0.0198,0.14272 -0.72374,0.13917 -0.704,-0.004 -0.95434,-0.0691 -0.55626,-0.14563 z m 116.95626,-0.007 c 0.66,-0.069 1.74,-0.069 2.4,0 0.66,0.069 0.12,0.12553 -1.2,0.12553 -1.32,0 -1.86,-0.0565 -1.2,-0.12553 z m -80.48713,-2.87784 c 0.56806,-0.0707 1.57606,-0.0718 2.24,-0.003 0.66393,0.0693 0.19913,0.12711 -1.03287,0.12853 -1.232,10e-4 -1.7752,-0.0553 -1.20713,-0.12595 z m -130.38847,-0.31867 c 0.48642,-0.0736 1.20642,-0.0716 1.6,0.004 0.39358,0.0759 -0.004,0.13613 -0.8844,0.13373 -0.88,-0.003 -1.20202,-0.0645 -0.7156,-0.1381 z m 71.0356,-0.003 c 0.66,-0.069 1.74,-0.069 2.4,0 0.66,0.069 0.12,0.12553 -1.2,0.12553 -1.32,0 -1.86,-0.0565 -1.2,-0.12553 z m 180.95287,0.002 c 0.56806,-0.0707 1.57606,-0.0719 2.24,-0.003 0.66394,0.0693 0.19914,0.12712 -1.03286,0.12854 -1.232,0.001 -1.7752,-0.0553 -1.20714,-0.12595 z M 154.96441,149.53038 c 0.48641,-0.0736 1.20641,-0.0716 1.6,0.004 0.39358,0.076 -0.004,0.13614 -0.8844,0.13374 -0.88,-0.003 -1.20202,-0.0646 -0.7156,-0.13811 z m 95.2156,0.011 c 0.231,-0.0924 0.507,-0.0811 0.61333,0.0252 0.10634,0.10633 -0.0827,0.18196 -0.42,0.16807 -0.37278,-0.0154 -0.44861,-0.0912 -0.19333,-0.19333 z m 79.18,-0.002 c 0.308,-0.0805 0.812,-0.0805 1.12,0 0.308,0.0805 0.056,0.14634 -0.56,0.14634 -0.616,0 -0.868,-0.0659 -0.56,-0.14634 z m -124.62,-0.31801 c 0.231,-0.0924 0.507,-0.0811 0.61333,0.0252 0.10633,0.10633 -0.0827,0.18196 -0.42,0.16807 -0.37278,-0.0154 -0.44861,-0.0912 -0.19333,-0.19333 z m 247.66573,-0.0133 c 0.57517,-0.0712 1.43917,-0.0697 1.92,0.003 0.48087,0.073 0.0102,0.13129 -1.04573,0.12949 -1.056,-0.002 -1.4494,-0.0615 -0.87427,-0.13275 z m -313.12134,-2.8776 c 0.48642,-0.0736 1.20642,-0.0716 1.6,0.004 0.39359,0.076 -0.004,0.13613 -0.8844,0.13373 -0.88,-0.003 -1.20201,-0.0645 -0.7156,-0.1381 z m 95.68001,0 c 0.48642,-0.0736 1.20642,-0.0716 1.6,0.004 0.39358,0.076 -0.004,0.13613 -0.8844,0.13373 -0.88,-0.003 -1.20202,-0.0645 -0.7156,-0.1381 z m 71.50846,-0.001 c 0.56808,-0.0707 1.57608,-0.0719 2.24,-0.003 0.66393,0.0693 0.19914,0.12711 -1.03286,0.12853 -1.232,10e-4 -1.77521,-0.0553 -1.20714,-0.12595 z m 86.56714,-0.004 c 0.836,-0.0659 2.204,-0.0659 3.04,0 0.836,0.0659 0.152,0.11985 -1.52,0.11985 -1.672,0 -2.356,-0.0539 -1.52,-0.11985 z m 96.96609,0.0135 c 0.31136,-0.0811 0.74336,-0.0758 0.96,0.0119 0.21667,0.0877 -0.0381,0.15404 -0.56608,0.14752 -0.528,-0.007 -0.70525,-0.0782 -0.39392,-0.15937 z m -182.72,-5.76 c 0.31135,-0.0811 0.74335,-0.0758 0.96,0.0119 0.21665,0.0877 -0.0381,0.15404 -0.56609,0.14752 -0.528,-0.007 -0.70526,-0.0782 -0.39391,-0.15937 z m 53.27391,0.01 c 0.22,-0.0888 0.58,-0.0888 0.8,0 0.22,0.0888 0.04,0.16141 -0.4,0.16141 -0.44,0 -0.62,-0.0726 -0.4,-0.16141 z m -107.68,-0.34118 c 0.66,-0.069 1.74,-0.069 2.4,0 0.66,0.069 0.12,0.12553 -1.2,0.12553 -1.32,0 -1.86,-0.0565 -1.2,-0.12553 z m 67.68,-2.87272 c 0.396,-0.0763 1.044,-0.0763 1.44,0 0.396,0.0763 0.072,0.13868 -0.72,0.13868 -0.792,0 -1.116,-0.0624 -0.72,-0.13868 z m 52.8,0 c 0.396,-0.0763 1.044,-0.0763 1.44,0 0.396,0.0763 0.072,0.13868 -0.72,0.13868 -0.792,0 -1.116,-0.0624 -0.72,-0.13868 z m -141.92,-0.31475 c 0.308,-0.0805 0.812,-0.0805 1.12,0 0.308,0.0805 0.056,0.14634 -0.56,0.14634 -0.616,0 -0.868,-0.0658 -0.56,-0.14634 z M 219.94243,121.6 c 0,-1.144 0.0581,-1.612 0.12907,-1.04 0.071,0.572 0.071,1.508 0,2.08 -0.071,0.572 -0.12907,0.104 -0.12907,-1.04 z m 124.16939,-0.64 c 0,-1.496 0.0551,-2.108 0.1225,-1.36 0.0674,0.748 0.0674,1.972 0,2.72 -0.0674,0.748 -0.1225,0.136 -0.1225,-1.36 z m 50.23318,-0.48 c 0,-1.232 0.0593,-1.69678 0.12855,-1.03286 0.0693,0.66393 0.0681,1.67193 -0.003,2.24 -0.0707,0.56808 -0.12736,0.0249 -0.12595,-1.20714 z M 231.7661,104.73825 c 0.31135,-0.0811 0.74335,-0.0758 0.96,0.0119 0.21665,0.0877 -0.0381,0.15404 -0.56609,0.14752 -0.528,-0.007 -0.70526,-0.0782 -0.39391,-0.15938 z m 91.03765,-0.005 c 0.39805,-0.0765 0.97405,-0.0736 1.28,0.006 0.30592,0.0801 -0.0198,0.14272 -0.72374,0.13917 -0.704,-0.004 -0.95434,-0.0691 -0.55626,-0.14562 z m 50.57626,0.008 c 0.23101,-0.0924 0.50701,-0.0811 0.61335,0.0252 0.10633,0.10634 -0.0827,0.18197 -0.42,0.16807 -0.3728,-0.0154 -0.44861,-0.0912 -0.19335,-0.19333 z m -97.61627,-2.88772 c 0.39805,-0.0765 0.97405,-0.0736 1.28,0.006 0.30595,0.0801 -0.0197,0.14272 -0.72373,0.13917 -0.704,-0.004 -0.95432,-0.0691 -0.55627,-0.14563 z m 90.57627,-0.31228 c 0.23101,-0.0924 0.50701,-0.0811 0.61335,0.0252 0.10633,0.10633 -0.0827,0.18197 -0.42,0.16807 -0.3728,-0.0154 -0.44861,-0.0912 -0.19335,-0.19333 z"
         id="path195" />
      <path
         style="fill:#616ef0;stroke-width:0.32"
         d="m 150,181.8424 c 1.276,-0.0607 3.364,-0.0607 4.64001,0 1.276,0.0607 0.232,0.11044 -2.32001,0.11044 -2.552,0 -3.596,-0.0497 -2.32,-0.11044 z m 60.32441,0.008 c 0.48642,-0.0736 1.20642,-0.0716 1.6,0.004 0.39358,0.076 -0.004,0.13614 -0.8844,0.13374 -0.88,-0.003 -1.20202,-0.0645 -0.7156,-0.13811 z m -80.64001,-32.32 c 0.48642,-0.0736 1.20642,-0.0716 1.6,0.004 0.39359,0.076 -0.004,0.13614 -0.8844,0.13374 -0.88,-0.003 -1.20201,-0.0645 -0.7156,-0.13811 z m 95.68001,0 c 0.48642,-0.0736 1.20642,-0.0716 1.6,0.004 0.39358,0.076 -0.004,0.13614 -0.8844,0.13374 -0.88,-0.003 -1.20202,-0.0645 -0.7156,-0.13811 z m 67.02846,-10e-4 c 0.56808,-0.0707 1.57608,-0.0718 2.24,-0.003 0.66393,0.0693 0.19914,0.12711 -1.03286,0.12853 -1.232,0.001 -1.77521,-0.0553 -1.20714,-0.12595 z m 82.40714,-0.004 c 0.836,-0.0659 2.204,-0.0659 3.04,0 0.836,0.0659 0.152,0.11986 -1.52,0.11986 -1.672,0 -2.356,-0.0539 -1.52,-0.11986 z m 104.16573,0.003 c 0.57517,-0.0712 1.43917,-0.0697 1.92,0.003 0.48087,0.073 0.0102,0.13129 -1.04572,0.12949 -1.056,-0.002 -1.44941,-0.0615 -0.87428,-0.13275 z"
         id="path193" />
      <path
         style="fill:#8c8c8c;stroke-width:0.32"
         d="m 254.48001,229.20479 c 0.836,-0.0659 2.204,-0.0659 3.04,0 0.836,0.0659 0.152,0.11986 -1.52,0.11986 -1.672,0 -2.356,-0.0539 -1.52,-0.11986 z m 66.56608,0.0135 c 0.31136,-0.0811 0.74336,-0.0758 0.96,0.0119 0.21667,0.0877 -0.0381,0.15404 -0.56608,0.14751 -0.528,-0.007 -0.70525,-0.0782 -0.39392,-0.15937 z m 6.72,-38.40001 c 0.31136,-0.0811 0.74336,-0.0758 0.96,0.0119 0.21667,0.0876 -0.0381,0.15404 -0.56608,0.14751 -0.528,-0.007 -0.70525,-0.0782 -0.39392,-0.15937 z m 45.91965,-0.0101 c 0.57517,-0.0712 1.43917,-0.0697 1.92,0.003 0.48086,0.073 0.0102,0.13129 -1.04573,0.1295 -1.056,-0.002 -1.44941,-0.0615 -0.87427,-0.13276 z M 131.906,185.04303 c 1.18031,-0.0614 3.19631,-0.0618 4.48,-9.6e-4 1.2837,0.0609 0.318,0.11113 -2.146,0.11162 -2.464,6.4e-4 -3.5143,-0.0493 -2.334,-0.11071 z m 84.81841,0.007 c 0.48642,-0.0736 1.20642,-0.0716 1.6,0.004 0.39358,0.076 -0.004,0.13614 -0.8844,0.13374 -0.88,-0.003 -1.20202,-0.0645 -0.7156,-0.13811 z m 154.7156,-2.88799 c 1.276,-0.0607 3.364,-0.0607 4.64,0 1.276,0.0607 0.232,0.11044 -2.32,0.11044 -2.552,0 -3.596,-0.0497 -2.32,-0.11044 z m -132.9556,-0.31202 c 0.48642,-0.0736 1.20642,-0.0716 1.6,0.004 0.39358,0.076 -0.004,0.13614 -0.8844,0.13374 -0.88,-0.003 -1.20202,-0.0645 -0.7156,-0.13811 z m 63.18846,-0.001 c 0.56808,-0.0707 1.57608,-0.0718 2.24,-0.003 0.66393,0.0693 0.19914,0.12711 -1.03286,0.12853 -1.232,0.001 -1.77521,-0.0553 -1.20714,-0.12595 z M 158.16441,149.53038 c 0.48641,-0.0736 1.20641,-0.0716 1.6,0.004 0.39358,0.076 -0.004,0.13614 -0.8844,0.13374 -0.88,-0.003 -1.20202,-0.0646 -0.7156,-0.13811 z m 48.32,-0.32 c 0.48642,-0.0736 1.20642,-0.0716 1.6,0.004 0.39358,0.076 -0.004,0.13614 -0.8844,0.13374 -0.88,-0.003 -1.20202,-0.0646 -0.7156,-0.13811 z m 249.76133,-0.002 c 0.57517,-0.0712 1.43917,-0.0697 1.92,0.003 0.48087,0.073 0.0102,0.13129 -1.04573,0.12949 -1.056,-0.002 -1.4494,-0.0615 -0.87427,-0.13275 z m -320.16134,-2.878 c 0.48642,-0.0736 1.20642,-0.0716 1.6,0.004 0.39359,0.076 -0.004,0.13614 -0.8844,0.13374 -0.88,-0.003 -1.20201,-0.0646 -0.7156,-0.13811 z m 95.68001,0 c 0.48642,-0.0736 1.20642,-0.0716 1.6,0.004 0.39358,0.076 -0.004,0.13614 -0.8844,0.13374 -0.88,-0.003 -1.20202,-0.0646 -0.7156,-0.13811 z m 70.0756,-0.003 c 0.66,-0.069 1.74,-0.069 2.4,0 0.66,0.069 0.12,0.12553 -1.2,0.12553 -1.32,0 -1.86,-0.0565 -1.2,-0.12553 z m 85.12,-0.002 c 0.836,-0.0659 2.204,-0.0659 3.04,0 0.836,0.0659 0.152,0.11986 -1.52,0.11986 -1.672,0 -2.356,-0.0539 -1.52,-0.11986 z m 99.68573,0.003 c 0.57517,-0.0712 1.43917,-0.0697 1.92,0.003 0.48087,0.073 0.0102,0.13129 -1.04572,0.1295 -1.056,-0.002 -1.44941,-0.0615 -0.87428,-0.13276 z m -229.13287,-6.07904 c 0.56808,-0.0707 1.57608,-0.0718 2.24,-0.003 0.66393,0.0693 0.19914,0.12711 -1.03286,0.12853 -1.232,0.001 -1.77521,-0.0553 -1.20714,-0.12595 z m 65.92714,-2.87488 c 0.396,-0.0763 1.044,-0.0763 1.44,0 0.396,0.0763 0.072,0.13868 -0.72,0.13868 -0.792,0 -1.116,-0.0624 -0.72,-0.13868 z m 52.80375,-6.4e-4 c 0.39804,-0.0765 0.97404,-0.0736 1.28,0.006 0.30592,0.0801 -0.0198,0.14272 -0.72375,0.13917 -0.704,-0.004 -0.95433,-0.0691 -0.55625,-0.14562 z m -141.92375,-32.6465 c 0.66,-0.069 1.74,-0.069 2.4,0 0.66,0.069 0.12,0.12553 -1.2,0.12553 -1.32,0 -1.86,-0.0565 -1.2,-0.12553 z m 86.08,0.0125 c 0.308,-0.0805 0.812,-0.0805 1.12,0 0.308,0.0805 0.056,0.14635 -0.56,0.14635 -0.616,0 -0.868,-0.0659 -0.56,-0.14635 z m 54.26,0.002 c 0.23101,-0.0924 0.50701,-0.0811 0.61335,0.0252 0.10633,0.10634 -0.0827,0.18197 -0.42,0.16807 -0.3728,-0.0154 -0.44861,-0.0912 -0.19335,-0.19333 z m -103.06714,-2.89235 c 0.56808,-0.0707 1.57608,-0.0719 2.24,-0.003 0.66393,0.0693 0.19914,0.12711 -1.03286,0.12853 -1.232,0.001 -1.77521,-0.0553 -1.20714,-0.12595 z m 35.37323,0.009 c 0.31135,-0.0811 0.74335,-0.0758 0.96,0.0119 0.21665,0.0877 -0.0381,0.15404 -0.56609,0.14752 -0.528,-0.007 -0.70526,-0.0782 -0.39391,-0.15937 z m 78.87391,0.01 c 0.22,-0.0888 0.58,-0.0888 0.8,0 0.22,0.0888 0.04,0.16141 -0.4,0.16141 -0.44,0 -0.62,-0.0726 -0.4,-0.16141 z m -21.12,-0.32 c 0.22,-0.0888 0.58,-0.0888 0.8,0 0.22,0.0888 0.04,0.16141 -0.4,0.16141 -0.44,0 -0.62,-0.0726 -0.4,-0.16141 z"
         id="path191" />
      <path
         style="fill:#888888;stroke-width:0.32"
         d="m 344.09153,208.80001 c 0.003,-0.88 0.0645,-1.20202 0.13811,-0.7156 0.0735,0.48642 0.0716,1.20642 -0.004,1.6 -0.0759,0.39358 -0.13612,-0.004 -0.13372,-0.8844 z"
         id="path189" />
      <path
         style="fill:#7b7b7b;stroke-width:0.32"
         d="m 248.40001,229.20479 c 0.836,-0.0659 2.204,-0.0659 3.04,0 0.836,0.0659 0.152,0.11986 -1.52,0.11986 -1.672,0 -2.356,-0.0539 -1.52,-0.11986 z m 70.72609,0.0135 c 0.31135,-0.0811 0.74335,-0.0758 0.95999,0.0119 0.21667,0.0877 -0.0381,0.15404 -0.56608,0.14751 -0.528,-0.007 -0.70526,-0.0782 -0.39391,-0.15937 z m 6.71999,-38.40001 c 0.31136,-0.0811 0.74336,-0.0758 0.96,0.0119 0.21667,0.0876 -0.0381,0.15404 -0.56608,0.14751 -0.528,-0.007 -0.70525,-0.0782 -0.39392,-0.15937 z m 43.67392,-0.01 c 0.572,-0.071 1.508,-0.071 2.08,0 0.572,0.071 0.104,0.12906 -1.04,0.12906 -1.144,0 -1.612,-0.0581 -1.04,-0.12906 z M 140.866,185.04303 c 1.18031,-0.0614 3.19631,-0.0618 4.48,-9.6e-4 1.2837,0.0609 0.318,0.11113 -2.146,0.11162 -2.464,6.4e-4 -3.5143,-0.0493 -2.334,-0.11071 z m 72.65841,0.007 c 0.48642,-0.0736 1.20642,-0.0716 1.6,0.004 0.39358,0.076 -0.004,0.13614 -0.8844,0.13374 -0.88,-0.003 -1.20202,-0.0645 -0.7156,-0.13811 z m 167.1956,-2.88799 c 1.276,-0.0607 3.364,-0.0607 4.64,0 1.276,0.0607 0.232,0.11044 -2.32,0.11044 -2.552,0 -3.596,-0.0497 -2.32,-0.11044 z m -139.0356,-0.31202 c 0.48642,-0.0736 1.20642,-0.0716 1.6,0.004 0.39358,0.076 -0.004,0.13614 -0.8844,0.13374 -0.88,-0.003 -1.20202,-0.0645 -0.7156,-0.13811 z m 55.3556,-0.003 c 0.66,-0.069 1.74,-0.069 2.4,0 0.66,0.069 0.12,0.12553 -1.2,0.12553 -1.32,0 -1.86,-0.0565 -1.2,-0.12553 z m -135.6756,-32.31651 c 0.48641,-0.0736 1.20641,-0.0716 1.6,0.004 0.39358,0.076 -0.004,0.13614 -0.8844,0.13374 -0.88,-0.003 -1.20202,-0.0646 -0.7156,-0.13811 z m 48.32,-0.32 c 0.48642,-0.0736 1.20642,-0.0716 1.6,0.004 0.39358,0.076 -0.004,0.13614 -0.8844,0.13374 -0.88,-0.003 -1.20202,-0.0646 -0.7156,-0.13811 z m 250.40133,-0.002 c 0.57517,-0.0712 1.43917,-0.0697 1.92,0.003 0.48087,0.073 0.0102,0.13129 -1.04572,0.12949 -1.05601,-0.002 -1.44941,-0.0615 -0.87428,-0.13275 z M 132.8844,146.33038 c 0.48642,-0.0736 1.20642,-0.0716 1.6,0.004 0.39359,0.076 -0.004,0.13614 -0.8844,0.13374 -0.88,-0.003 -1.20201,-0.0646 -0.7156,-0.13811 z m 95.68001,0 c 0.48642,-0.0736 1.20642,-0.0716 1.6,0.004 0.39358,0.076 -0.004,0.13614 -0.8844,0.13374 -0.88,-0.003 -1.20202,-0.0646 -0.7156,-0.13811 z m 68.4756,-0.003 c 0.66,-0.069 1.74,-0.069 2.4,0 0.66,0.069 0.12,0.12553 -1.2,0.12553 -1.32,0 -1.86,-0.0565 -1.2,-0.12553 z m 83.84,-0.002 c 0.836,-0.0659 2.204,-0.0659 3.04,0 0.836,0.0659 0.152,0.11986 -1.52,0.11986 -1.672,0 -2.356,-0.0539 -1.52,-0.11986 z m 101.92573,0.003 c 0.57517,-0.0712 1.43917,-0.0697 1.92,0.003 0.48087,0.073 0.0102,0.13129 -1.04572,0.1295 -1.056,-0.002 -1.44941,-0.0615 -0.87428,-0.13276 z m -220.64573,-6.08106 c 0.66,-0.069 1.74,-0.069 2.4,0 0.66,0.069 0.12,0.12553 -1.2,0.12553 -1.32,0 -1.86,-0.0565 -1.2,-0.12553 z m 64.16,-2.87272 c 0.396,-0.0763 1.044,-0.0763 1.44,0 0.396,0.0763 0.072,0.13868 -0.72,0.13868 -0.792,0 -1.116,-0.0624 -0.72,-0.13868 z m 52.48,0 c 0.396,-0.0763 1.044,-0.0763 1.44,0 0.396,0.0763 0.072,0.13868 -0.72,0.13868 -0.792,0 -1.116,-0.0624 -0.72,-0.13868 z m -139.68,-32.64728 c 0.66,-0.069 1.74,-0.069 2.4,0 0.66,0.069 0.12,0.12553 -1.2,0.12553 -1.32,0 -1.86,-0.0565 -1.2,-0.12553 z m 79.52,0.0212 c 0.22,-0.0888 0.58,-0.0888 0.8,0 0.22,0.0888 0.04,0.1614 -0.4,0.1614 -0.44,0 -0.62,-0.0726 -0.4,-0.1614 z m 57.28,0 c 0.22,-0.0888 0.58,-0.0888 0.8,0 0.22,0.0888 0.04,0.1614 -0.4,0.1614 -0.44,0 -0.62,-0.0726 -0.4,-0.1614 z m -108.96,-2.90118 c 0.66,-0.069 1.74,-0.069 2.4,0 0.66,0.069 0.12,0.12552 -1.2,0.12552 -1.32,0 -1.86,-0.0565 -1.2,-0.12552 z m 41.60609,0.0114 c 0.31135,-0.0811 0.74335,-0.0758 0.96,0.0119 0.21665,0.0877 -0.0381,0.15404 -0.56609,0.14751 -0.528,-0.007 -0.70526,-0.0782 -0.39391,-0.15937 z m 76.01391,0.003 c 0.23101,-0.0924 0.50701,-0.0811 0.61335,0.0252 0.10633,0.10634 -0.0827,0.18197 -0.42,0.16807 -0.3728,-0.0154 -0.44861,-0.0912 -0.19335,-0.19333 z m -21.12,-0.32 c 0.23101,-0.0924 0.50701,-0.0811 0.61335,0.0252 0.10633,0.10634 -0.0827,0.18197 -0.42,0.16807 -0.3728,-0.0154 -0.44861,-0.0912 -0.19335,-0.19333 z"
         id="path187" />
      <path
         style="fill:#747474;stroke-width:0.32"
         d="m 194.88001,151.89987 c 0,-0.0551 0.468,-0.52307 1.04,-1.04 l 1.04,-0.93987 -0.93987,1.04 c -0.87609,0.96943 -1.14013,1.18709 -1.14013,0.93987 z m 90.85578,-44.61987 -0.77578,-0.88 0.88,0.77578 c 0.82249,0.72509 1.02675,0.98422 0.77578,0.98422 -0.0573,0 -0.45332,-0.396 -0.88,-0.88 z"
         id="path185" />
      <path
         style="fill:#163ef0;stroke-width:0.32"
         d="m 140.16,181.77778 c -16.38771,-0.17341 -16.837,-0.19487 -18.30776,-0.87437 -4.02664,-1.86033 -6.51784,-5.51967 -7.79183,-11.44547 -0.73628,-3.42475 -0.64206,-6.10308 0.33479,-9.51712 1.39136,-4.86268 3.34753,-7.30306 7.4084,-9.2422 L 124,149.6498 l 23.49864,0.0801 23.49863,0.0801 1.92363,0.97104 c 2.81079,1.41888 3.94712,2.42741 5.15925,4.57897 1.47356,2.61563 3.03996,7.42249 3.03942,9.3272 -6.4e-4,1.80015 -0.71158,5.9917 -1.39087,8.1988 -1.02482,3.32975 -3.92772,6.66225 -7.08869,8.13777 -1.91114,0.89209 -1.95178,0.89632 -8.8,0.91401 -3.784,0.01 -14.44001,-0.0622 -23.68001,-0.16 z m 63.20001,-0.22873 c -3.32002,-1.05856 -6.36144,-4.06882 -8.37611,-8.29031 -1.00234,-2.1003 -1.09249,-2.55589 -1.26638,-6.4 -0.16178,-3.57657 -0.098,-4.455 0.46959,-6.46716 1.28436,-4.55322 4.19896,-8.07152 8.28638,-10.00273 l 2.11616,-0.99984 23.37523,0.23408 c 23.30805,0.23342 23.37985,0.23616 24.98518,0.95435 4.40857,1.97231 7.45705,7.13107 8.03116,13.59064 0.24343,2.73891 -0.12202,5.05737 -1.36063,8.63192 -1.10661,3.19365 -2.8392,5.40512 -5.7709,7.36595 l -2.3833,1.59406 -19.73319,0.002 c -10.85326,9.6e-4 -21.31719,0.0681 -23.25319,0.14959 -2.66818,0.11229 -3.90719,0.0247 -5.12,-0.362 z m 159.83091,0.0974 c -4.37756,-1.42076 -7.98019,-5.79549 -9.43676,-11.45916 -0.62599,-2.43413 -0.68352,-3.19612 -0.47104,-6.24 0.28691,-4.11046 0.68963,-5.37786 2.64195,-8.31456 1.54502,-2.32406 2.87718,-3.55534 5.51494,-5.09737 l 1.6,-0.93536 23.52,0.10124 c 18.95408,0.0816 23.8306,0.18827 25.12,0.54954 2.309,0.64695 5.61018,3.70883 7.01805,6.50926 1.60295,3.18849 2.23395,6.49162 1.97063,10.31534 -0.28032,4.0698 -0.80669,5.75863 -2.69767,8.65532 -1.66848,2.55588 -3.91321,4.69603 -5.99203,5.7129 -1.26416,0.61837 -1.95808,0.63545 -24.48,0.60285 -16.45664,-0.0238 -23.50643,-0.13983 -24.30807,-0.4 z m -80.09458,-0.36794 c -3.92412,-1.07852 -7.3651,-5.21037 -8.96493,-10.76487 -0.71334,-2.47668 -0.98347,-6.80985 -0.56563,-9.07364 0.93099,-5.044 4.89059,-9.79837 9.47761,-11.37996 1.0495,-0.36187 5.42641,-0.42102 24.60185,-0.3325 l 23.32523,0.10769 1.64173,0.72605 c 1.10448,0.48846 2.35879,1.48616 3.83293,3.04882 3.07591,3.26065 4.15626,5.93668 4.48669,11.11371 0.40058,6.27601 -1.96842,11.23889 -7.22535,15.13668 l -2.56188,1.89952 -23.25229,-0.0286 c -18.2502,-0.0225 -23.58437,-0.11988 -24.79596,-0.45289 z m 159.14367,-0.0641 c -5.17296,-1.77844 -9.28,-8.55145 -9.28,-15.30385 0,-5.73064 3.00349,-12.06916 6.88,-14.51949 3.42346,-2.16396 2.04804,-2.07228 27.91783,-1.8608 l 23.44109,0.19163 1.93741,1.03261 c 1.06553,0.56794 2.63478,1.79571 3.4872,2.72838 3.14192,3.43777 3.91302,5.84834 3.97836,12.43711 0.0323,3.25324 -0.0694,4.11629 -0.66547,5.64812 -1.53977,3.95705 -4.77843,8.01012 -7.52579,9.41827 l -1.50934,0.77362 -23.61066,-0.0252 c -20.42743,-0.0219 -23.80477,-0.092 -25.05063,-0.52033 z"
         id="path183" />
      <path
         style="fill:#656565;stroke-width:0.32"
         d="m 242.32001,229.20479 c 0.836,-0.0659 2.204,-0.0659 3.04,0 0.836,0.0659 0.152,0.11986 -1.52,0.11986 -1.672,0 -2.356,-0.0539 -1.52,-0.11986 z m 74.88609,0.0135 c 0.31135,-0.0811 0.74335,-0.0758 0.96,0.0119 0.21665,0.0877 -0.0381,0.15404 -0.56609,0.14751 -0.528,-0.007 -0.70526,-0.0782 -0.39391,-0.15937 z m 6.71999,-38.40001 c 0.31136,-0.0811 0.74336,-0.0758 0.96,0.0119 0.21667,0.0876 -0.0381,0.15404 -0.56608,0.14751 -0.528,-0.007 -0.70525,-0.0782 -0.39392,-0.15937 z m 41.75392,-0.01 c 0.572,-0.071 1.508,-0.071 2.08,0 0.572,0.071 0.104,0.12906 -1.04,0.12906 -1.144,0 -1.612,-0.0581 -1.04,-0.12906 z M 150,185.04242 c 1.276,-0.0607 3.364,-0.0607 4.64001,0 1.276,0.0607 0.232,0.11044 -2.32001,0.11044 -2.552,0 -3.596,-0.0497 -2.32,-0.11044 z m 60.32441,0.008 c 0.48642,-0.0736 1.20642,-0.0716 1.6,0.004 0.39358,0.076 -0.004,0.13614 -0.8844,0.13374 -0.88,-0.003 -1.20202,-0.0645 -0.7156,-0.13811 z m 179.6756,-2.88799 c 1.276,-0.0607 3.364,-0.0607 4.64,0 1.276,0.0607 0.232,0.11044 -2.32,0.11044 -2.552,0 -3.596,-0.0497 -2.32,-0.11044 z m -145.1156,-0.31202 c 0.48642,-0.0736 1.20642,-0.0716 1.6,0.004 0.39358,0.076 -0.004,0.13614 -0.8844,0.13374 -0.88,-0.003 -1.20202,-0.0645 -0.7156,-0.13811 z m 47.50846,-0.001 c 0.56808,-0.0707 1.57608,-0.0718 2.24,-0.003 0.66393,0.0693 0.19914,0.12711 -1.03286,0.12853 -1.232,0.001 -1.77521,-0.0553 -1.20714,-0.12595 z M 164.56441,149.53038 c 0.48641,-0.0736 1.20641,-0.0716 1.6,0.004 0.39358,0.076 -0.004,0.13614 -0.8844,0.13374 -0.88,-0.003 -1.20202,-0.0646 -0.7156,-0.13811 z m 48.32,-0.32 c 0.48642,-0.0736 1.20642,-0.0716 1.6,0.004 0.39358,0.076 -0.004,0.13614 -0.8844,0.13374 -0.88,-0.003 -1.20202,-0.0646 -0.7156,-0.13811 z m 251.04133,-0.002 c 0.57517,-0.0712 1.43917,-0.0697 1.92,0.003 0.48087,0.073 0.0102,0.13129 -1.04572,0.12949 -1.056,-0.002 -1.44941,-0.0615 -0.87428,-0.13275 z m -334.24134,-2.878 c 0.48642,-0.0736 1.20642,-0.0716 1.6,0.004 0.39359,0.076 -0.004,0.13614 -0.8844,0.13374 -0.88,-0.003 -1.20201,-0.0646 -0.7156,-0.13811 z m 95.68001,0 c 0.48642,-0.0736 1.20642,-0.0716 1.6,0.004 0.39358,0.076 -0.004,0.13614 -0.8844,0.13374 -0.88,-0.003 -1.20202,-0.0646 -0.7156,-0.13811 z m 67.02846,-0.001 c 0.56808,-0.0707 1.57608,-0.0719 2.24,-0.003 0.66393,0.0693 0.19914,0.12711 -1.03286,0.12853 -1.232,10e-4 -1.77521,-0.0553 -1.20714,-0.12595 z m 82.25786,-0.005 c 0.92992,-0.0648 2.36992,-0.0642 3.2,0.002 0.83011,0.0657 0.0693,0.11874 -1.69072,0.11791 -1.76,-9.6e-4 -2.43917,-0.0546 -1.50928,-0.11942 z m 104.31501,0.004 c 0.57517,-0.0712 1.43917,-0.0697 1.92,0.003 0.48087,0.073 0.0102,0.13129 -1.04572,0.12949 -1.056,-0.002 -1.44941,-0.0615 -0.87428,-0.13275 z M 266.79287,140.2491 c 0.56808,-0.0707 1.57608,-0.0719 2.24,-0.003 0.66393,0.0693 0.19914,0.12711 -1.03286,0.12853 -1.232,0.001 -1.77521,-0.0553 -1.20714,-0.12595 z m 62.40714,-2.87488 c 0.396,-0.0763 1.044,-0.0763 1.44,0 0.396,0.0763 0.072,0.13868 -0.72,0.13868 -0.792,0 -1.116,-0.0624 -0.72,-0.13868 z m 52.48,0 c 0.396,-0.0763 1.044,-0.0763 1.44,0 0.396,0.0763 0.072,0.13868 -0.72,0.13868 -0.792,0 -1.116,-0.0624 -0.72,-0.13868 z m -138.08,-32.64733 c 0.66,-0.069 1.74,-0.069 2.4,0 0.66,0.069 0.12,0.12553 -1.2,0.12553 -1.32,0 -1.86,-0.0565 -1.2,-0.12553 z m 73.44,0.0212 c 0.22,-0.0888 0.58,-0.0888 0.8,0 0.22,0.0888 0.04,0.1614 -0.4,0.1614 -0.44,0 -0.62,-0.0726 -0.4,-0.1614 z m 60.5,-0.007 c 0.23101,-0.0924 0.50701,-0.0811 0.61335,0.0252 0.10633,0.10633 -0.0827,0.18196 -0.42,0.16807 -0.3728,-0.0154 -0.44861,-0.0912 -0.19335,-0.19333 z m -115.22714,-2.89236 c 0.56808,-0.0707 1.57608,-0.0718 2.24,-0.003 0.66393,0.0693 0.19914,0.12711 -1.03286,0.12853 -1.232,0.001 -1.77521,-0.0553 -1.20714,-0.12595 z m 48.00714,0.019 c 0.22,-0.0888 0.58,-0.0888 0.8,0 0.22,0.0888 0.04,0.1614 -0.4,0.1614 -0.44,0 -0.62,-0.0726 -0.4,-0.1614 z m 72.98,-0.007 c 0.23101,-0.0924 0.50701,-0.0811 0.61335,0.0252 0.10633,0.10633 -0.0827,0.18197 -0.42,0.16807 -0.3728,-0.0154 -0.44861,-0.0912 -0.19335,-0.19333 z m -21.46,-0.31333 c 0.22,-0.0888 0.58,-0.0888 0.8,0 0.22,0.0888 0.04,0.1614 -0.4,0.1614 -0.44,0 -0.62,-0.0726 -0.4,-0.1614 z"
         id="path181" />
      <path
         style="fill:#484848;stroke-width:0.32"
         d="m 236.24001,229.20479 c 0.836,-0.0659 2.204,-0.0659 3.04,0 0.836,0.0659 0.152,0.11986 -1.52,0.11986 -1.672,0 -2.356,-0.0539 -1.52,-0.11986 z m 79.04609,0.0135 c 0.31135,-0.0811 0.74335,-0.0758 0.96,0.0119 0.21665,0.0877 -0.0381,0.15404 -0.56609,0.14751 -0.528,-0.007 -0.70526,-0.0782 -0.39391,-0.15937 z m 6.71999,-38.40001 c 0.31136,-0.0811 0.74336,-0.0758 0.96,0.0119 0.21667,0.0876 -0.0381,0.15404 -0.56608,0.14751 -0.528,-0.007 -0.70525,-0.0782 -0.39392,-0.15937 z m 39.83965,-0.0101 c 0.57517,-0.0712 1.43917,-0.0697 1.92,0.003 0.48086,0.073 0.0102,0.13129 -1.04573,0.1295 -1.056,-0.002 -1.44941,-0.0615 -0.87427,-0.13276 z m -202.73973,-5.76509 c 1.1803,-0.0614 3.1963,-0.0618 4.48,-9.6e-4 1.28369,0.0609 0.318,0.11113 -2.146,0.11162 -2.464,6.4e-4 -3.51431,-0.0493 -2.334,-0.11071 z m 48.3384,0.007 c 0.48642,-0.0736 1.20642,-0.0716 1.6,0.004 0.39358,0.076 -0.004,0.13614 -0.8844,0.13374 -0.88,-0.003 -1.20202,-0.0645 -0.7156,-0.13811 z m 191.8356,-2.88799 c 1.276,-0.0607 3.364,-0.0607 4.64,0 1.276,0.0607 0.232,0.11044 -2.32,0.11044 -2.552,0 -3.596,-0.0497 -2.32,-0.11044 z m -151.5156,-0.31202 c 0.48642,-0.0736 1.20642,-0.0716 1.6,0.004 0.39358,0.076 -0.004,0.13614 -0.8844,0.13374 -0.88,-0.003 -1.20202,-0.0645 -0.7156,-0.13811 z m 39.9956,-0.003 c 0.66,-0.069 1.74,-0.069 2.4,0 0.66,0.069 0.12,0.12553 -1.2,0.12553 -1.32,0 -1.86,-0.0565 -1.2,-0.12553 z m -119.9956,-32.31651 c 0.48641,-0.0736 1.20641,-0.0716 1.6,0.004 0.39358,0.076 -0.004,0.13614 -0.8844,0.13374 -0.88,-0.003 -1.20202,-0.0646 -0.7156,-0.13811 z m 48,-0.32 c 0.48642,-0.0736 1.20642,-0.0716 1.6,0.004 0.39358,0.076 -0.004,0.13614 -0.8844,0.13374 -0.88,-0.003 -1.20202,-0.0646 -0.7156,-0.13811 z m 252.00133,-0.002 c 0.57517,-0.0712 1.43917,-0.0697 1.92,0.003 0.48087,0.073 0.0102,0.13129 -1.04572,0.12949 -1.056,-0.002 -1.44941,-0.0615 -0.87428,-0.13275 z M 126.8044,146.33038 c 0.48642,-0.0736 1.20642,-0.0716 1.6,0.004 0.39358,0.076 -0.004,0.13614 -0.8844,0.13374 -0.88,-0.003 -1.20202,-0.0646 -0.7156,-0.13811 z m 95.36001,0 c 0.48642,-0.0736 1.20642,-0.0716 1.6,0.004 0.39358,0.076 -0.004,0.13614 -0.8844,0.13374 -0.88,-0.003 -1.20202,-0.0646 -0.7156,-0.13811 z m 65.5956,-0.003 c 0.66,-0.069 1.74,-0.069 2.4,0 0.66,0.069 0.12,0.12553 -1.2,0.12553 -1.32,0 -1.86,-0.0565 -1.2,-0.12553 z m 80.64,-0.002 c 0.836,-0.0659 2.204,-0.0659 3.04,0 0.836,0.0659 0.152,0.11986 -1.52,0.11986 -1.672,0 -2.356,-0.0539 -1.52,-0.11986 z m 106.72573,0.003 c 0.57517,-0.0712 1.43917,-0.0697 1.92,0.003 0.48087,0.073 0.0102,0.13129 -1.04572,0.1295 -1.056,-0.002 -1.44941,-0.0615 -0.87428,-0.13276 z m -203.68573,-6.08106 c 0.66,-0.069 1.74,-0.069 2.4,0 0.66,0.069 0.12,0.12553 -1.2,0.12553 -1.32,0 -1.86,-0.0565 -1.2,-0.12553 z m 60.64,-2.87272 c 0.396,-0.0763 1.044,-0.0763 1.44,0 0.396,0.0763 0.072,0.13868 -0.72,0.13868 -0.792,0 -1.116,-0.0624 -0.72,-0.13868 z m 52.48375,-6.4e-4 c 0.39804,-0.0765 0.97404,-0.0736 1.28,0.006 0.30592,0.0801 -0.0198,0.14272 -0.72375,0.13917 -0.704,-0.004 -0.95433,-0.0691 -0.55625,-0.14562 z M 248.40001,104.72689 c 0.66,-0.069 1.74,-0.069 2.4,0 0.66,0.069 0.12,0.12553 -1.2,0.12553 -1.32,0 -1.86,-0.0565 -1.2,-0.12553 z m 66.88609,0.0114 c 0.31135,-0.0811 0.74335,-0.0758 0.96,0.0119 0.21665,0.0877 -0.0381,0.15404 -0.56609,0.14752 -0.528,-0.007 -0.70526,-0.0782 -0.39391,-0.15937 z m 63.51391,0.01 c 0.22,-0.0888 0.58,-0.0888 0.8,0 0.22,0.0888 0.04,0.1614 -0.4,0.1614 -0.44,0 -0.62,-0.0726 -0.4,-0.1614 z m -121.12,-2.90118 c 0.66,-0.069 1.74,-0.069 2.4,0 0.66,0.069 0.12,0.12552 -1.2,0.12552 -1.32,0 -1.86,-0.0565 -1.2,-0.12552 z m 54.24,0.0212 c 0.22,-0.0888 0.58,-0.0888 0.8,0 0.22,0.0888 0.04,0.1614 -0.4,0.1614 -0.44,0 -0.62,-0.0726 -0.4,-0.1614 z m 69.76,0 c 0.22,-0.0888 0.58,-0.0888 0.8,0 0.22,0.0888 0.04,0.1614 -0.4,0.1614 -0.44,0 -0.62,-0.0726 -0.4,-0.1614 z m -21.12,-0.32 c 0.22,-0.0888 0.58,-0.0888 0.8,0 0.22,0.0888 0.04,0.1614 -0.4,0.1614 -0.44,0 -0.62,-0.0726 -0.4,-0.1614 z"
         id="path179" />
      <path
         style="fill:#343434;stroke-width:0.32"
         d="m 389.44001,136.21987 c 0,-0.0551 0.468,-0.52307 1.04,-1.04 l 1.04,-0.93987 -0.93987,1.04 c -0.8761,0.96943 -1.14013,1.18709 -1.14013,0.93987 z M 283.20001,108.96 c -0.77729,-0.792 -1.34126,-1.44 -1.25326,-1.44 0.088,0 0.79597,0.648 1.57326,1.44 0.77729,0.792 1.34125,1.44 1.25325,1.44 -0.088,0 -0.79596,-0.648 -1.57325,-1.44 z"
         id="path177" />
      <path
         style="fill:#010101;stroke-width:0.32"
         d="m 261.70001,226.02141 c 0.231,-0.0924 0.507,-0.0811 0.61333,0.0252 0.10634,0.10633 -0.0827,0.18196 -0.42,0.16807 -0.37278,-0.0154 -0.44861,-0.0912 -0.19333,-0.19333 z"
         id="path175" />
      <path
         style="fill:#000000;stroke-width:0.32"
         d="m 229.28515,228.62037 c -3.50937,-1.03107 -5.03875,-1.99196 -7.35389,-4.62036 -3.39181,-3.85075 -4.54805,-6.89697 -4.85845,-12.8 -0.15251,-2.90049 -0.0638,-3.83036 0.64839,-6.79927 0.45378,-1.8916 1.1058,-3.98958 1.44893,-4.66217 1.08185,-2.1206 3.05091,-4.33456 5.50083,-6.18499 3.88047,-2.93092 2.86702,-2.83357 29.49876,-2.83357 h 22.83819 l 2.25161,0.76582 c 7.81492,2.65802 12.55336,11.66118 11.30205,21.47418 -0.32259,2.52979 -0.61948,3.38586 -2.44153,7.04 -1.81046,3.6309 -2.30613,4.353 -3.89715,5.67751 -1.1257,0.93713 -2.76247,1.87823 -4.27956,2.46066 l -2.45668,0.94314 -22.97818,0.0993 c -22.41979,0.0969 -23.03273,0.0833 -25.22332,-0.56029 z m 33.20095,-2.59026 c -0.21665,-0.0877 -0.64865,-0.093 -0.96,-0.0119 -0.31135,0.0811 -0.13409,0.15285 0.39391,0.15938 0.528,0.007 0.78274,-0.0599 0.56609,-0.14752 z m -32.90454,-31.76026 c 0.0986,-0.15959 -0.10887,-0.21479 -0.46111,-0.12268 -0.7472,0.1954 -0.84165,0.41284 -0.17933,0.41284 0.25361,0 0.54181,-0.13057 0.64044,-0.29016 z m 75.21845,34.54352 c -2.89763,-1.27931 -5.82385,-5.94044 -7.23657,-11.52698 -0.60726,-2.4014 -0.66233,-3.27611 -0.50314,-7.99147 0.21113,-6.25358 0.72036,-8.77519 2.48519,-12.30629 1.45941,-2.92001 2.32432,-3.94168 4.54113,-5.36421 l 1.54172,-0.98931 14.93948,0.23774 14.93945,0.23773 1.44637,0.96846 c 3.17757,2.12762 5.25082,5.56932 6.43072,10.67528 0.60509,2.61854 0.6713,3.64639 0.53831,8.35576 -0.16544,5.85924 -0.60791,7.89014 -2.56426,11.76993 -1.34918,2.67566 -2.25395,3.77219 -4.17581,5.06087 l -1.66259,1.11485 -14.72,0.16138 c -13.58434,0.14894 -14.81875,0.11779 -16,-0.40374 z m 53.40893,-0.005 c -0.36909,-0.14922 -1.54419,-1.07964 -2.6113,-2.06761 -1.62224,-1.50191 -2.13292,-2.25392 -3.11587,-4.58841 -2.60848,-6.19503 -3.26205,-14.00376 -1.6264,-19.43211 1.96333,-6.51592 3.44189,-9.18576 6.03869,-10.90424 l 1.2912,-0.8545 15.22739,0.0507 15.22736,0.0507 1.76,1.07097 c 4.04547,2.46171 6.57418,9.04796 6.95229,18.10792 0.20426,4.89467 -0.29219,7.64119 -2.08205,11.51848 -1.41638,3.0683 -3.04765,5.18628 -4.98982,6.47863 l -1.32042,0.87863 -15.04,-0.0189 c -8.272,-0.0104 -15.34198,-0.141 -15.71107,-0.29021 z M 144.8,184.95968 c -14.8895,-0.12047 -21.75331,-0.28547 -22.46548,-0.54007 -1.69072,-0.60442 -4.66755,-2.30296 -5.7364,-3.27311 -3.42398,-3.10778 -6.19812,-10.27188 -6.19812,-16.00638 0,-2.41348 1.13216,-7.35179 2.21228,-9.64965 1.64529,-3.50022 5.08034,-6.528 9.36398,-8.25379 l 1.81626,-0.73173 23.78374,0.028 23.78375,0.028 2.88,1.43502 c 1.584,0.78927 3.32641,1.84774 3.87204,2.35215 2.2664,2.09525 4.42768,6.32683 5.65367,11.06937 0.64669,2.50158 0.6643,2.87593 0.28168,5.98548 -0.49338,4.00971 -1.65181,7.97451 -2.84597,9.74048 -1.69391,2.50502 -4.06939,4.95889 -5.66902,5.85607 -2.8497,1.59831 -5.13011,2.28734 -7.30441,2.20702 -1.0934,-0.0404 -11.63599,-0.15149 -23.428,-0.24689 z m 28.16001,-3.8037 c 2.02042,-0.97183 4.6359,-3.43772 5.9039,-5.56624 1.35198,-2.26948 1.97843,-4.95125 2.1648,-9.26723 0.16663,-3.85901 0.12922,-4.21052 -0.69821,-6.56 -1.87613,-5.32725 -3.5579,-7.49829 -7.19541,-9.28876 l -1.77508,-0.87375 -23.74546,-0.0898 -23.74546,-0.0898 -2.09058,0.94791 c -2.57754,1.16871 -5.22725,3.61696 -6.34843,5.86576 -1.9692,3.94968 -2.60516,8.96812 -1.68101,13.26496 1.46271,6.80091 4.86297,11.09722 9.68053,12.23162 0.66573,0.15676 11.6504,0.29937 24.4104,0.31691 l 23.20001,0.0319 1.92,-0.92352 z m 30.05402,3.47582 c -2.27135,-0.56982 -5.42556,-2.36523 -6.1696,-3.51179 -0.28553,-0.44 -1.19152,-1.49053 -2.01331,-2.33451 -1.03626,-1.06424 -1.89161,-2.44077 -2.79108,-4.49171 -1.23963,-2.82653 -1.30633,-3.14759 -1.50959,-7.2655 -0.19064,-3.86235 -0.13814,-4.58982 0.50727,-7.02829 0.91818,-3.46907 3.04188,-7.17671 5.28504,-9.22683 0.94205,-0.86099 3.01305,-2.23697 4.60223,-3.05775 l 2.88939,-1.49231 23.93281,0.20928 23.93282,0.20929 2.22182,0.93121 c 5.49357,2.30247 9.57415,8.85975 10.24758,16.46735 0.26964,3.04616 -0.28943,6.30732 -1.78278,10.39919 -1.49021,4.08327 -4.6262,7.40282 -9.13608,9.67088 l -1.64947,0.82953 -23.31053,0.0901 c -20.04026,0.0774 -23.58355,0.0216 -25.25652,-0.39812 z m 50.26598,-3.64428 c 0.88,-0.51286 2.4797,-1.83755 3.5549,-2.94374 1.6844,-1.73297 2.09183,-2.40094 2.94455,-4.82752 1.39698,-3.97538 1.76582,-6.17532 1.50391,-8.97026 -0.62369,-6.65571 -3.76568,-12.02254 -8.16336,-13.94383 l -1.76,-0.76892 -23.52,-0.19429 -23.52,-0.19429 -2.28912,1.13053 c -1.25901,0.6218 -2.87949,1.63588 -3.60107,2.25352 -1.74566,1.49423 -3.7277,4.90059 -4.5505,7.82055 -0.58595,2.07942 -0.64322,2.89049 -0.46607,6.60054 0.18743,3.92527 0.27888,4.39027 1.27009,6.45858 1.95285,4.07491 5.09768,7.2993 8.02788,8.23096 1.00749,0.32033 6.49224,0.39568 25.12879,0.34522 l 23.84,-0.0646 z m 109.21527,3.67463 c -4.66455,-1.49144 -7.63687,-4.23953 -10.25575,-9.48211 -1.45904,-2.92071 -2.15952,-6.20126 -2.15952,-10.11352 0,-4.14091 0.68125,-6.8374 2.52442,-9.9921 1.73622,-2.97167 3.32585,-4.68875 5.93926,-6.4154 3.4545,-2.28237 1.92935,-2.16809 28.21514,-2.11405 27.23853,0.056 26.004,-0.0628 29.67168,2.85564 3.86573,3.07607 5.73776,6.14098 6.93997,11.36235 0.66825,2.90228 0.70147,3.46949 0.40278,6.88234 -0.27629,3.15745 -0.50345,4.12998 -1.50349,6.43705 -1.68307,3.88277 -3.436,6.18507 -6.47369,8.50257 -1.91853,1.46368 -3.03869,2.07982 -4.25575,2.34083 -1.12464,0.2412 -8.92326,0.34876 -24.43606,0.33705 -21.13933,-0.016 -22.916,-0.0593 -24.60899,-0.60065 z m 50.48125,-3.38282 c 2.55305,-1.88904 3.89526,-3.23061 5.2607,-5.25813 1.76586,-2.6221 2.44381,-4.82641 2.7312,-8.88039 0.27779,-3.91801 -0.32797,-7.15353 -1.93933,-10.35884 -1.24736,-2.48126 -4.03021,-5.38971 -6.16118,-6.43927 L 411.36001,149.6 h -24.6472 -24.6472 l -2.13312,1.52213 c -3.36873,2.40381 -5.91539,6.03963 -6.62166,9.45363 -0.54579,2.63824 -0.42499,7.57647 0.24877,10.1698 1.0174,3.91609 4.08864,8.26475 7.1958,10.18874 2.325,1.43969 2.28132,1.43749 27.24461,1.36917 l 23.68,-0.0648 z m -130.49827,3.05919 c -5.25532,-1.41726 -9.21419,-6.0225 -11.47808,-13.35211 -0.88008,-2.84937 -0.96298,-9.11332 -0.15599,-11.78641 1.6477,-5.45785 5.90007,-10.09126 11.02916,-12.01743 1.7858,-0.67064 2.08332,-0.67799 25.76197,-0.63634 l 23.95531,0.0421 2.48103,1.24744 c 1.94144,0.97613 2.97369,1.78209 4.74605,3.70556 3.66806,3.98078 5.1671,7.98709 5.17683,13.83546 0.01,5.68567 -1.38131,9.78855 -4.61094,13.60266 -1.39988,1.65321 -4.71012,4.22149 -6.84449,5.31036 -1.29878,0.66259 -1.5766,0.66994 -24.60635,0.6509 -21.4926,-0.0178 -23.45982,-0.0643 -25.4545,-0.60223 z m 51.00367,-3.93851 c 5.63095,-3.94817 7.63808,-7.95481 7.63808,-15.24701 0,-3.75591 -0.6095,-6.30544 -2.13862,-8.94558 -1.24832,-2.15533 -4.40922,-5.12649 -6.38208,-5.99899 L 330.86177,149.44 h -23.47065 c -19.8026,0 -23.67844,0.0733 -24.80024,0.46911 -3.3383,1.17783 -6.49991,4.2648 -8.28304,8.08752 -0.77054,1.6519 -0.87193,2.28746 -0.97609,6.11873 -0.1256,4.61984 0.17226,6.30079 1.7478,9.86336 0.73713,1.66679 2.75248,4.44969 3.95918,5.46705 1.59578,1.34539 3.34508,2.07473 5.52603,2.30398 1.27339,0.13384 12.26157,0.26291 24.41819,0.28681 l 22.10295,0.0434 z m 108.11808,3.86912 c -6.25897,-1.98918 -11.13209,-8.99271 -11.69856,-16.81293 -0.26329,-3.63499 0.70231,-8.68697 2.15908,-11.2962 3.00681,-5.38556 5.05875,-7.35605 9.56169,-9.18225 l 2.05779,-0.83456 23.94868,0.21823 23.9487,0.21822 2.04867,0.92893 c 2.43696,1.10496 4.78596,3.0134 6.49469,5.2766 2.84666,3.77041 3.66602,6.8202 3.65773,13.61483 -0.004,3.64985 -0.0845,4.19609 -0.91418,6.24 -2.00438,4.93751 -5.57068,9.32759 -8.9856,11.0611 l -2.16476,1.09891 -24.01696,0.0651 c -23.48113,0.0636 -24.06337,0.0503 -26.09697,-0.59596 z m 51.11658,-3.06912 c 2.55699,-1.29279 5.78243,-5.30029 7.36311,-9.14839 0.69801,-1.69928 0.81312,-2.47994 0.83321,-5.65162 0.0333,-5.24775 -0.55405,-8.23313 -2.08617,-10.60363 -1.57495,-2.43673 -3.47844,-4.22842 -5.72004,-5.38404 l -1.77331,-0.91421 -23.52499,-0.23527 c -26.33399,-0.26336 -24.91658,-0.36438 -28.44368,2.02704 -2.35162,1.59441 -5.164,5.9567 -5.89866,9.14937 -0.74691,3.24596 -0.68019,8.87439 0.13319,11.23854 1.64553,4.78277 4.83168,8.51947 8.295,9.72836 1.70487,0.59508 2.85725,0.62446 25.4338,0.64858 l 23.64803,0.0252 1.74051,-0.88 z M 252.64001,140.16423 229.92001,140 l -1.92,-0.91061 c -5.08436,-2.4114 -7.38996,-4.60397 -8.995,-8.55399 -2.01794,-4.96618 -2.46086,-8.82199 -1.55941,-13.5754 0.92972,-4.9024 1.6284,-6.321 5.08959,-10.33378 2.00475,-2.32423 3.6988,-3.44083 6.46289,-4.25988 2.1585,-0.63961 2.66263,-0.64827 25.56193,-0.43928 l 23.36,0.21319 2.72,1.45551 c 1.50935,0.80767 3.55497,2.25417 4.59595,3.24988 3.33378,3.18878 5.32405,8.74677 5.32405,14.8678 0,3.63233 -1.24332,7.68128 -3.56646,11.61445 -1.59144,2.69437 -4.32235,5.21637 -5.1168,4.72538 -0.21738,-0.13435 -0.29057,-0.0945 -0.17373,0.0945 0.11104,0.17968 -0.0467,0.54977 -0.35056,0.82243 -0.65052,0.58375 -4.15467,1.54297 -5.23864,1.43401 -0.4146,-0.0417 -10.97781,-0.14967 -23.47381,-0.24 z m 26.4,-2.24423 c 0,-0.176 -0.0635,-0.32 -0.14111,-0.32 -0.0776,0 -0.23012,0.144 -0.33889,0.32 -0.10878,0.176 -0.0453,0.32 0.14111,0.32 0.18639,0 0.33889,-0.144 0.33889,-0.32 z m 2.23823,-2.35167 c 2.37171,-1.7708 4.31447,-4.74352 5.63243,-8.61848 1.40462,-4.12974 0.94478,-10.08511 -1.12062,-14.51319 -1.33137,-2.85435 -3.1411,-4.68556 -6.11004,-6.18254 l -2.4,-1.21012 -22.94584,-0.2328 -22.94585,-0.2328 -2.15873,0.71838 c -2.52367,0.83982 -4.53681,2.54718 -6.5486,5.5539 -1.79332,2.68021 -2.59139,5.78275 -2.64159,10.26932 -0.0359,3.20778 0.0571,3.80917 1.04832,6.78005 1.45306,4.35502 2.80466,5.92946 6.81262,7.93585 l 2.90811,1.45581 24.19578,-0.0858 24.19578,-0.0859 z m 23.20177,3.74436 c -4.10727,-2.43075 -6.5233,-7.25997 -7.54542,-15.08197 -0.51562,-3.94586 -0.20707,-7.46138 1.02486,-11.6769 1.29187,-4.42059 3.61165,-8.24862 5.82172,-9.60682 l 1.48135,-0.91037 14.65694,-0.188 c 16.1474,-0.20712 16.26285,-0.19591 16.00605,1.55392 -0.0763,0.5201 -0.0189,1.01979 0.12784,1.11043 0.14666,0.0906 0.26666,-0.1317 0.26666,-0.49409 0,-0.91075 0.3231,-0.83154 1.81415,0.44475 1.68704,1.44405 3.65958,4.5237 4.88364,7.62469 0.94564,2.3957 0.98199,2.66969 0.97648,7.36 -0.009,7.22885 -0.50537,9.87945 -2.73548,14.59346 -1.76608,3.7332 -1.92122,3.94709 -3.74705,5.16632 l -1.90467,1.27189 -14.60355,-0.0155 -14.60352,-0.0155 -1.92,-1.13629 z m 31.74486,-2.60369 c 0.70125,-0.50019 1.49783,-1.71268 2.52282,-3.84 1.84864,-3.83686 2.35578,-6.68292 2.36541,-13.27535 0.006,-4.31636 -0.0627,-4.89774 -0.79581,-6.70187 -1.12915,-2.77883 -3.07024,-5.6363 -4.82538,-7.10342 l -1.49692,-1.25127 -14.00913,0.2054 c -9.04637,0.13263 -14.27425,0.32943 -14.7575,0.55551 -1.25875,0.5889 -3.36028,4.18915 -4.42146,7.57467 -1.19935,3.82627 -1.51693,7.52355 -0.98417,11.45752 0.91901,6.78599 2.54326,10.25612 5.77728,12.34286 l 1.44,0.92915 14.08,-0.0811 14.08,-0.0811 z m 21.69514,2.75151 c -4.81606,-2.46087 -7.84,-9.09157 -7.84,-17.19098 0,-9.54793 3.07485,-17.46914 7.68,-19.7846 l 1.76,-0.88493 14.15965,0.21108 14.15968,0.21108 2.00032,1.08619 c 3.33898,1.81305 5.72675,5.88895 6.98992,11.93165 0.78138,3.73805 0.76602,6.83832 -0.0582,11.7199 -1.17747,6.97428 -3.3894,10.8045 -7.41504,12.8401 l -1.74028,0.88 -13.88804,-0.0192 -13.88803,-0.0192 -1.92,-0.98107 z m 30.73463,-2.62193 c 1.74608,-1.11082 2.76576,-2.26733 3.56073,-4.03858 1.76032,-3.92204 2.77703,-11.91699 2.05674,-16.17342 -0.88368,-5.22206 -3.07495,-9.54036 -5.55699,-10.95117 l -1.35511,-0.77025 -14.12589,-0.18192 -14.12588,-0.18192 -1.56432,1.56934 c -4.72439,4.7396 -6.15805,19.18858 -2.5978,26.1816 0.9825,1.92986 2.76919,3.9859 4.0696,4.68317 1.08368,0.58107 1.87373,0.60962 14.91892,0.53907 12.8582,-0.0695 13.8375,-0.11451 14.72,-0.67592 z"
         id="path173" />
    </g>
  </g>
</svg>
