<?xml version="1.0" encoding="UTF-8" standalone="no"?>
<!-- Created with Inkscape (http://www.inkscape.org/) -->

<svg
   version="1.1"
   id="svg9"
   width="614.40002"
   height="345.60001"
   viewBox="0 0 614.40002 345.60001"
   sodipodi:docname="BSlogo.svg"
   inkscape:version="1.1.1 (3bf5ae0d25, 2021-09-20)"
   xmlns:inkscape="http://www.inkscape.org/namespaces/inkscape"
   xmlns:sodipodi="http://sodipodi.sourceforge.net/DTD/sodipodi-0.dtd"
   xmlns="http://www.w3.org/2000/svg"
   xmlns:svg="http://www.w3.org/2000/svg">
  <defs
     id="defs13" />
  <sodipodi:namedview
     id="namedview11"
     pagecolor="#ffffff"
     bordercolor="#666666"
     borderopacity="1.0"
     inkscape:pageshadow="2"
     inkscape:pageopacity="0.0"
     inkscape:pagecheckerboard="0"
     showgrid="false"
     inkscape:zoom="1.4380787"
     inkscape:cx="257.63542"
     inkscape:cy="161.67405"
     inkscape:window-width="1366"
     inkscape:window-height="705"
     inkscape:window-x="-8"
     inkscape:window-y="-8"
     inkscape:window-maximized="1"
     inkscape:current-layer="g15" />
  <g
     inkscape:groupmode="layer"
     inkscape:label="Image"
     id="g15">
    <g
       id="g297"
       transform="translate(0.99187882,7.8298112)">
      <path
         style="fill:#d4d4d4;stroke-width:0.32"
         d="m 330.16001,164.8824 c 1.276,-0.0607 3.364,-0.0607 4.64,0 1.276,0.0607 0.232,0.11044 -2.32,0.11044 -2.552,0 -3.596,-0.0497 -2.32,-0.11044 z"
         id="path311" />
      <path
         style="fill:#9b9b9b;stroke-width:0.32"
         d="m 330.16001,162.3224 c 1.276,-0.0607 3.364,-0.0607 4.64,0 1.276,0.0607 0.232,0.11044 -2.32,0.11044 -2.552,0 -3.596,-0.0497 -2.32,-0.11044 z"
         id="path309" />
      <path
         style="fill:#616df0;stroke-width:0.32"
         d="m 417.36001,122.01942 c 0.308,-0.0805 0.812,-0.0805 1.12,0 0.308,0.0805 0.056,0.14634 -0.56,0.14634 -0.616,0 -0.868,-0.0659 -0.56,-0.14634 z"
         id="path307" />
      <path
         style="fill:#163df0;stroke-width:0.32"
         d="m 223.55864,310.38906 c -2.97075,-0.86081 -5.46015,-1.62391 -5.53201,-1.69576 -0.0719,-0.0719 0.95192,-7.77962 2.27504,-17.12837 2.94409,-20.80195 3.69658,-28.24121 3.69758,-36.555 6.4e-4,-5.69335 -0.087,-6.70339 -0.95341,-10.98111 -0.52479,-2.59108 -1.03729,-4.84554 -1.13888,-5.00993 -0.22607,-0.36578 -15.13542,-0.36029 -20.30695,0.007 -3.4666,0.24652 -4.11609,0.18779 -11.2,-1.01274 -7.29782,-1.23678 -13.88095,-1.78404 -22.10687,-1.83777 l -2.42686,-0.0159 -4.81216,-5.70068 -4.81215,-5.70067 -1.00101,-9.57933 c -0.8298,-7.94103 -1.00196,-10.92016 -1.00664,-17.41932 -0.004,-5.09024 -0.22614,-10.3653 -0.63432,-15.04 -0.34576,-3.96 -0.63122,-9.82856 -0.63433,-13.04123 l -0.006,-5.84123 1.94567,-8.71877 c 1.71372,-7.67946 2.0732,-9.92036 3.0156,-18.79878 1.08121,-10.18611 2.47411,-19.75964 3.01817,-20.74408 0.50905,-0.92111 5.2165,-5.33203 7.06057,-6.61581 0.968,-0.67389 3.45042,-2.5696 5.51649,-4.21268 L 177.273,101.76 h 7.21226 c 6.35278,0 8.23129,0.13139 15.7635,1.10251 4.70319,0.60637 11.28725,1.33971 14.63125,1.62963 4.29746,0.37259 7.74473,0.89372 11.7582,1.7775 3.123,0.6877 5.97212,1.25036 6.33137,1.25036 0.98829,0 1.84721,2.34718 2.10408,5.74988 l 0.2167,2.87059 -1.56517,2.40563 -1.56518,2.40564 -3.68,0.005 c -2.024,0.003 -5.62271,-0.16193 -7.99713,-0.36604 -5.17383,-0.44477 -10.24154,-0.0681 -18.09726,1.34504 -4.68826,0.84337 -5.47484,1.08669 -9.05267,2.80047 l -3.91828,1.87684 -2.19296,3.54652 c -1.56761,2.53518 -2.75028,5.02554 -4.14733,8.73309 l -1.95437,5.18658 -6.4e-4,5.16036 c -6.4e-4,5.54847 -0.88065,15.58736 -1.91095,21.80035 -0.55744,3.36152 -0.63751,5.37857 -0.64261,16.1876 l -0.006,12.34759 2.12592,3.33241 c 1.16926,1.83282 2.92555,4.98459 3.90286,7.00393 0.97732,2.01933 2.69592,4.9699 3.81912,6.5568 l 2.04219,2.88529 4.01004,1.84319 4.01004,1.8432 h 5.15017 c 2.83259,0 6.69581,-0.17187 8.58492,-0.38193 l 3.43474,-0.38193 2.98,1.16711 c 3.59376,1.40748 3.46856,1.38172 9.06,1.86409 4.25107,0.36674 4.64892,0.34967 7.78571,-0.33411 3.08888,-0.67334 3.86551,-0.71092 11.84,-0.57292 6.43193,0.1113 10.46561,0.36603 16.37429,1.03404 8.42129,0.95208 7.95118,0.95655 18.72,-0.17765 1.76,-0.18537 6.04974,-0.3256 9.53276,-0.31162 5.40175,0.0217 6.95423,-0.0887 10.56,-0.75085 2.32498,-0.42695 6.149,-0.88055 8.49782,-1.00801 l 4.27058,-0.23174 -0.13636,2.04276 c -0.075,1.12351 0.0591,4.92276 0.29792,8.44276 0.48731,7.18156 0.2793,11.1397 -0.92044,17.51533 l -0.70667,3.75534 -2.45078,2.22372 c -2.05756,1.86692 -2.76098,2.3041 -4.384,2.72466 -1.06327,0.27552 -2.22899,0.50095 -2.5905,0.50095 -1.42759,0 -5.92377,-1.70218 -8.49757,-3.21703 -5.29785,-3.11814 -7.69728,-6.97047 -8.0929,-12.99333 l -0.19639,-2.98964 h 4.66326 4.66326 l 4.90501,-1.87932 4.905,-1.87931 v -1.08069 c 0,-0.92176 -0.12066,-1.09473 -0.82049,-1.1762 -0.45127,-0.0525 -2.89927,0.70496 -5.44,1.6833 l -4.61951,1.77881 -18.56,0.005 -18.56,0.005 -4.16,0.97027 -4.16,0.97027 -2.26532,2.62136 c -3.73889,4.32652 -3.47987,3.49365 -3.59727,11.56678 -0.0564,3.88002 0.11844,11.15858 0.38859,16.17458 0.60061,11.15173 1.4457,16.55939 3.32554,21.28 1.13229,2.84336 1.36963,3.21148 2.1296,3.30301 0.47041,0.0567 3.6911,-0.19742 7.15708,-0.56461 3.46598,-0.36719 8.60578,-0.87558 11.42178,-1.12976 2.816,-0.25418 8.504,-0.96028 12.64,-1.56913 4.136,-0.60884 9.104,-1.28085 11.04,-1.49336 1.936,-0.2125 6.19722,-1.01632 9.46939,-1.78626 3.27216,-0.76997 6.30498,-1.39992 6.73961,-1.39992 0.43463,0 2.65341,0.43029 4.93062,0.9562 2.27721,0.52592 4.51183,0.95792 4.96583,0.96 0.454,0.002 2.61401,-0.48696 4.79999,-1.08678 3.42,-0.9384 4.7113,-1.50343 9.25456,-4.04949 4.96198,-2.7807 5.52992,-3.20037 9.42912,-6.96738 2.88391,-2.78616 5.04275,-5.24368 7.07978,-8.05936 2.86019,-3.95346 2.98224,-4.1965 5.07248,-10.10206 2.05785,-5.81408 2.17488,-6.30812 2.98733,-12.61113 0.80038,-6.20922 0.84601,-7.3129 0.85347,-20.64 0.007,-13.37465 -0.0359,-14.44571 -0.86714,-21.38019 -0.73974,-6.17149 -0.87504,-8.56238 -0.87504,-15.46388 0,-6.14429 -0.15549,-9.44409 -0.62857,-13.33982 -0.34573,-2.84686 -0.66973,-6.67546 -0.72,-8.508 l -0.0914,-3.33188 3.84,-0.54892 c 6.77168,-0.96798 22.10234,-1.5884 28,-1.13313 3.09693,0.23906 3.47274,0.34191 4.8,1.31351 2.80074,2.05024 2.99968,2.40163 2.75226,4.86118 -0.46311,4.60312 -0.28752,4.27624 -3.19107,5.94089 -1.96506,1.12662 -4.20704,1.97923 -8.98973,3.41878 -3.50445,1.05481 -6.3905,1.8849 -6.41344,1.84465 -0.023,-0.0403 -0.82384,-2.14753 -1.77984,-4.68283 -0.956,-2.53531 -1.99018,-4.76657 -2.29818,-4.95837 -0.71728,-0.44665 -1.63974,0.0836 -1.77997,1.02324 -0.055,0.36843 0.7696,2.96845 1.83242,5.77782 1.06278,2.80937 2.29248,6.63201 2.73261,8.49476 0.44016,1.86274 1.37235,5.29602 2.07158,7.62949 1.3529,4.51487 1.78647,8.00572 2.59351,20.8827 0.18752,2.992 0.4871,6.39949 0.66572,7.57221 0.51504,3.38112 0.54256,11.81178 0.0568,17.38779 -0.24531,2.816 -1.02582,9.08 -1.73446,13.92 l -1.28842,8.8 -3.06451,8.64 c -2.33923,6.59521 -3.31593,8.94293 -4.12697,9.92 -0.58436,0.704 -3.55005,3.84489 -6.5904,6.97976 l -5.52791,5.69977 -10.72,2.19203 c -7.27568,1.48774 -12.7249,2.40836 -16.96,2.86532 -3.432,0.3703 -16.896,1.82113 -29.92,3.22406 -21.51141,2.31719 -24.85184,2.75717 -36.4759,4.80438 -7.03775,1.23948 -17.31155,3.18533 -22.83067,4.32413 -5.51912,1.13881 -10.41697,2.06024 -10.8841,2.04764 -0.46713,-0.0126 -3.27995,-0.72722 -6.2507,-1.58804 z M 405.44001,230.3587 c -3.67747,-0.30686 -10.02179,-0.55866 -14.43827,-0.57304 l -7.87824,-0.0257 -0.18582,-4.24 c -0.10221,-2.332 -0.33165,-5.464 -0.50986,-6.96 -0.17824,-1.496 -0.40006,-3.45383 -0.49293,-4.35074 l -0.16889,-1.63073 5.03702,-0.19487 c 2.77034,-0.10718 6.33299,-0.42501 7.91699,-0.70628 1.584,-0.28128 4.392,-0.71232 6.24,-0.95789 2.98052,-0.39605 3.86599,-0.68011 7.84,-2.51499 3.98045,-1.83784 4.97956,-2.15794 8.96,-2.87058 4.17911,-0.74822 4.70522,-0.92611 7.83338,-2.64879 1.84435,-1.01569 5.07523,-3.12067 7.17974,-4.67774 3.48858,-2.58107 4.00906,-3.10414 5.89511,-5.92455 l 2.0687,-3.09353 0.15037,-3.69466 c 0.1112,-2.73264 -0.0221,-4.86115 -0.51219,-8.17465 -0.36439,-2.464 -0.8248,-6.42401 -1.02317,-8.80001 -0.19834,-2.376 -0.77696,-6.768 -1.28582,-9.76 -0.50884,-2.992 -1.08724,-7.096 -1.28528,-9.12 -0.57735,-5.90022 -2.26826,-12.93945 -4.37392,-18.20867 -1.72967,-4.32829 -1.91002,-4.63611 -2.96432,-5.0598 -0.61741,-0.24812 -2.75376,-1.24791 -4.7474,-2.22175 -3.46784,-1.69395 -3.73804,-1.77158 -6.24,-1.79285 -1.59552,-0.0136 -4.29958,0.30429 -6.9352,0.81521 -6.48144,1.25646 -10.86851,1.49794 -14.32317,0.78841 -4.28521,-0.88011 -12.53513,-1.0688 -19.27683,-0.4409 -3.08,0.28686 -7.76,0.67238 -10.4,0.85671 -2.64,0.18432 -6.744,0.54802 -9.12,0.80822 -5.21392,0.57099 -34.99968,0.9893 -44.56,0.6258 l -6.32,-0.2403 -0.0126,-6.92504 c -0.007,-3.80877 -0.20818,-9.22904 -0.44722,-12.04504 l -0.4346,-5.12 -2.03279,-3.717396 c -1.54849,-2.831763 -2.66638,-4.385536 -4.69226,-6.521846 l -2.65948,-2.804445 -3.17365,0.152822 -3.17365,0.152823 -2.64687,2.502771 c -2.38207,2.25239 -2.84208,2.891837 -4.59819,6.391747 l -1.95132,3.888974 -0.22787,3.97728 c -0.12533,2.1875 -0.51131,5.92087 -0.85773,8.29639 -0.67632,4.63773 -0.74826,10.78109 -0.7653,65.34795 l -0.006,20.70706 -1.63183,0.20379 c -0.8975,0.11209 -1.9775,0.21935 -2.4,0.23837 -1.42594,0.0642 -10.82405,-0.84361 -11.21128,-1.08293 -0.60967,-0.37679 0.0904,-9.89202 1.33509,-18.14743 l 1.07566,-7.13408 -0.71189,-5.18593 c -0.5221,-3.80326 -0.70975,-6.72169 -0.70382,-10.94616 0.007,-4.68999 -0.1703,-7.03846 -0.95193,-12.63976 -0.94685,-6.78523 -0.96038,-7.07904 -0.98777,-21.43975 -0.0153,-8.00814 -0.13172,-16.43225 -0.25877,-18.72025 -0.20276,-3.65128 -0.13864,-4.64915 0.52433,-8.159997 0.48772,-2.582816 0.80967,-5.700621 0.90871,-8.8 0.14269,-4.465261 0.23638,-5.05138 1.34344,-8.404657 l 1.19006,-3.604653 4.32234,-2.36791 4.32235,-2.367911 10.07765,-1.446931 c 5.54272,-0.795814 11.87766,-1.538307 14.07766,-1.649987 5.39452,-0.273846 13.78993,-1.296739 17.38256,-2.117885 4.07962,-0.932451 10.67648,-0.850806 17.61133,0.217965 2.79062,0.430083 5.11318,0.781968 5.16122,0.781968 0.048,0 0.88556,1.060541 1.86118,2.356758 1.59693,2.12168 5.68704,10.001949 7.29776,14.06026 0.33552,0.84536 1.11312,4.036266 1.728,7.090903 1.01702,5.052486 1.11795,6.047629 1.11795,11.022987 V 106.88 h -7.14976 -7.14976 l -0.19466,-5.85249 c -0.17977,-5.405478 -0.27305,-6.100678 -1.22112,-9.101757 l -1.02646,-3.249261 -2.3865,-1.458246 c -1.31257,-0.802032 -2.66086,-1.458244 -2.99622,-1.458244 -0.33536,0 -1.72253,0.559556 -3.08262,1.24346 l -2.4729,1.243459 -1.31616,3.156541 c -1.00845,2.418525 -1.4736,4.166579 -1.98944,7.476541 -0.84707,5.435117 -1.22733,11.030637 -0.7689,11.313957 0.18359,0.11347 1.94612,0.44137 3.91671,0.72867 3.5335,0.51517 3.62326,0.51238 6.51033,-0.20225 3.60093,-0.89132 4.2186,-0.93197 19.08746,-1.25609 l 12,-0.26157 3.06352,-1.27685 c 2.90224,-1.20961 3.28131,-1.28553 7.2,-1.44179 3.4289,-0.13673 4.53565,-0.31195 6.46999,-1.02428 l 2.33353,-0.85934 6.78647,0.54574 6.78649,0.54573 8.16,-1.17811 c 4.488,-0.64795 12.69466,-1.90585 18.237,-2.79533 5.54233,-0.88948 10.5328,-1.54327 11.08988,-1.45287 0.55712,0.0904 2.88064,0.89994 5.1634,1.79897 l 4.15046,1.6346 1.39501,1.99041 c 0.76726,1.09472 2.67104,3.70202 4.23065,5.79399 l 2.83565,3.80358 2.83469,7.87642 c 2.52614,7.01914 3.04179,8.85163 4.73779,16.83641 1.8345,8.63682 1.92755,9.30628 2.57968,18.56 1.01687,14.42933 0.93255,24.66786 -0.33206,40.31133 l -1.00816,12.47134 -3.52192,5.28866 c -1.93706,2.90878 -3.56816,5.34311 -3.62464,5.40964 -0.0565,0.0665 -4.13917,1.23929 -9.07264,2.60614 -7.21463,1.99885 -10.98999,2.83741 -19.29239,4.2851 -5.67731,0.98995 -10.5384,1.83906 -10.8024,1.8869 -0.264,0.0478 -3.432,-0.15934 -7.04,-0.46041 z m -169.44,-28.7766 c -2.288,-0.13101 -7.112,-0.62187 -10.72,-1.0908 -3.608,-0.46894 -8.792,-0.93664 -11.52,-1.03933 l -4.96,-0.1867 -2.75699,-1.85197 c -2.18525,-1.4679 -2.86008,-2.10961 -3.25411,-3.09441 -0.27343,-0.68336 -1.73279,-3.85393 -3.24302,-7.04573 l -2.74588,-5.80327 v -9.02452 -9.02452 l 1.14619,-3.55042 c 0.90053,-2.7895 1.65605,-4.34452 3.52517,-7.25562 l 2.37898,-3.70519 5.03648,-2.27699 c 5.34852,-2.41806 8.11901,-3.16283 21.67318,-5.82625 2.816,-0.55335 5.37445,-1.07963 5.68545,-1.16952 0.53174,-0.1537 0.56035,0.32824 0.48,8.08604 l -0.0855,8.24948 -3.46265,0.69186 c -1.90446,0.38052 -3.77646,0.85067 -4.16,1.04476 -0.38354,0.19409 -2.13752,0.7104 -3.89773,1.14735 -1.91654,0.47575 -4.99738,1.62438 -7.68,2.86332 l -4.47962,2.06887 -1.50811,4.10573 c -0.82945,2.25816 -1.51345,4.44974 -1.52,4.87019 -0.007,0.42044 0.28559,2.50803 0.64918,4.63907 0.47689,2.7951 0.81123,3.96266 1.2,4.19061 0.29641,0.17379 2.41093,1.16663 4.69893,2.2063 l 4.16,1.89032 4.9209,0.15463 c 4.70756,0.14793 11.97671,-0.49023 13.99469,-1.22858 0.6603,-0.2416 0.68061,-0.46693 0.89704,-9.952 0.20053,-8.78763 0.15936,-10.15495 -0.43559,-14.46791 -0.5537,-4.01398 -0.65805,-6.45489 -0.66348,-15.52 -0.004,-5.97031 -0.15643,-11.68245 -0.34353,-12.8369 -0.1854,-1.144 -0.46286,-5.536 -0.61658,-9.76 -0.37707,-10.36172 -0.63052,-12.24402 -2.04546,-15.19097 -0.6314,-1.31503 -1.14799,-2.61498 -1.14799,-2.88877 0,-0.27379 0.64927,-2.72585 1.44283,-5.449025 1.40406,-4.818208 1.46075,-5.187658 2.10992,-13.751233 l 0.66709,-8.8 2.39591,-9.28 c 2.01474,-7.803594 4.07646,-15.499066 4.78104,-17.845437 0.18747,-0.62433 0.022,-0.546468 8.60321,-4.047492 11.67081,-4.761526 23.90109,-6.897773 45.12,-7.881043 l 9.6,-0.444858 8.27488,-2.18472 8.27488,-2.18472 6.76512,0.927459 c 6.71203,0.920183 6.80493,0.943674 11.83904,2.994048 2.79069,1.136624 8.26269,3.158663 12.16,4.493421 3.89735,1.334756 7.66375,2.673956 8.36976,2.975994 l 1.28365,0.549165 1.49376,6.68409 c 0.82157,3.676253 1.9247,9.852093 2.45139,13.724093 0.69607,5.117315 1.39757,8.700503 2.56855,13.12 2.5406,9.588561 4.1158,17.203486 4.41552,21.345636 l 0.271,3.745632 -1.28377,0.46776 c -0.74567,0.2717 -2.96042,0.53208 -5.28378,0.62121 -3.7864,0.14524 -4.16944,0.22356 -7.17293,1.4666 -2.98032,1.23345 -3.36393,1.31316 -6.32,1.31316 h -3.14707 v -5.92857 c 0,-5.282035 -0.10582,-6.477283 -0.97043,-10.960003 -0.94381,-4.893447 -2.19965,-8.820756 -3.65552,-11.431425 -0.39258,-0.704 -1.40982,-2.792 -2.26051,-4.64 -1.25962,-2.736246 -3.43341,-6.06375 -5.90503,-9.039027 -0.48089,-0.578906 -10.62547,-1.898532 -15.84851,-2.061607 -4.97827,-0.155433 -5.76592,-0.101069 -9.28,0.640499 -4.30504,0.908487 -10.43798,1.649309 -17.6266,2.129188 -2.65462,0.177209 -9.20662,0.960166 -14.56,1.739901 l -9.7334,1.417702 -4.97359,2.740451 -4.97359,2.740452 -1.39157,4.024243 c -1.35805,3.927312 -1.39751,4.156765 -1.63824,9.526221 -0.15562,3.470941 -0.50822,6.801373 -0.95519,9.021978 -0.6875,3.415613 -0.69768,3.761987 -0.34348,11.679997 0.20078,4.488 0.36293,13.48811 0.36035,20.00025 -0.005,11.42713 0.0288,12.08027 0.95531,18.71975 0.77884,5.58133 0.96156,7.99669 0.96829,12.79976 0.006,3.99517 0.19509,7.18692 0.58277,9.81567 0.63195,4.28509 0.70735,3.2408 -1.1744,16.26458 -0.35601,2.464 -0.74515,6.46 -0.86476,8.88 -0.11961,2.42 -0.31071,4.40176 -0.42468,4.40391 -0.11397,0.002 -4.88722,0.64948 -10.60722,1.43852 -5.72,0.78904 -10.4,1.41284 -10.4,1.38623 0,-0.0266 -1.872,-0.15557 -4.16,-0.28657 z"
         id="path305" />
      <path
         style="fill:#656565;stroke-width:0.32"
         d="m 417.52001,124.58807 c 0.22,-0.0888 0.58,-0.0888 0.8,0 0.22,0.0888 0.04,0.16141 -0.4,0.16141 -0.44,0 -0.62,-0.0726 -0.4,-0.16141 z"
         id="path303" />
      <path
         style="fill:#1b1b1b;stroke-width:0.32"
         d="m 164.64001,111.04 c 0.31855,-0.352 0.65119,-0.64 0.73919,-0.64 0.088,0 -0.10064,0.288 -0.41919,0.64 -0.31856,0.352 -0.6512,0.64 -0.7392,0.64 -0.088,0 0.10064,-0.288 0.4192,-0.64 z"
         id="path301" />
      <path
         style="fill:#000000;stroke-width:0.32"
         d="m 222.38976,312.67003 c -3.43764,-1.00432 -6.42564,-1.93443 -6.64,-2.06691 -0.54849,-0.33899 -0.4957,-1.33538 0.39522,-7.45982 4.38322,-30.13148 5.29752,-38.43579 5.27855,-47.94329 -0.0113,-5.67868 -0.12506,-7.26546 -0.7339,-10.24 l -0.72049,-3.52 -12.78457,-0.001 c -11.97409,-0.001 -13.028,-0.0475 -16.62456,-0.73161 -7.97805,-1.51745 -9.11748,-1.64008 -17.23204,-1.85445 -7.80803,-0.20628 -8.31441,-0.25652 -9.02726,-0.89563 -1.48331,-1.32986 -10.40769,-12.19545 -10.53795,-12.83013 -0.073,-0.35577 -0.57153,-4.9669 -1.10779,-10.2469 -0.7952,-7.82954 -0.97605,-11.04588 -0.98065,-17.44 -0.004,-5.09024 -0.22614,-10.3653 -0.63432,-15.04 -0.34576,-3.96 -0.63122,-9.75834 -0.63433,-12.88519 l -0.006,-5.68519 2.05906,-9.35481 c 1.81852,-8.26196 2.17564,-10.47631 3.05698,-18.95482 0.54886,-5.28 1.39545,-12.07307 1.88133,-15.09571 l 0.8834,-5.49572 1.46194,-1.70429 c 2.12455,-2.47673 4.67872,-4.72689 9.32805,-8.21777 2.26092,-1.69758 4.90157,-3.69851 5.86812,-4.44651 l 1.75736,-1.359997 h 7.42208 c 6.44082,0 8.39379,0.128512 14.77188,0.972047 4.0424,0.53462 10.94981,1.31655 15.34981,1.7376 5.81062,0.55605 9.35469,1.07363 12.95004,1.89125 2.72252,0.61913 4.97293,1.09721 5.00091,1.0624 0.028,-0.0348 0.84447,-2.8713 1.81441,-6.303297 l 1.76353,-6.24 0.55069,-8.160001 0.5507,-8.16 3.14926,-12.16 c 3.72869,-14.397332 4.33473,-16.453453 5.07497,-17.218209 0.30783,-0.318016 3.93149,-1.948211 8.05259,-3.622656 10.65332,-4.328563 16.82746,-5.80463 30.5329,-7.299581 6.60576,-0.720537 12.43241,-1.154371 17.44,-1.298528 l 7.52,-0.216483 8.54518,-2.212272 c 4.69984,-1.21675 9.00842,-2.212272 9.5746,-2.212272 0.56617,0 3.77686,0.366152 7.13481,0.813672 l 6.10541,0.813671 6.88,2.690219 c 3.784,1.479622 10.08352,3.797238 13.99891,5.150262 3.91543,1.353024 7.35242,2.630768 7.63776,2.839427 0.83447,0.610164 3.48733,12.736442 4.62324,21.13275 0.75113,5.552099 1.41827,8.971392 2.71603,13.92 2.62544,10.011338 4.21587,17.66746 4.46093,21.474462 l 0.21852,3.394456 4.17978,0.38182 c 10.53894,0.96272 9.63347,1.04064 35.72336,-3.073857 l 11.63856,-1.83545 2.60144,0.913933 c 4.95824,1.741904 8.33831,3.330724 9.00147,4.231224 0.352,0.47796 2.31572,3.12601 4.36378,5.88456 2.04806,2.75855 3.87459,5.29737 4.05894,5.64184 0.18436,0.34447 1.57674,4.07346 3.09415,8.28666 2.3719,6.58569 3.02915,8.89489 4.68502,16.46035 1.86967,8.54244 1.94842,9.09503 2.69015,18.88 1.13347,14.95264 1.06365,25.5003 -0.27667,41.8018 l -1.02957,12.52179 -3.97501,5.9802 c -2.18627,3.28911 -4.19907,6.0973 -4.4729,6.24043 -0.27385,0.14313 -4.74589,1.4218 -9.93789,2.8415 -7.55702,2.06639 -11.53804,2.94868 -19.95808,4.4232 l -10.51808,1.84192 -7.40192,-0.55456 c -7.39168,-0.55378 -21.96137,-0.75033 -21.96253,-0.29627 -0.005,1.84122 -1.55241,14.95432 -2.52099,21.36 l -1.25805,8.32 -3.19955,8.88959 -3.19952,8.88959 -2.10169,2.31041 c -1.15594,1.27073 -4.30173,4.59553 -6.99063,7.38845 l -4.88896,5.07804 -10.56,2.1986 c -11.37344,2.36796 -15.1376,2.84781 -56.16,7.15919 -15.49205,1.62818 -32.3421,4.35462 -51.45379,8.32553 -5.50758,1.14433 -10.47558,2.06621 -11.04,2.04862 -0.56442,-0.0176 -3.83882,-0.85368 -7.27646,-1.858 z m 17.45025,-2.27922 c 5.104,-1.05974 15.4,-3.01243 22.88,-4.33932 14.23323,-2.52485 14.3365,-2.53745 65.28,-7.96576 6.1264,-0.6528 10.24775,-1.32847 18.85594,-3.09128 l 11.0159,-2.25589 4.01984,-4.20927 c 2.21091,-2.31511 5.13619,-5.36949 6.50058,-6.78753 l 2.4807,-2.57825 3.05805,-8.46175 3.05805,-8.46175 1.27878,-8.32 c 2.01818,-13.13044 2.52077,-19.26367 2.18954,-26.72 -0.15245,-3.432 -0.49312,-8.184 -0.75709,-10.56 -0.26394,-2.376 -0.48448,-5.53781 -0.49008,-7.02624 -0.0208,-5.53458 -0.94704,-12.37731 -2.28694,-16.89646 -0.69188,-2.33347 -1.61207,-5.74141 -2.0449,-7.57318 -0.4328,-1.83178 -1.66042,-5.67026 -2.728,-8.52996 -1.06762,-2.8597 -1.89818,-5.49977 -1.84573,-5.86681 0.0675,-0.47216 0.32829,-0.66736 0.89175,-0.66736 0.72745,0 0.93964,0.37394 2.45145,4.32001 0.91031,2.376 1.72503,4.56648 1.81047,4.86773 0.14368,0.50649 0.35664,0.49159 2.82854,-0.19789 7.2856,-2.03219 10.79872,-3.28357 13.26957,-4.72668 l 2.59641,-1.51644 0.36359,-2.83504 c 0.56752,-4.42532 0.63366,-4.20185 -1.84781,-6.24328 l -2.21139,-1.81924 -5.89415,-0.21292 c -8.70726,-0.31454 -23.32841,0.5325 -29.16188,1.68943 l -0.91882,0.18223 0.21997,3.24605 c 0.12099,1.78532 0.56976,6.19805 0.99725,9.80605 0.6318,5.33248 0.77856,8.11684 0.78425,14.88 0.006,6.73695 0.15719,9.62905 0.79616,15.2 0.70189,6.11942 0.78938,8.20659 0.79139,18.88 0.003,11.26226 -0.0547,12.47215 -0.92409,19.68 -0.89469,7.41756 -0.9865,7.8501 -2.68656,12.65788 -2.45978,6.95617 -2.39143,6.81918 -5.63008,11.28259 -2.0785,2.86449 -4.09293,5.13444 -7.03197,7.92395 -3.82691,3.63222 -4.49501,4.11843 -9.42208,6.857 -4.55405,2.53121 -5.83994,3.08961 -9.1033,3.95307 -2.09011,0.55303 -4.15846,1.00551 -4.59637,1.00551 -0.4379,0 -2.65935,-0.4303 -4.93656,-0.95621 -2.27721,-0.52591 -4.46678,-0.95791 -4.86571,-0.96 -0.39893,-0.002 -3.42293,0.63047 -6.72,1.40569 -3.29707,0.77522 -8.08267,1.65081 -10.63467,1.94577 -2.552,0.29495 -7.448,0.96492 -10.88,1.48881 -3.432,0.52389 -9.192,1.22498 -12.8,1.55798 -3.608,0.333 -8.946,0.85415 -11.86223,1.15811 -2.91623,0.30396 -5.52761,0.46617 -5.80306,0.36047 -0.27546,-0.1057 -1.03096,-1.53508 -1.67889,-3.1764 -1.69569,-4.29543 -2.6779,-10.28055 -3.22052,-19.62422 -0.55916,-9.62861 -0.62236,-23.9206 -0.11011,-24.90104 0.54286,-1.03904 4.78126,-5.98398 5.53872,-6.46204 0.36085,-0.22774 2.31209,-0.78216 4.33609,-1.23204 3.66932,-0.8156 3.73477,-0.81838 22.56,-0.95947 l 18.88,-0.1415 4.30399,-1.64583 c 4.58846,-1.75461 5.55549,-1.88316 5.71543,-0.75973 0.12324,0.86566 0.0352,0.91309 -5.80438,3.12617 l -4.68488,1.77548 h -4.35905 -4.35905 l 0.20888,2.96 c 0.30375,4.3045 1.4103,7.24176 3.64671,9.68 2.32856,2.5387 6.37965,4.96072 10.22023,6.11038 l 2.9576,0.88535 2.36532,-0.55763 c 2.20346,-0.51947 2.53787,-0.71793 4.88692,-2.90024 l 2.5216,-2.34262 0.70799,-3.79762 c 1.19217,-6.39466 1.39709,-10.37801 0.89053,-17.3103 -0.24728,-3.38398 -0.36646,-7.25191 -0.26485,-8.5954 l 0.18474,-2.44272 -4.44887,0.23212 c -2.44687,0.12767 -5.88886,0.52217 -7.64886,0.87667 -2.48365,0.50026 -5.16996,0.69646 -12,0.87642 -4.84,0.12753 -11.21015,0.4974 -14.15589,0.82194 l -5.35589,0.59006 -6.80411,-0.76382 c -5.36947,-0.60278 -8.99784,-0.79024 -17.2084,-0.8891 -9.4225,-0.11345 -10.71934,-0.0645 -13.74288,0.51823 -2.3057,0.44441 -3.51825,0.54734 -3.91933,0.33269 -0.31941,-0.17094 -0.75912,-0.2795 -0.97712,-0.24125 -0.21801,0.0383 -1.83638,-0.0346 -3.59638,-0.16179 -2.63421,-0.19045 -3.81309,-0.46572 -6.66748,-1.55683 l -3.46749,-1.32546 -4.53251,0.54306 c -2.49289,0.29869 -6.18138,0.54189 -8.19666,0.54046 l -3.66414,-0.003 -4.26781,-1.96676 -4.26782,-1.96674 -1.86846,-2.59326 c -1.02766,-1.42628 -2.75953,-4.37348 -3.8486,-6.54932 -1.08908,-2.17585 -2.94289,-5.4804 -4.11959,-7.34346 l -2.13944,-3.38737 -0.0921,-11.01782 c -0.0882,-10.54831 -0.0565,-11.24447 0.7431,-16.33655 1.28878,-8.20715 1.72921,-13.38158 1.73952,-20.43677 l 0.009,-6.47805 2.05512,-5.47534 c 1.13032,-3.01143 2.59828,-6.36031 3.26214,-7.44195 3.355,-5.46638 2.92097,-5.03222 7.043,-7.04504 3.29611,-1.60952 4.34013,-1.95031 8.11138,-2.64772 7.89765,-1.46049 11.47473,-1.70747 21.60841,-1.49196 l 9.28005,0.19736 1.55744,-2.34218 1.55745,-2.34219 -0.22681,-3.19923 c -0.27733,-3.91169 -1.10432,-5.97695 -2.39195,-5.97342 -0.44893,10e-4 -3.40823,-0.56529 -6.57623,-1.25893 -4.11,-0.8999 -7.50167,-1.40939 -11.84,-1.77859 -3.344,-0.28458 -9.34198,-0.94206 -13.32885,-1.46107 -6.46941,-0.84218 -8.17603,-0.94365 -15.87186,-0.94365 h -8.62302 l -4.22895,3.36221 c -2.32592,1.84921 -5.04758,3.92052 -6.04813,4.6029 -1.00056,0.68238 -2.77359,2.3065 -3.94006,3.60915 l -2.12087,2.36846 -0.86426,5.42864 c -0.47535,2.98575 -1.34856,9.96464 -1.94047,15.50864 -0.9266,8.67892 -1.32342,11.1796 -2.85486,17.99098 l -1.77868,7.91097 0.006,8.24903 c 0.004,5.49774 0.21534,10.65043 0.63433,15.44903 0.39425,4.51509 0.63841,10.12356 0.65477,15.04 0.0206,6.193 0.20667,9.50257 0.88566,15.75415 l 0.85958,7.91416 4.8,5.71973 4.8,5.71973 8,0.22646 c 7.22751,0.20459 8.61798,0.33851 14.4,1.38689 7.23798,1.31238 9.12723,1.38386 24.16,0.91409 7.12542,-0.22267 8.57456,-0.19247 9.07202,0.18901 0.43725,0.33533 0.87643,1.86506 1.68,5.85179 1.3575,6.73496 1.40448,10.14639 0.29526,21.44399 -0.7725,7.86807 -1.30708,11.98087 -4.19498,32.27413 -0.79789,5.60677 -1.40607,10.23408 -1.35151,10.2829 0.2758,0.24678 11.41159,3.31936 12.09921,3.33841 0.44,0.0122 4.976,-0.84491 10.08,-1.90464 z m 18.18156,-18.21482 c 3.20014,-0.34321 7.76244,-0.78861 10.13844,-0.98977 2.376,-0.20117 7.56,-0.84761 11.52,-1.43654 3.96,-0.58894 9.288,-1.31248 11.84,-1.60787 2.552,-0.29539 7.33984,-1.16814 10.63965,-1.93944 3.29981,-0.7713 6.32381,-1.4032 6.72,-1.40422 0.39619,-9.6e-4 2.77967,0.46208 5.2966,1.02912 l 4.57626,1.03097 3.73453,-0.94912 c 3.23446,-0.82203 4.42128,-1.33098 8.86374,-3.80113 4.71402,-2.62115 5.4497,-3.15796 9.08842,-6.63169 2.63338,-2.51395 4.87799,-5.0416 6.70279,-7.54799 2.58252,-3.54708 2.863,-4.09705 4.77795,-9.3683 2.03171,-5.59267 2.03561,-5.61005 2.97401,-13.28 0.8841,-7.22577 0.93988,-8.38351 0.94285,-19.57461 0.003,-11.11917 -0.0594,-12.45075 -0.9568,-20.42539 -0.81849,-7.27335 -0.96,-9.73335 -0.96,-16.68928 0,-6.04934 -0.15933,-9.49663 -0.61635,-13.33461 -0.33901,-2.84686 -0.71507,-6.65925 -0.83568,-8.47198 l -0.21926,-3.29586 -2.12436,0.18735 c -9.84073,0.86787 -13.92573,1.12437 -17.90649,1.12437 -3.87773,0 -5.07652,0.1243 -7.53466,0.78124 -1.60774,0.42968 -3.5352,0.93923 -4.2832,1.13234 l -1.36,0.35109 0.009,17.34767 c 0.005,9.54121 0.14245,19.16636 0.30513,21.3892 0.25321,3.45963 0.20477,4.61147 -0.3364,8 -1.3322,8.34156 -1.59496,13.06031 -1.10408,19.8281 0.52208,7.19809 0.30025,11.23867 -0.98385,17.92047 l -0.83599,4.35011 -2.96413,2.75212 c -2.85115,2.64722 -3.06231,2.77718 -5.54038,3.40989 -1.41695,0.36178 -2.91227,0.65523 -3.32295,0.65213 -1.65085,-0.0125 -6.73992,-1.93652 -9.64607,-3.64688 -6.03292,-3.55056 -8.89732,-8.13959 -9.35251,-14.98356 l -0.20724,-3.11608 -10.21043,0.007 -10.21043,0.006 -0.004,8.86961 c -0.002,4.87828 0.16417,10.61768 0.3693,12.75422 0.35145,3.66062 0.45776,4.04706 1.84366,6.7017 l 1.4707,2.81709 3.24874,1.32777 c 2.45046,1.00151 4.37072,1.5108 7.81488,2.07267 4.35237,0.71004 4.80583,0.72628 9.68567,0.34707 2.81574,-0.21881 7.79504,-0.3834 11.06512,-0.36575 5.71949,0.0309 6.12708,-0.0103 10.7179,-1.08228 2.62476,-0.6129 4.85676,-1.25055 4.96,-1.41699 0.10323,-0.16645 1.6277,-1.40733 3.3877,-2.75753 1.76,-1.35019 4.39792,-3.7382 5.86201,-5.30667 2.44397,-2.61818 2.80074,-3.17709 4.35546,-6.82332 0.93136,-2.18434 2.2064,-5.89458 2.83341,-8.24496 l 1.14,-4.27342 0.20505,-8.96 c 0.18672,-8.15889 0.30199,-9.53222 1.28922,-15.36 0.59632,-3.52 1.46742,-9.856 1.93584,-14.08 0.78857,-7.11106 0.83501,-8.27265 0.62697,-15.68 -0.38774,-13.80648 -0.42918,-12.46562 0.38893,-12.58185 0.50567,-0.0718 0.80474,0.11674 1.01495,0.64 0.39536,0.98407 1.31811,11.53998 1.30966,14.98185 -0.009,3.69669 -2.00595,20.99072 -3.19491,27.66989 -0.91386,5.13358 -0.96659,5.89068 -0.96659,13.87351 v 8.44361 l -1.30848,4.84649 c -0.71968,2.66558 -2.1626,6.87306 -3.20653,9.34998 -1.808,4.28986 -2.02803,4.64279 -4.63856,7.44042 -2.37514,2.54535 -7.76725,7.11212 -10.41533,8.8211 -0.4669,0.30132 -2.9149,1.04872 -5.44,1.6609 -4.46423,1.08229 -4.76355,1.11245 -10.8311,1.09114 -3.432,-0.0121 -8.43762,0.15586 -11.12359,0.37315 -4.63098,0.37462 -5.12754,0.35639 -9.6,-0.35248 -3.47525,-0.55082 -5.55,-1.07688 -7.88405,-1.99904 -5.0102,-1.97948 -4.8005,-1.8034 -6.70215,-5.6279 l -1.70589,-3.43077 -0.53602,-5.6 c -0.32382,-3.38305 -0.5345,-8.48203 -0.53218,-12.88 l 0.004,-7.28 -1.84,0.0112 c -1.012,0.006 -3.37009,0.40214 -5.24021,0.88 l -3.40021,0.86884 -2.27979,2.66032 -2.27979,2.66032 -0.003,7.57968 c -0.006,16.88795 1.16708,29.38189 3.25915,34.69968 0.59404,1.50997 1.15778,2.48 1.44126,2.48 0.25608,0 3.0839,-0.28081 6.28403,-0.62402 z m 165.73627,-63.02967 c 9.98531,-1.77681 13.00038,-2.495 26.40832,-6.29046 l 1.68614,-0.47731 3.63923,-5.50927 3.6392,-5.50927 0.83888,-10.72 c 0.7256,-9.27207 0.83681,-12.51372 0.82346,-24 -0.0221,-18.9881 -0.59798,-26.06739 -3.03286,-37.28001 -1.548,-7.12863 -2.21536,-9.45901 -4.66052,-16.27443 l -2.85382,-7.95443 -3.57341,-4.84557 c -1.96541,-2.66506 -3.90643,-5.29835 -4.31344,-5.85175 -0.77286,-1.05088 -2.97046,-2.10489 -7.97737,-3.82608 l -2.57837,-0.886345 -10.38163,1.660305 c -14.72448,2.35485 -25.70317,3.8983 -27.7289,3.8983 -0.95671,0 -4.15603,-0.22746 -7.1096,-0.50546 l -5.37008,-0.50546 -2.79203,0.98546 c -2.48202,0.87604 -3.19047,0.98546 -6.38042,0.98546 -3.48867,0 -3.68582,0.0389 -7.0945,1.39814 l -3.50611,1.39814 -6.08,0.20341 c -3.344,0.11187 -9.248,0.21117 -13.12,0.22066 -6.33891,0.0155 -7.40362,0.0985 -10.69126,0.83284 -3.46183,0.77329 -3.81047,0.795 -6.72,0.41837 -4.5194,-0.58502 -4.31716,-0.36161 -4.05648,-4.48132 0.38656,-6.10887 1.5488,-11.941437 3.00963,-15.103386 l 1.28765,-2.78712 2.42521,-1.200029 c 2.76435,-1.367837 2.89818,-1.353594 5.99587,0.638179 1.78701,1.149027 1.82388,1.203914 2.82516,4.209392 0.9544,2.864845 1.02537,3.405482 1.19827,9.128954 l 0.18381,6.08377 h 2.46019 c 1.35312,0 4.6431,-0.0945 7.31107,-0.20996 l 4.85088,-0.20996 v -6.11004 c 0,-5.487314 -0.099,-6.606188 -0.96,-10.978165 -0.52729,-2.677469 -1.25856,-5.629469 -1.62502,-6.560001 -1.55962,-3.960048 -6.13965,-12.690355 -7.62026,-14.525526 l -1.57622,-1.953658 -4.42861,-0.741027 c -2.95175,-0.493908 -6.24928,-0.786336 -9.88813,-0.876884 -4.73635,-0.117856 -5.8808,-0.04414 -8.63999,0.556506 -4.31711,0.939789 -9.34269,1.558634 -16.78049,2.066333 -3.432,0.234266 -10.45902,1.046016 -15.6156,1.803891 l -9.37561,1.377949 -4.35107,2.420272 -4.35107,2.420272 -1.23038,3.52 c -1.17901,3.373037 -1.2305,3.691258 -1.23332,7.621917 -0.002,3.057559 -0.22139,5.298061 -0.86092,8.800001 l -0.85926,4.69808 0.38422,8.48 c 0.21132,4.664 0.38141,13.61539 0.37797,19.89197 -0.006,10.93187 0.0341,11.70594 0.95369,18.4 0.77571,5.64694 0.95994,8.10694 0.96,12.81835 4e-5,3.72615 0.18643,7.0753 0.51644,9.28 0.60224,4.02328 0.51536,5.55311 -0.80777,14.22397 -0.51915,3.40214 -1.04338,8.36053 -1.16496,11.01863 l -0.22105,4.83291 1.2387,0.1893 c 3.52111,0.53808 10.46434,0.93111 12.71516,0.71975 l 2.51645,-0.23631 -0.27645,-3.72928 c -0.15205,-2.05111 -0.24754,-10.20928 -0.21221,-18.12928 0.0353,-7.92001 0.0744,-24.30752 0.0867,-36.41671 0.022,-21.4689 0.0416,-22.14965 0.78941,-27.36 0.42179,-2.93881 0.86912,-7.0713 0.99406,-9.1833 l 0.22717,-3.84 1.85207,-3.679997 c 1.45198,-2.885031 2.25541,-4.065463 3.71918,-5.464343 3.67274,-3.509917 3.6449,-3.495657 6.82556,-3.495657 h 2.82935 l 2.60255,2.8 c 1.95701,2.105478 3.09165,3.712797 4.57436,6.48 l 1.97181,3.679997 0.39713,4.32 c 0.21841,2.376 0.4037,7.812 0.41174,12.08 l 0.0146,7.76 h 23.00582 c 17.8865,0 23.99252,-0.10359 27.44001,-0.46553 2.43878,-0.25604 7.60217,-0.69347 11.47417,-0.97206 3.872,-0.27859 8.336,-0.6426 9.92,-0.80892 5.27843,-0.55423 13.04195,-0.38872 16.96,0.36157 4.50221,0.86216 9.07741,0.66067 16.32,-0.71872 6.81472,-1.2979 7.49338,-1.21462 13.42557,1.64748 l 4.57235,2.20602 1.66452,3.93508 c 1.99891,4.72572 3.93404,12.64472 4.48041,18.33508 0.20282,2.112 0.78378,6.216 1.29104,9.12 0.50727,2.904 1.08765,7.296 1.2897,9.76 0.20208,2.464 0.64393,6.33701 0.98192,8.60667 0.33795,2.26967 0.61449,5.81993 0.61449,7.88947 v 3.7628 l -2.18723,3.31053 c -2.06265,3.12197 -2.41353,3.47671 -6.16,6.22783 -2.18502,1.60452 -5.48477,3.71373 -7.33277,4.68714 -3.07347,1.61891 -3.72841,1.8322 -7.68,2.50114 -3.91616,0.66294 -4.72384,0.92323 -8.64,2.78443 -4.1126,1.95457 -4.52739,2.08154 -8.64,2.6449 -2.376,0.32547 -5.05657,0.73585 -5.95686,0.91196 -0.90026,0.17612 -4.09789,0.49803 -7.10583,0.71536 l -5.46899,0.39516 0.14871,1.30131 c 0.0818,0.71572 0.30633,2.66931 0.499,4.34131 0.19271,1.672 0.4241,4.948 0.51424,7.28 l 0.16388,4.24 6.28291,0.0257 c 3.45561,0.0141 9.23494,0.28369 12.84294,0.59908 9.985,0.8728 9.96759,0.87379 21.83783,-1.23842 z m -188.55783,-6.68795 c 4.86083,-1.01947 14.31842,-0.97512 24.8,0.1163 11.57001,1.20475 12.59016,1.24101 17.6,0.6255 2.46986,-0.30344 8.57206,-0.65987 13.6,-0.79437 7.12761,-0.19068 9.81908,-0.38501 12.32,-0.88956 1.76,-0.35507 5.252,-0.74967 7.76,-0.87689 2.508,-0.12722 4.56197,-0.32311 4.56437,-0.43532 0.003,-0.11222 0.35413,-2.49452 0.78162,-5.294 0.72059,-4.71893 0.75306,-5.44208 0.44537,-9.92 -0.18253,-2.65652 -0.35868,-4.85844 -0.39144,-4.89317 -0.0328,-0.0347 -2.21514,0.28696 -4.84974,0.71488 -4.2353,0.6879 -6.14315,0.79773 -16.47018,0.94808 -6.424,0.0935 -13.50679,0.33433 -15.73954,0.53511 -3.43635,0.30901 -5.11201,0.27517 -10.91532,-0.22045 l -6.85578,-0.58549 -9.88468,1.34189 c -12.24528,1.66236 -14.1329,1.67726 -26.50217,0.20913 -5.84368,-0.6936 -10.89828,-1.12 -13.27654,-1.12 h -3.84034 l -3.42786,-2.31316 -3.42785,-2.31315 -1.25632,-2.72685 c -0.69098,-1.49977 -2.32226,-4.95884 -3.62508,-7.68684 l -2.36877,-4.96 1.2e-4,-9.31924 1.3e-4,-9.31923 1.27237,-3.96077 c 1.07751,-3.35416 1.68152,-4.59765 3.94383,-8.11922 l 2.67145,-4.15845 5.41618,-2.50443 c 5.86707,-2.71294 8.17254,-3.34875 22.21617,-6.12688 3.256,-0.6441 6.172,-1.24396 6.48,-1.33301 0.70713,-0.20444 0.72923,-2.09367 0.08,-6.83878 -0.25285,-1.848 -0.46429,-4.94207 -0.46986,-6.87572 l -0.0101,-3.51573 -1.10038,1.63396 c -0.6052,0.89867 -1.33698,1.72475 -1.62617,1.83573 -0.85121,0.32663 -7.30456,0.2377 -12.40803,-0.17101 -5.61161,-0.4494 -10.67481,-0.0844 -18.27842,1.31782 -4.24474,0.78277 -5.22429,1.08819 -8.06991,2.51619 l -3.23875,1.62529 -1.8707,2.96475 c -1.20584,1.91107 -2.5234,4.67498 -3.70717,7.77674 l -1.83647,4.81198 -0.0126,4.96 c -0.0136,5.35817 -0.89599,15.34292 -1.92295,21.76 -0.55774,3.48514 -0.64067,5.55889 -0.64428,16.11094 l -0.004,12.11093 1.81004,2.76907 c 0.99552,1.52299 2.72292,4.60644 3.83866,6.85213 1.11574,2.24568 2.7744,5.10842 3.68592,6.36164 1.58794,2.18322 1.797,2.34382 4.99457,3.83694 l 3.33727,1.55836 h 5.15203 c 2.83362,0 6.68128,-0.17005 8.55036,-0.37788 l 3.39832,-0.37787 3.33642,1.30048 c 2.83156,1.1037 3.93461,1.35497 7.28965,1.66057 2.17428,0.19805 4.18862,0.49182 4.47631,0.65282 0.28768,0.161 0.59673,0.18747 0.68676,0.0588 0.09,-0.12863 1.6757,-0.551 3.5237,-0.93859 z m 160.48,-13.45491 c 1.936,-0.34575 4.51447,-0.73215 5.72992,-0.85867 1.7736,-0.18461 3.0688,-0.63734 6.56,-2.29299 3.90452,-1.85165 4.80896,-2.14568 8.83008,-2.87068 3.98884,-0.71918 4.81328,-0.98503 7.52,-2.42493 1.672,-0.88945 4.71056,-2.8503 6.75232,-4.35744 3.2872,-2.42644 3.91936,-3.05481 5.52,-5.48693 l 1.80768,-2.74668 v -3.60394 c 0,-1.98216 -0.27616,-5.43032 -0.61369,-7.66256 -0.33754,-2.23225 -0.77939,-6.07464 -0.98192,-8.53864 -0.2025,-2.464 -0.78247,-6.856 -1.28883,-9.76 -0.50637,-2.904 -1.0793,-6.936 -1.27319,-8.96 -0.50966,-5.32003 -2.31235,-12.9141 -4.08464,-17.20704 l -1.48912,-3.60705 -3.9271,-1.90931 c -5.13699,-2.49755 -5.8624,-2.57429 -12.42151,-1.31403 -7.13961,1.3718 -12.07452,1.58368 -16.48,0.70757 -4.10976,-0.8173 -11.13734,-0.89615 -18.56,-0.20825 -2.728,0.25282 -6.4,0.55021 -8.16,0.66086 -1.76,0.11066 -6.08,0.5042 -9.6,0.87454 -5.84678,0.61515 -8.37085,0.67549 -29.19997,0.69804 l -22.79997,0.0247 -3e-5,7.6 -3e-5,7.6 3.6,-0.005 c 1.98,-0.003 6.97394,0.16718 11.09763,0.37775 8.92823,0.45591 14.11616,0.11274 20.82237,-1.37734 3.07415,-0.68305 6.53488,-1.14078 12,-1.58713 6.95936,-0.5684 9.48163,-0.60782 26.88,-0.42012 l 19.2,0.20713 5.38628,1.07678 c 6.07728,1.21492 11.35574,2.74508 12.32393,3.57257 0.35747,0.30551 1.48218,2.05464 2.49939,3.88696 l 1.84944,3.33148 0.55076,5.62852 c 0.76022,7.76905 0.74278,12.28326 -0.0633,16.38396 -0.35943,1.8285 -0.77491,3.6191 -0.9233,3.97909 -0.45193,1.09645 -5.26937,6.63961 -7.59395,8.73794 -2.00829,1.81281 -2.50659,2.08268 -6.02922,3.26513 -10.36237,3.47838 -17.09139,4.95408 -24.06397,5.27731 l -4.86393,0.22549 0.14237,0.8398 c 0.32172,1.8976 1.10553,10.15581 1.10553,11.64789 v 1.60565 l 5.36,-0.19083 c 3.03543,-0.10807 6.88659,-0.46346 8.88,-0.81946 z m -144.12038,-8.36345 c 5.1361,-0.704 9.51388,-1.28 9.7284,-1.28 0.27964,0 0.45488,-1.38118 0.61918,-4.88 0.12603,-2.684 0.64705,-7.616 1.15782,-10.96 1.37831,-9.02372 1.42704,-10.18356 0.64977,-15.46565 -0.49499,-3.36378 -0.67479,-6.14797 -0.67479,-10.449 0,-4.67839 -0.1894,-7.2762 -0.93718,-12.85435 -0.92858,-6.92684 -0.9385,-7.16724 -1.08128,-26.19101 -0.1435,-19.121485 -0.14099,-19.217008 0.61414,-23.359997 0.54609,-2.9961 0.75908,-5.33633 0.76128,-8.364429 0.003,-4.082199 0.0409,-4.314352 1.30676,-7.985357 0.71704,-2.079511 1.43693,-4.02984 1.59975,-4.334068 0.16282,-0.304227 2.56414,-1.767404 5.33628,-3.251504 l 5.04025,-2.698365 10.4,-1.466688 c 5.72,-0.806678 12.2,-1.556681 14.4,-1.666675 5.34564,-0.267261 13.21904,-1.229981 16.96,-2.073779 4.22778,-0.953607 10.43302,-0.892819 17.57994,0.172208 2.91504,0.434397 5.61357,0.861664 5.99677,0.949481 1.36793,0.313504 4.8222,5.386826 7.60467,11.169022 3.60352,7.488473 3.84601,8.186493 5.13075,14.769139 1.01462,5.198711 1.12787,6.31529 1.12787,11.120002 V 106.88 h 3.13389 c 2.97018,0 3.32106,-0.0752 6.71635,-1.44 3.504,-1.40845 3.66119,-1.44 7.17543,-1.44 2.5958,0 3.98441,-0.1495 5.00352,-0.5387 l 1.41059,-0.53871 -0.212,-3.701294 c -0.23584,-4.117716 -1.70461,-11.303197 -4.51776,-22.101294 -1.28586,-4.935734 -1.95347,-8.382346 -2.69629,-13.92 -0.79715,-5.94264 -3.43101,-19.084759 -3.91056,-19.512311 -0.13123,-0.117015 -12.47443,-4.436125 -14.18317,-4.962947 -0.704,-0.217053 -3.872,-1.445194 -7.04,-2.729201 l -5.76,-2.334556 -6.24,-0.832135 c -3.432,-0.45767 -6.60938,-0.831393 -7.0608,-0.830491 -0.45146,8.96e-4 -4.69946,0.998098 -9.44,2.215992 l -8.6192,2.214355 -7.52,0.211245 c -5.11385,0.143651 -10.69408,0.560838 -17.44,1.303837 -12.76965,1.406451 -19.76677,3.005472 -28.32,6.47184 -7.12122,2.886016 -8.56811,3.529165 -8.80619,3.914387 -0.32533,0.526397 -1.58803,5.111585 -4.57966,16.629985 l -2.86737,11.04 -0.54379,8.16 c -0.53623,8.046461 -0.56564,8.238049 -2.1134,13.769294 -0.86327,3.085114 -1.56959,5.860704 -1.56959,6.167984 0,0.30729 0.52493,1.5991 1.16652,2.87071 1.47937,2.93206 1.96989,6.56461 2.34314,17.35201 0.14615,4.224 0.42137,8.616 0.6116,9.76 0.19817,1.19179 0.35127,6.72606 0.35853,12.96 0.009,7.75459 0.14583,11.79924 0.47628,14.08 0.63567,4.38741 0.6809,21.8483 0.0588,22.69907 -0.69727,0.95358 -7.0112,1.7978 -13.31409,1.78019 l -5.25921,-0.0147 -4.77208,-2.12591 c -3.31705,-1.47771 -4.85284,-2.32909 -5.03693,-2.79228 -0.14566,-0.36651 -0.43532,-1.81837 -0.64368,-3.22637 -0.20836,-1.408 -0.44887,-2.848 -0.53445,-3.2 -0.32423,-1.33344 0.0336,-2.71351 2.14617,-8.2763 l 0.71254,-1.8763 4.31803,-2.04689 c 2.73418,-1.2961 5.50844,-2.34164 7.56343,-2.85046 1.78497,-0.44196 3.6054,-0.96579 4.0454,-1.16407 0.44,-0.19827 2.312,-0.66945 4.16,-1.04706 l 3.36,-0.68657 0.0853,-8.56941 c 0.0802,-8.06242 0.0518,-8.55979 -0.48,-8.40668 -0.3109,0.0895 -2.14927,0.47004 -4.08527,0.84563 -1.936,0.37558 -6.832,1.40052 -10.88,2.27764 -6.74459,1.46142 -7.74798,1.77004 -12,3.69097 -2.552,1.15291 -4.928,2.27754 -5.28,2.49919 -0.352,0.22165 -1.67323,2.04264 -2.93607,4.04665 -1.65065,2.61944 -2.57265,4.5075 -3.28,6.71676 l -0.98393,3.07309 v 9.91927 9.91928 l 2.35671,4.92763 c 1.2962,2.71019 2.71772,5.73266 3.15893,6.7166 0.70664,1.57582 1.13974,2.02381 3.635,3.76 l 2.83278,1.97103 4.00829,0.0196 c 2.52475,0.0124 7.14689,0.41525 12.48829,1.08848 11.73854,1.47952 14.51923,1.46385 26.27962,-0.14814 z m 59.32038,-1.93074 c 2.288,-0.35444 4.556,-0.72446 5.04,-0.82228 l 0.88,-0.17784 V 182.53458 167.36 h -2.34514 c -2.06291,0 -2.51541,-0.11348 -3.76,-0.94301 -3.29049,-2.19312 -3.4516,-2.42466 -4.46538,-6.41699 l -0.93446,-3.68 -0.17503,-22.08 c -0.0963,-12.144 -0.33026,-24.312 -0.51997,-27.04 l -0.34493,-4.96 -1.89116,-3.519997 c -1.27228,-2.368099 -2.55955,-4.226848 -3.93366,-5.68 l -2.04251,-2.16 -2.19388,0.01382 -2.19388,0.01382 -2.14314,2.01663 c -1.68941,1.58969 -2.51278,2.721536 -3.8891,5.346176 -1.72736,3.294091 -1.74815,3.367011 -1.95227,6.849541 -0.11347,1.936 -0.47865,5.536 -0.8115,8 -0.55285,4.09259 -0.62367,7.73383 -0.81897,42.10739 -0.11758,20.69506 -0.11165,39.12706 0.0132,40.96 l 0.22696,3.33261 12.04742,-0.0832 c 10.19558,-0.0704 12.68686,-0.18221 16.20741,-0.72759 z m 84.08355,-6.51475 c 4.39777,-0.97968 8.97607,-2.28933 13.66673,-3.90944 2.94256,-1.01633 3.60457,-1.38991 5.44,-3.06978 1.14934,-1.05194 3.1199,-3.15334 4.379,-4.66978 2.16676,-2.60959 2.31664,-2.89494 2.80026,-5.33134 0.62432,-3.14526 0.66845,-13.21785 0.0821,-18.73418 -0.35872,-3.37466 -0.50397,-3.88374 -1.75034,-6.13558 -0.74755,-1.35058 -1.60713,-2.74449 -1.9102,-3.09759 -0.71332,-0.83102 -4.80311,-2.09173 -10.63108,-3.27713 l -4.64,-0.94376 -20.80336,-0.20459 c -24.60019,-0.24193 -30.13625,9.6e-4 -37.91664,1.66389 -7.7392,1.65409 -11.9169,1.94339 -21.49638,1.48865 -4.457,-0.21158 -9.56607,-0.38226 -11.35352,-0.37929 l -3.2499,0.005 0.14865,5.84 c 0.14671,5.76335 0.68581,9.57835 1.55013,10.96965 0.22197,0.35731 0.961,1.03522 1.6423,1.50646 1.149,0.79476 1.49367,0.85942 4.75872,0.89284 3.07674,0.0315 3.96326,-0.0928 7.04,-0.98726 3.26275,-0.94851 4.0111,-1.04071 10.24,-1.26166 8.4201,-0.29868 19.29319,-1.10656 25.76,-1.91398 8.37709,-1.04592 21.39226,-1.56055 28.32,-1.11979 4.1016,0.26095 4.92218,0.62206 8.14096,3.58253 l 2.06099,1.89557 -0.41616,4.13782 c -0.22889,2.2758 -0.53782,4.3682 -0.68652,4.64977 -0.14871,0.28157 -1.60887,1.30672 -3.2448,2.27812 -2.32167,1.37854 -4.13328,2.12266 -8.25447,3.39049 -2.904,0.89337 -5.96256,1.79295 -6.79677,1.99905 -1.41619,0.3499 -1.50355,0.43063 -1.31724,1.21757 0.72729,3.07247 1.74153,6.93022 2.32579,8.84627 l 0.68406,2.24345 5.83207,-0.36699 c 3.94585,-0.24829 7.04931,-0.63814 9.59564,-1.20539 z m -160.28888,-9.29707 c 1.55907,-0.25307 2.87899,-0.50453 2.93315,-0.55879 0.0541,-0.0543 0.20311,-3.79505 0.33101,-8.31287 0.1686,-5.95533 0.11998,-9.19153 -0.17679,-11.7681 -0.22515,-1.95463 -0.50074,-3.61036 -0.61245,-3.67939 -0.26487,-0.16371 -5.96524,1.00603 -6.67984,1.37072 -0.30236,0.15431 -2.20575,0.68578 -4.22975,1.18105 -2.40487,0.58847 -5.01487,1.52997 -7.5324,2.71717 l -3.8524,1.81668 -1.15584,3.32804 c -0.63571,1.83043 -1.31413,3.29204 -1.5076,3.24804 -0.41441,-0.0942 -0.47502,0.44606 -0.0776,0.69168 0.15079,0.0932 0.53219,1.67476 0.84754,3.51458 l 0.57337,3.34514 4.03246,1.7726 4.03246,1.77258 5.12,0.0105 c 2.97865,0.006 6.30555,-0.18195 7.95467,-0.44963 z m 96.4509,-74.75713 c 1.71296,-0.36283 3.3872,-0.73912 3.72061,-0.83621 0.57494,-0.16745 0.5974,-0.48477 0.43667,-6.16373 -0.14483,-5.116726 -0.27933,-6.328224 -0.92496,-8.332825 -0.69722,-2.164842 -0.88234,-2.429882 -2.40186,-3.438775 l -1.6464,-1.093145 -1.8831,0.950588 c -1.79351,0.90537 -1.93111,1.062458 -2.89203,3.302186 -1.04176,2.427997 -2.07364,7.778531 -2.5016,12.971181 l -0.21591,2.61959 1.23152,0.20172 c 0.67731,0.11095 1.44749,0.24743 1.71149,0.30329 1.17194,0.24799 2.45792,0.13202 5.36557,-0.48387 z"
         id="path299" />
    </g>
  </g>
</svg>
